<svg width="25" height="25" xmlns="http://www.w3.org/2000/svg"><g transform="translate(1 1)" fill="none"><path d="M.34 13.683c.065.317.405.384.567.4l.454.017c.971-.533 3.401-1.867 3.433-1.883.567-.684.065-1.3-.21-1.734L4.244 10 .729 12c-.421.25-.664.45-.583.933l.194.75z" fill="#008D95"/><path d="M.923 14.083c-.178-.016-.502-.083-.567-.4l.438 2c.13.484.42.55.907.584l4.584.266c.502.05 1.28.034 1.441.917.065-.333.227-1.233.227-1.233a1.77 1.77 0 0 0-.016-.65 1.58 1.58 0 0 0-1.49-1.25l-5.524-.234z" fill="#00B5C8"/><path d="M22.482 14.95c.064-.317-.195-.533-.34-.617l-.405-.216c-1.102.05-3.855.166-3.888.166-.793.367-.599 1.15-.534 1.65l.097.584 4.017-.234c.486-.033.794-.1.907-.583l.146-.75z" fill="#81C241"/><path d="M4.6 3.217c-.454-.184-.745-.267-1.069.116l-.47.6c-.194.25-.048.567.049.717l.275.383c1.02.45 3.531 1.584 3.58 1.6.858.034 1.036-.766 1.182-1.25l.162-.566-3.709-1.6z" fill="#2AB24B"/><path d="M13.67.817c-.145-.484-.275-.767-.76-.784h-.746c-.308 0-.453.317-.502.484l-.113.45c.291 1.1 1.004 3.833 1.02 3.866.518.717 1.215.35 1.685.184l.534-.234L13.67.817z" fill="#C3D82E"/><path d="M21.283 5.533l-.47-.6c-.194-.25-.518-.166-.68-.1l-.421.184c-.648.916-2.284 3.2-2.3 3.233-.227.867.486 1.2.923 1.467l.502.283 2.317-3.367c.275-.416.404-.7.13-1.1z" fill="#F1D311"/><path d="M6.722 21.75l.291-.35c.21-1.117.713-3.9.713-3.933-.162-.867-.94-.867-1.441-.917l-.584-.033-.664 4.083c-.08.5-.08.817.357 1.05l.664.333c.275.117.534-.1.664-.233z" fill="#008D95"/><path d="M11.662.533c.049-.166.194-.483.502-.483h-1.992c-.486.017-.616.3-.761.783l-1.28 4.55c-.162.484-.324 1.267-1.182 1.25.307.134 1.117.5 1.117.5.178.084.389.134.632.134.729 0 1.344-.517 1.506-1.217L11.662.533z" fill="#81C241"/><path d="M3.11 4.65c-.097-.15-.243-.467-.049-.717L1.814 5.55c-.291.4-.162.683.13 1.1L4.6 10.5c.275.433.761 1.05.21 1.733.292-.166 1.086-.583 1.086-.583.178-.1.34-.233.486-.417.453-.583.437-1.4.016-1.966L3.11 4.65z" fill="#00B5C8"/><path d="M15.906 22.517c.275-.134.275-.484.259-.667l-.081-.467c-.73-.866-2.527-3-2.543-3.033-.761-.417-1.247.217-1.587.6l-.39.45 2.673 3.083c.34.367.567.567 1.005.367l.664-.333z" fill="#009448"/><path d="M16.165 21.867c.016.183.032.533-.26.666l1.799-.9c.42-.233.42-.55.356-1.05l-.761-4.666c-.065-.517-.243-1.3.55-1.65-.324.016-1.214.05-1.214.05a1.79 1.79 0 0 0-.616.166c-.664.317-.988 1.067-.858 1.767l1.004 5.617z" fill="#2AB24B"/><path d="M6.722 21.75c-.114.133-.389.35-.664.217l1.798.9c.437.2.68 0 1.004-.367l3.061-3.517c.34-.366.826-1 1.587-.6-.21-.25-.793-.95-.793-.95a1.805 1.805 0 0 0-.502-.4 1.557 1.557 0 0 0-1.88.417l-3.611 4.3z" fill="#00B5C8"/><path d="M22.125 14.333c.146.1.421.3.34.617l.438-2c.097-.483-.146-.683-.583-.933l-4.001-2.3c-.421-.267-1.134-.6-.923-1.467-.195.267-.73 1.017-.73 1.017a1.67 1.67 0 0 0-.258.6c-.162.733.194 1.466.81 1.783l4.907 2.683z" fill="#C3D82E"/><path d="M20.133 4.833c.162-.066.486-.15.68.1l-1.247-1.616c-.308-.384-.615-.3-1.069-.117l-4.243 1.817c-.47.183-1.167.533-1.685-.184.081.317.324 1.217.324 1.217.049.2.146.4.292.583.453.584 1.23.75 1.862.467l5.086-2.267z" fill="#F5EA00"/></g></svg>