<svg xmlns="http://www.w3.org/2000/svg" xmlns:xlink="http://www.w3.org/1999/xlink" width="206" height="50"><defs><path id="a" d="M0 0.222L67.753 0.222 67.753 23.869 0 23.869z"/></defs><g fill="none" fill-rule="evenodd"><path fill="#FFF" d="M22.873 40.122a.422.422 0 0 1-.176.175M24.462 27.7c.183 0 .332-.15.332-.335a.334.334 0 0 0-.332-.334.334.334 0 0 0-.333.334c0 .186.149.335.333.335m11.414-7.293h3.64V13.99h-3.64v6.418zm3.64 3.049c-.062.693-.297 1.269-.776 1.595l-2.864 1.71v-6.026h3.64v2.72zm-7.328-3.049h3.363V13.99h-3.363v6.418zm3.363 6.55l-1.324.79h-.023a.555.555 0 0 1-.702-.005l-1.314-.786v-6.221h3.363v6.221zm-4.724-6.55h1.035v-2.35h-1.035v2.35zm1.035 6.355l-2.864-1.711c-.48-.326-.714-.902-.777-1.595v-2.721h3.641v6.027zm-3.64-10.297h1.256V13.99h-1.257v2.476zm1.57-1.546l.147-.154-.091-.17.194.021.116-.204.113.202.197-.018-.092.169.148.154-.189.035v.21l-.177-.133-.178.133v-.21l-.188-.035zm.89 2.587c-.01-.063-.09-.08-.127-.08-.11 0-.157.186-.25.19-.07.004-.119.01-.119-.074 0-.063.143-.111.198-.166-.777 0-.791.356-.913.356-.203 0 .17-.374.278-.484-.156-.024-.247-.22-.42-.316.081-.116.127-.066.228.016 0-.082.061-.177.242-.177.347 0 .25.335.306.335.056 0-.004-.335.229-.335.343 0 .774.884.384.884-.167 0-.032-.126-.036-.15zm-.834 1.889l.194.02.116-.204.113.202.197-.018-.092.169.148.153-.189.036v.21l-.177-.134-.178.134v-.21l-.188-.036.147-.153-.091-.17zm-1.42-2.39l.194.02.116-.204.115.203.195-.018-.091.168.147.154-.188.036v.21l-.178-.133-.177.133v-.21l-.188-.036.147-.154-.091-.168zm-.207 3.402h1.257v-2.35h-1.257v2.35zm2.889-3.08l.147-.153-.092-.168.194.02.116-.205.114.203.197-.018-.092.168.148.154-.188.036v.21l-.179-.133-.177.133v-.21l-.188-.036zm-.283-.862h1.035V13.99h-1.035v2.476zm9.027-2.798v-.006h-11.97v.006h-.001l.01 9.667c0 .933.394 1.748.94 2l4.603 2.75a.56.56 0 0 0 .794.042l4.675-2.792c.546-.252.94-1.067.94-2l.01-9.667h-.001z"/><path fill="#FFF" d="M31.668 22.95c-.017-.039-.456.145-.331.134.013-.13.256-.394.365-.492-.02-.153-.216-.014-.42.093.68-.976.243-.576-.137-.506.608-.656.448-.645 0-.441.352-.28.427-.612.373-.71-.33.441-.635.373-.635.781 0 .27-.097.711-.236.86-.177.193-.04-.72-.508-.72-.149 0-.502-.013-.608.17.095 0 .237.243.237.339 0 .097.089.362-.071.362-.16 0-.345-.336-.345-.497 0-.16-.01-.122-.01-.354 0-.386-.63-.93-.887-.93 0 .27.352.334.352.677-.149 0-.362-.28-.362-.107 0 .172.224.204.224.355 0 .15-.256-.054-.256.108 0 .142.14.117.174.256-.104-.03-.198-.016-.216.037-.017.047.03.107.109.15-.036.034-.067.114-.067.34 0 .764.479 1.119.83 1.119.25 0 .212-.175.242-.258.01.13.133-.065.133.16 0 .237-.242.134-.242.338 0 .272.383-.01.383.292 0 .366-.045.359-.045.498 0 .096.401-.134.376-.175.096.035.093.318.271.312.115-.005.14-.292.232-.316-.054.014.363.272.363.142 0-.356-.146-.205-.146-.45 0-.225.493-.181.415-.296-.066-.097-.11-.038-.162-.206.01.03-.388-.566.082-.258.494.323.55-.751.523-.807m12.77 2.528c.217 0 .393-.155.393-.346 0-.192-.176-.347-.393-.347-.218 0-.394.155-.394.347 0 .19.176.346.394.346m-1.592.947c.218 0 .393-.156.393-.348 0-.19-.175-.346-.393-.346-.218 0-.394.155-.394.346 0 .192.176.348.394.348m-18.92 2.181c.217 0 .394-.155.394-.347 0-.192-.177-.347-.393-.347-.218 0-.394.155-.394.347 0 .192.176.347.394.347m1.226.106c.218 0 .394-.156.394-.348 0-.192-.176-.347-.394-.347-.218 0-.394.155-.394.347 0 .192.176.348.394.348m34.06-16.51c.585.694.71 1.81.292 2.608-.23-.021-.188-.315-.23-.484-.417-.778-.75-1.766-.375-2.649.272.042.167.378.313.526m-49.978.945c-.126.505-.126 1.2 0 1.662-.104.105-.083-.105-.188-.084-.814-.589-.439-1.745-.647-2.565.042-.064.146-.084.208-.043.376.253.544.61.627 1.03m51.774.064c.125.231-.105.462-.272.567-.188.043-.397-.063-.522-.23-.063-.232.062-.442.251-.547.208-.02.417.02.543.21m-53.048.925c-.042.19-.104.38-.27.462-.126 0-.315 0-.397-.104-.126-.106-.147-.295-.085-.442.085-.147.252-.168.397-.19.146.064.292.106.355.274m53.862.358a.475.475 0 0 1 0 .336c-.146.19-.356.273-.564.19-.146-.085-.188-.232-.23-.358.042-.168.21-.316.355-.379.188 0 .313.105.439.21m-1.19.022c.166.083.041.294.02.42-.104.106-.25.273-.438.21-.104-.104-.229-.104-.271-.252 0-.21.083-.42.292-.484.167-.042.271.042.397.106m-1.524.315c0 .232.02.526-.251.568-.25.084-.417-.126-.48-.295a.498.498 0 0 1 .314-.505c.166 0 .313.106.417.232m-48.873.105c.063.21-.145.337-.27.442-.147.042-.334-.084-.419-.232-.145-.147.042-.273.085-.4.208-.189.52-.041.604.19M8.984 15c0 .168-.083.337-.229.4-.167.063-.334-.063-.418-.19-.104-.21.021-.399.188-.483.23-.084.376.126.46.273m45.072.084a4.4 4.4 0 0 1 .417 1.514c-.083.4.063.925-.23 1.199-.292-.105-.312-.463-.5-.652-.376-.736-.042-1.598.083-2.313.167-.063.167.147.23.252m-46.054.253c.062.252-.125.378-.271.525-.25.063-.418-.126-.523-.294a.527.527 0 0 1 .272-.504.535.535 0 0 1 .522.273m49.352.609c.271.61.292 1.346.104 2.019l-.125.105c-.292-.568-.71-1.094-.856-1.703 0-.442.084-.841.25-1.2.147-.103.23.022.293.148.02.232.125.505.334.63m2.631-.377c-.021.21-.104.441-.314.505-.209.042-.417-.021-.48-.253-.063-.21.063-.399.23-.505.23-.126.46.085.564.253m-50.98.651a.45.45 0 0 1-.314.4c-.167.126-.292-.084-.439-.147-.062-.168-.105-.315 0-.484.063-.126.21-.126.335-.168.188.105.375.19.417.4m.918-.105c.084.21-.146.315-.229.42-.25.084-.376-.105-.48-.252-.042-.21.083-.337.23-.463.25-.063.375.105.48.295m50.646-.063c-.021.273-.439.546-.48.82-.23.567-.73.988-1.294 1.177-.126.105-.293.253-.48.273-.042-.42.333-.799.563-1.177a3.094 3.094 0 0 1 1.691-1.093m-51.982.883c.313.357.48.672.855.988.022.084-.041.21-.146.21-1.022-.063-1.711-1.115-2.213-1.85.063-.231.334-.043.48-.064.355.274.752.358 1.024.716m52.275.294c-.043.904-.48 1.829-1.295 2.27-.23.085-.48.316-.71.17.438-.905 1.107-1.641 1.838-2.44h.167m-4.009.61c.062.315-.105.505-.355.61-.23.02-.375-.17-.48-.337a.44.44 0 0 1 .293-.463c.062-.063.166-.063.25-.063.125.042.187.148.292.253m-49.415.189c.397.274.752.652 1.127.988-.27.19-.605.02-.918.02-.71-.251-1.19-.86-1.92-1.071.02-.231.291-.147.438-.21.46-.042.835.168 1.273.273"/><path fill="#FFF" d="M29.798 11.803c-1.17-.462-1.942.757-3.132.61-.145.084-.104.231-.187.336-.063.064-.167.022-.23-.02-.062-.505-.23-.968-.292-1.452-.125-.21-.063-.504-.167-.714-.668-1.83 1.628-.442 2.087-1.514.398-.925-.772-1.03-1.127-1.682v-.274c-.334-.336-.689-.44-.898-.883.146-.526.21-1.093.063-1.619-.02-.126-.104-.294-.292-.231-.397.546-.69.988-1.065 1.514-.397-.295-.773-.673-1.232-.926-.313-.042-.605-.357-.96-.23-.062.126 0 .23.063.314.02.82.438 1.472 1.022 2.061l.063.316c-.375.862-.271 1.85-.375 2.775-.94 2.397-2.464 4.71-4.531 6.371-1.19 1.346-2.61 2.65-2.797 4.5-.063.294.042.652-.188.862-.69-.252-1.378-.59-1.941-1.03-.96-.673-2.339-.59-2.965-1.809-.25-.483.063-.967.292-1.324.71-.673.605-1.872.23-2.691-.083-.021-.105.083-.167.104-.063 1.24-1.044 2.103-.668 3.47.083.399.292.651.397 1.03-.147-.042-.355-.042-.481-.105-.459-.063-.918-.253-1.398-.19-.96.442-2.276-.104-3.048.78-.126.02-.293.041-.25.23.458 0 .897.126 1.357.105.73.126 1.21-.483 1.711-.757h.125c.209-.21.564-.084.836-.126 1.314.147 2.338.778 3.423 1.43v.083c-.418.19-.898.316-1.315.548-.481.357-1.024.82-1.17 1.409-.334.525.105.988.314 1.43.02.21.041.462.23.546.668-.715.04-1.598.145-2.418.167-.63.753-.925 1.358-1.094 1.19-.504 2.046.463 3.005 1.01-.02.967.105 1.893-.104 2.838a2.579 2.579 0 0 1-.981.148c-1.65.126-2.944 1.03-4.426 1.534-.667.231-1.46.21-2.129.463.522.147 1.065-.042 1.608-.063 2.045-.295 3.611-1.872 5.824-1.599l.041.064c-.25.525-.584.967-.98 1.366-.064-.23-.084-.42-.293-.546-.167-.084-.355 0-.48.168-.062.105-.062.231 0 .316.104.189.272.23.46.294-.042.19-.272.273-.397.441-.585.989-1.775.59-2.463 1.283-.105.148-.48.232-.314.463a3.132 3.132 0 0 0 2.15-.547c.773-.862 1.587-1.682 2.36-2.502.124.673-.063 1.367-.46 1.914-.187-.106-.334-.254-.564-.316-.208.042-.354.252-.375.42.083.147.167.316.312.421-.709.505-1.606.547-2.42.778-1.525.19-3.007.316-4.551.337-.732-.042-1.567.21-2.255 0-.794.146-1.65-.106-2.297.336-.083.105.02.21.02.315.962.631 2.277.126 3.363.316h8.224c.606-.021 1.211-.042 1.691-.316 1.066-.61 1.65-1.703 2.193-2.776.208-.377.355-.82.438-1.26a1.815 1.815 0 0 1 1.565-1.283c.105 1.093-.104 2.186-.355 3.196-.125.673-.563 1.324-.292 2.039.063.337.418.337.69.379 2.526-.042 5.052-.148 7.723.042.481.084.899.23 1.42.21.042-.064.188-.084.126-.21-.063-.232-.23-.526-.502-.589-.04-.126-.229-.085-.292-.168-1.336-.757-2.943-.358-4.51-.337-.814.085-1.627.231-2.317-.231-.312-.379-.083-1.577-.083-1.577 0-.475 1.148-3.785 1.295-4.058.04-.315.166-.61.125-.968.166-.42.125-.967.125-1.43.083-.672.418-1.303.647-1.955.125-.315.23-.652.355-.967.125-.4.168-.778.418-1.093.68.431 1.347.419 1.674 1.191l.288 1.752c0 .106.084.315.23.19.543-.358.376-1.157.376-1.703.125-.652-.334-.967-.522-1.535-.147-.106-.387-.607-.387-.607-.083-.463-1.096-.781-.866-1.349.125-.483.25-.925.71-1.198.067.047.096.097.104.149l.25-.176.027-1.758c.676-.002 1.685.084 2.374.084.189.063.334.21.543.231l.167-.231 1.692-.33c-.719.08-1.155-.745-1.838-.745m1.838.745a1.02 1.02 0 0 0 .156-.03l-.156.03"/><path fill="#FFF" d="M13.452 18.406c.02.252-.126.399-.314.483-.167-.063-.291-.084-.396-.252-.084-.231.125-.4.292-.484.167.042.376.063.418.253m-1.357 0a.459.459 0 0 1 .083.483c-.145.126-.375.232-.501.064-.125-.127-.25-.274-.146-.442.146-.148.397-.274.564-.105m29.06.23l.018.03m15.89.328c.083.232-.105.4-.271.484-.21-.063-.48-.105-.48-.379.02-.168.166-.273.312-.315.188-.063.355.084.439.21m1.106-.041c.063.104.21.273.042.378-.084.063-.146.084-.21.168-.228.042-.437-.042-.5-.253-.042-.231.146-.336.314-.441.145-.042.25.063.354.148m-51.315.252c-.082.252-.292.357-.562.273a.877.877 0 0 1-.168-.273c.02-.148.063-.295.23-.358.25.021.438.126.5.358m7.037.357c-.022.168-.21.315-.355.4-.21.02-.355-.148-.46-.295 0-.168.083-.379.25-.42.23-.085.48.084.565.315m-1.233-.147c.063.063.125.23.063.336-.125.105-.313.294-.522.168-.126-.105-.271-.189-.23-.4.084-.083.188-.21.314-.251.166-.042.25.063.375.147m48.706.252c0 .168-.167.337-.272.4a.408.408 0 0 1-.46-.105c-.125-.043-.083-.21-.083-.316a.724.724 0 0 1 .397-.273c.188.042.313.168.418.294m1.335.19c-.062.188-.208.357-.396.378-.125-.021-.355-.063-.312-.253 0-.147.083-.294.187-.336.208-.105.459 0 .521.21m-53.464.295c.041.252-.042.42-.25.504-.147.084-.293-.02-.397-.105-.105-.105-.188-.273-.105-.42.042-.19.23-.148.355-.232.188.021.293.106.397.253m1.022.189c.063.168-.125.231-.166.357-.104.064-.251.126-.376.042-.147-.126-.313-.315-.168-.504.168-.316.606-.147.71.105m49.874-.105c.021.21-.166.357-.292.483a.359.359 0 0 1-.417-.252c-.02-.169.083-.294.23-.4.187-.02.375 0 .48.169m1.712.336c-.043.19-.021.4-.23.525-.168.043-.376.021-.5-.083-.127-.105-.148-.295-.085-.442.105-.168.293-.294.502-.252.146.084.187.189.313.252m-53.402.442c.083.168-.105.21-.167.294-.147.085-.293.02-.418-.042-.146-.084-.083-.294-.063-.4.188-.357.564-.104.648.148m52.086.4c.084.02.042.146.02.188-.5.253-1.252.316-1.69-.084-.25-.21-.563-.294-.835-.462.104-.274.48-.253.752-.316.604.084 1.085.653 1.753.673m-51.085-.189c.042.169-.083.232-.125.358-.083.126-.25.084-.355.042-.187-.127-.27-.358-.146-.527.23-.23.5-.104.626.127m1.837.126c.084.19-.041.358-.208.463-.147.084-.271-.042-.397-.063-.104-.148-.292-.316-.104-.484.188-.315.563-.148.709.084m24.137.89c-.04.419-.734-.06-.635.499.1.4.18.879.417 1.178.198.28.098.72.08 1.06-.179.299-.477.518-.794.678-.595-.06-1.468.3-1.746-.44-.118-.319-.337-.638-.337-.998.06-.04.14-.04.199-.1 0-.14-.159-.22-.139-.36.674-.12-.278-.719.297-.759.476.5 1.25.34 1.666.88.1.08.179.2.298.26-.08-.5-.318-1-.397-1.539-.06-.28.04-.54.238-.7.358-.279.654.12.853.34m-22.3-.132c.064.21-.103.337-.23.442-.186.084-.291-.126-.375-.232-.063-.21.084-.315.21-.42.145 0 .312.063.396.21m12.88.21c.25.82.167 1.661-.25 2.356-.02.167.042.441-.188.42-.564-.778-.146-1.871.084-2.691.041-.211.292-.295.354-.085m17.87.4c.293.589.314 1.366.043 1.956l-.167.167c-.23-.483-.418-.966-.48-1.493.104-.378.23-.714.25-1.114.293-.063.271.316.355.484m-29.123.23c-.125.253-.48.316-.71.485-.5.378-1.231.462-1.858.357.543-.756 1.378-1.199 2.38-.989.042.085.147.043.188.148m-8.58.757c.772.547.98 1.304 1.44 2.06.062.084.272.105.188.274-.167.126-.333-.126-.563-.084-.794-.358-1.295-1.24-1.274-2.166 0-.084.125-.084.21-.084m36.888.652c.02.21-.021.42-.188.483a.381.381 0 0 1-.48-.252c-.063-.146.062-.231.104-.336.167-.169.459-.084.564.105"/><path fill="#FFF" d="M51.865 25.47c0-.399.104-.777.146-1.156a.768.768 0 0 0 .083-.441c.502-.674 1.524-.463 2.318-.4.313.168.71.147 1.043.231.147-.105.355-.126.522-.105.668-.358.23-1.135.272-1.745l-.251-.63a2.507 2.507 0 0 1-.167-.422c-.125-.147-.208-.42-.334-.567-.354-.926-1.044-1.451-1.629-2.187-1.064-1.388-2.734-2.166-4.404-2.712-1.65-.568-3.32.168-4.802.693-.459-.126-.688-.483-.814-.883a4.177 4.177 0 0 1 .397-2.229c.063-.525.417-.924.563-1.409.376-1.177.773-2.333.857-3.616.04-.778-.543-1.325-1.128-1.66-.396-.106-.856-.085-1.148.23-.272.568-.856.947-1.357 1.22-.042.357.396.126.542.252.46.084.982-.063 1.358.232.042.84-.439 1.535-.877 2.165-.71 1.052-1.461 2.124-1.9 3.28l-.083-.084.1 5.14c.666 1.107 1.497 2.37 2.739 2.788.667.546 1.503 1.198 2.4.714.48-.147.522.526.752.8.25.777-.313 1.324-.355 2.039l-.543 1.156c-.627 1.22-1.19 2.523-2.15 3.554-.313 0-.5.336-.814.357-.167.231-.502.063-.71.148-.647.273-1.566.104-2.004.714.041.063.104.084.167.105 1.273.022 2.693.106 4.05.043.167-.064.314-.211.334-.4-.187-.358.063-.673.23-.946.104-.505.438-.82.584-1.304.439-.862.94-1.703 1.42-2.566l.647-1.05c.146-.358.396-.8.647-1.178.167-.168.25-.358.376-.567.021-.211-.084-.295-.21-.442.147-.148.376-.105.565-.148.522.315 1.065.82 1.169 1.389l.188.546.084.253-.043.693.084.652c.105 1.01-.084 2.04-.188 3.05-.355 1.219-1.754 1.092-2.756 1.366-.25.168-.73.084-.73.504 1.21.253 2.63.105 3.924.084.209-.084.251-.273.355-.462.042-.273.314-.505.23-.799-.23-.295-.02-.757-.083-1.156a.652.652 0 0 0 0-.4c.167-.61.125-1.346.25-1.935l.084-.798m10.27-.82c-.668.945-1.377 2.018-2.546 2.355-.084 0-.167.041-.21-.064.71-.757 1.087-1.934 2.193-2.208.167-.083.397-.168.564-.083M5.143 25.68c-.105.084-.02.273-.21.294-.166.084-.353-.02-.437-.19-.084-.21.104-.42.27-.462.168.084.335.148.377.358m6.013.294c.062.19-.147.19-.251.231-.877.316-1.774.021-2.4-.61 0-.083 0-.168.083-.189.855.21 1.858.042 2.568.568m-4.864-.273a.555.555 0 0 1 .041.315c-.126.19-.314.231-.522.19-.125-.063-.188-.148-.272-.274.022-.21.188-.337.355-.4.168.022.293.063.398.169m19.56.105c.042.19-.125.316-.25.4a.413.413 0 0 1-.438-.169c-.063-.147 0-.357.146-.4.188-.042.48-.02.542.169m37.077.084c.063.21-.125.315-.271.441-.125.063-.272 0-.397-.063-.021-.105-.146-.188-.104-.336.083-.19.27-.273.48-.252.104.084.188.105.292.21m1.378-.084c.125.19.021.337-.083.484a.286.286 0 0 1-.377.125c-.125-.125-.292-.189-.312-.378 0-.169.187-.294.312-.357.21-.085.293.126.46.126m-60.041.61c.02.147-.104.23-.145.357-.105.042-.21.126-.335.084a.611.611 0 0 1-.313-.336.544.544 0 0 1 .375-.42c.168.042.356.125.418.314"/><path fill="#FFF" d="M48.232 26.416c.042.085.02.19.02.274-.124.168-.291.316-.5.21-.125-.126-.272-.252-.21-.442.169-.23.523-.314.69-.042m-40.605.316c-.041.147-.104.294-.292.315-.188.021-.25-.147-.354-.23 0-.19-.022-.38.166-.485.25-.084.48.126.48.4m-2.004.042c.063.21-.084.358-.209.463-.25.084-.46-.105-.563-.295.02-.19.167-.42.375-.484.188 0 .293.21.397.316m43.987-.042c.042.21-.021.42-.23.505-.25.084-.459-.126-.564-.295.105-.168.126-.4.377-.44.188 0 .313.083.417.23m-43.006.084c.063.147-.062.21-.105.316-.104 0-.166.126-.292.083-.083-.104-.25-.147-.27-.294-.022-.21.125-.315.27-.4.21-.02.335.127.397.295m55.177.169c-.063.167-.188.252-.355.336-.167.042-.272-.106-.397-.169-.104-.084-.063-.273-.02-.378.208-.358.772-.189.772.21m1.586.084c-.062.231-.292.337-.5.358-.189-.084-.397-.231-.251-.484.083-.084.125-.168.25-.19.251-.083.439.106.501.316m-9.916.147c.105.274-.145.358-.313.484a.958.958 0 0 1-.397-.168.483.483 0 0 1 .293-.546c.188 0 .292.083.417.23m-5.74.253c.104.043.062.189.04.253-.124.083-.291.294-.48.167-.146-.084-.25-.21-.208-.4.105-.23.543-.251.648-.02m1.168.147c.022.168-.02.252-.166.337-.147.146-.314-.021-.46-.064-.041-.084-.084-.21-.021-.315a.465.465 0 0 1 .271-.168c.147.042.313.042.376.21m-35.427.021c.125.126-.021.273-.042.4-.105.126-.334.23-.522.105-.209-.084-.187-.358-.146-.526.125-.042.125-.19.292-.19.188.022.292.106.418.211m42.233.085c.042.21-.168.294-.313.336-.25.084-.376-.105-.48-.274 0-.126.125-.21.167-.315.292-.126.48.085.626.253m-1.127 0c.083.21-.146.315-.23.42a.42.42 0 0 1-.46-.084c-.104-.064-.104-.19-.104-.316.125-.105.188-.23.335-.273.187 0 .375.105.459.253m9.415.251c.041.295-.334.147-.48.232-.877.525-2.005.125-2.84-.19.063-.273.376-.168.544-.273.897-.568 1.816.126 2.713.168l.063.063m-57.14-.251l-.082.146c-.773.462-1.775.778-2.693.484l-.084-.126c.772-.568 1.795-.714 2.798-.568l.062.064m50.98.146a.478.478 0 0 1-.209.4c-.208.062-.48 0-.542-.23-.062-.17.104-.338.27-.4.148 0 .398.02.482.23m-47.244.085c-.084.167-.042.336-.251.42-.208.084-.459-.105-.521-.274-.063-.23.104-.294.208-.399.25-.126.44.063.564.253m-1.482.105c.063.147-.063.23-.105.336-.105.126-.292.105-.418.063-.145-.127-.291-.273-.23-.504.127-.106.189-.17.335-.231.188.041.376.125.418.336m50.187.484a.448.448 0 0 1-.334.377c-.167.021-.314-.105-.397-.21a.33.33 0 0 1 .083-.4c.042-.062.188-.062.272-.104a.448.448 0 0 1 .376.337m-51.732-.232c.062.168-.083.232-.105.358-.063.357-.292.588-.458.904-.398.483-.962.483-1.525.63l-.083-.168c.605-.778 1.252-1.388 2.108-1.766l.063.042m50.688.463c.042.252-.167.294-.313.399a.474.474 0 0 1-.418-.253c-.063-.23.146-.314.272-.42.208-.042.396.106.46.274m-48.289 0c-.02.041.022.083.063.104-.02.232-.188.295-.313.4a.563.563 0 0 1-.46-.21c-.082-.19 0-.42.21-.483.188-.021.438 0 .5.189m52.13.63c.208-.02.25-.273.48-.315.209-.042.395.084.5.231.084.253-.105.379-.27.484-.147.105-.46-.126-.44.147.147.105.272.253.293.42-.042.085-.188.064-.25.022-.606-.253-1.253-.673-1.504-1.304-.084-.19-.48-.336-.25-.504.605-.042 1.106.441 1.44.82m2.004-.652c.105.104.063.294-.02.399-.105.21-.418.126-.605.105-.105-.105-.21-.21-.168-.379a.667.667 0 0 1 .313-.272c.188-.042.334.041.48.147M56.5 29.886c.188.231.376.588.46.841-.043.063-.147.042-.188.042-.71-.4-1.628-.841-1.9-1.682-.063-.084-.23-.19-.209-.336.543-.106 1.065.294 1.44.588.147.211.314.316.397.547m-47.723-.799c.083.189-.084.337-.188.42-.23.043-.355-.042-.48-.168-.147-.23.125-.42.292-.505.166-.02.271.148.376.253m50.333.484c.02.126-.146.21-.209.294-.167.02-.334.084-.48-.063-.042-.105-.146-.274-.021-.378.23-.295.564-.063.71.147m5.198.294c.062.252-.125.42-.293.526-.208.063-.375-.085-.5-.19-.105-.126-.02-.252 0-.399.145-.126.333-.231.543-.147.083.063.167.105.25.21m-14.446 2.902c0 .251-.46.189-.648.378-.647.336-1.42.336-2.191.316v-.127c.75-.63 1.836-.862 2.839-.567m-30.459.904c-.021.189-.126.294-.314.357a.404.404 0 0 1-.354-.21c-.084-.253.125-.357.27-.463a.487.487 0 0 1 .398.316m30.104.23c-.042.19-.105.4-.313.485-.189.041-.314-.063-.46-.147-.105-.085-.041-.232-.062-.337a.449.449 0 0 1 .835 0m4.154.084c-.522.337-1.106.737-1.795.737l-1.127-.022-.106-.084c.69-.84 1.942-.84 3.028-.757v.126m-39.978.505c0 .19-.084.336-.272.399-.209.043-.355-.042-.439-.189-.083-.19 0-.378.167-.484.23-.147.46.106.544.274m1.043.21c.063.105-.04.168-.083.274-.126.062-.292.104-.397 0-.146-.085-.188-.232-.125-.358.063-.126.188-.105.25-.19.146.064.293.127.355.274"/><g transform="translate(0 19.474)"><mask id="b" fill="#fff"><use xlink:href="#a"/></mask><path fill="#FFF" d="M6.73 17.351c-.21.252-.543-.063-.773-.19-.73-.42-.71-1.24-1.44-1.724.083-.252.27.022.417-.02.125.084.292.168.439.23.71.4.876 1.073 1.356 1.704" mask="url(#b)"/><path fill="#FFF" d="M34.391 16.952c-.084.252-.25.462-.23.735l-.083.043c.063-.316-.25-.505-.167-.842-.168-.252-.168-.567-.313-.84-.188-.337.166-.484.313-.715.292.126.396.4.605.651.126.358-.146.63-.125.968zm33.194-7.759c-.334-.61-.899-.862-1.567-.862-.542.042-.94.4-1.169.862-.124.463.043.883.397 1.156.147.063.335.042.418-.105.104-.273-.188-.273-.23-.484-.083-.294.022-.546.23-.736.209-.21.564-.105.814-.105.25.169.501.316.626.61.126.358.126.757 0 1.115-.23.525-.75.946-1.294 1.051-1.733.252-20.752.168-20.752.168-2.233.21-4.78-.42-6.7.757-.877.42-1.315 1.387-1.545 2.25-.564.505-1.17 1.093-1.629 1.66l-.062-.062c.104-.505.334-.946.438-1.451.313-.42.313-.989.543-1.451.793-1.282 1.544-2.586 2.776-3.49.523-.694 1.44-.568 2.234-.568.856.4 1.858.526 2.902.42a.192.192 0 0 0 .062-.146c-.292-.274-.772-.38-1.106-.652-.834-.4-1.628.126-2.505.063-.042-.042-.084-.063-.063-.126.794-.59 1.691-1.01 2.59-1.389.73-.4 1.502-.61 2.274-.903.314 0 .606-.273.898-.084l1.107-.295c.041.021.084.085.167.063.939-.315 2.13-.021 3.193-.042l.147.127 1.002.251c.376.042.543.484.94.505.208-.294-.23-.42-.335-.61.46-.104.982.021 1.399.21l-.208.232c-.126.232.062.4.25.483.146.043.25-.062.355-.104.271-.19-.021-.379.062-.547 1.545.273 3.028.651 4.448 1.262.395.126.771.42 1.21.399-.439-.4-1.044-.61-1.587-.84-.355-.211-.856-.232-1.127-.527.063-.105.209-.063.27-.146.711-.085 1.317-.61 1.818-1.178.041-.126.27-.085.25-.252-.188-.21-.501.062-.751.042-.877.167-1.253 1.198-2.13 1.388-1.064-.254-2.15-.505-3.215-.779-.522-.084-1.085-.126-1.565-.336l-1.17-.106h-2.13c-.02-.042-.082-.063-.062-.125.752-.19 1.4-.631 2.151-.82L56.25 2.38A13.823 13.823 0 0 0 57.836.656a.398.398 0 0 0-.23-.4c-.147-.062-.314-.042-.418.085-.25.189 0 .42 0 .652-.25.335-.647.63-.96.82-.083-.022-5.762 2.586-5.762 2.586-.835.357-1.67.757-2.547.946l-1.211.19c-.083.252-.292.399-.523.483-.333.063-.604.273-.96.273-2.713 1.052-5.531 2.166-7.682 4.31.125-.252.188-.567.21-.883-.043-.315-.022-.672-.23-.925-.05-.116-.202-.455-.154-.576l-.306.198c-.188.462-.355 1.303-.167 1.787.063.378.376.82.084 1.156-1.003 1.22-1.566 2.692-2.234 4.08-.25-.042-.376-.274-.48-.505.71-.905 1.273-1.914 1.482-3.07.146-.105.041-.379.188-.505-.042-.336.187-.672.02-.946.134-.459-.61-.883-.134-1.176l-.394.188c-.898 1.178.466 2.944-.557 4.08v.083c-.292.379-.439.757-.835 1.01-.5-.21-.689-.778-.981-1.2-.46-.44-.46-1.345-.188-1.955.188-.61-.125-1.135-.189-1.682l-.207-.125c-.502.651-.69 1.681-.293 2.46.208.378.23.903.543 1.22.187.609.563 1.008.897 1.554.085.211-.125.253-.23.358-.229-.147-.187-.483-.396-.63-.689-1.472-1.586-2.65-2.671-3.848-.043-.19-.231-.358-.127-.567.398-.38.48-1.115.272-1.599-.041-.105-.167-.231-.145-.336l-.314-.253c.042.737-.439 1.388-.23 2.166v.042a39.73 39.73 0 0 0-6.95-4.2l-.192.534c.612.155 2.236 1.142 2.236 1.142.73.274 1.398.716 2.088 1.115 2.839 1.578 4.718 4.184 5.991 7.086.021.232.23.484.084.715-.439-.673-1.065-1.05-1.587-1.598-.146-.989-.73-1.934-1.586-2.334-.314-.462-.981-.504-1.503-.652l-7.6-.042c-6.18-.084-11.815.19-17.953.084-.856-.084-1.9-.378-2.15-1.283-.167-.315-.167-.862 0-1.155.23-.4.647-.526 1.064-.568.334.042.564.357.71.589 0 .272-.23.525-.335.756.021.084.105.253.251.189.272-.105.48-.398.544-.673.02-.147.083-.356-.063-.462-.125-.442-.585-.757-.981-.862-.523-.042-1.065.105-1.42.484-.501.42-.48 1.177-.334 1.766.334.925 1.315 1.556 2.254 1.682l20.314.084c1.983.105 4.216-.231 6.221.168.73.231 1.503.778 1.69 1.598-.021.042-.083.021-.145.021-1.65-1.072-3.82-1.471-5.93-1.22-.834-.04-1.586.274-2.338.485-.396.084-.772-.106-1.023-.337-.751-.673-2.067-.63-3.027-.379 0 .063-.02.127.02.148 1.024-.085 1.63.799 2.548.904.209.041.376-.19.563-.021-.96.462-1.878 1.01-2.901 1.303-.313-.062-.48-.357-.731-.525-.397-.441-1.127-.253-1.67-.295-.188.042-.354-.084-.48 0 .167.337.542.526.898.695.521.23 1.127-.022 1.607.293-.125.148-.292.19-.438.295-.981.379-1.796 1.262-2.881 1.199-1.148.125-2.318-.211-3.09-1.01-.334-.82-1.19-1.261-2.109-1.219-.062.042-.146.042-.125.147.46.273.814.82 1.274 1.135.292.358.855 0 1.126.4.398.273.9.504 1.358.589.334.146.71.21 1.086.294l-.147.084c-1.899.63-4.092.694-6.22.61-.627-.022-1.233-.21-1.859-.19.104.127.313.232.5.295-.165.105-.354.147-.562.168-.25.063-.543.085-.795.21-.333-.02-.626.105-.896.21-.356.38-.773.779-1.19.968 0 .084-.021.21.083.21.397-.168.898-.042 1.295-.21.688-.064 1.085-.82 1.628-1.136.584-.462 1.42-.357 2.13-.252.417.105-.043.273.083.548.167.146.313.314.543.251a.36.36 0 0 1 .146-.105c.125-.169.104-.357.02-.526.293-.19.69.022 1.002-.105.794-.02 1.588-.19 2.36-.21.125-.021.271-.148.396-.021-.062.168-.271.19-.187.42.041.19.25.273.416.316.21-.085.397-.231.314-.505-.041-.147-.208-.168-.314-.231.44-.21.94-.273 1.379-.484.313-.063.605-.168.877-.294.27-.02.501-.273.751-.169-.104.358-.25.695-.439 1.01-.333 1.115-.584 2.586 0 3.658.063.021.085-.02.126-.042-.438-1.113-.188-2.396.187-3.448.293-1.787 2.13-2.313 3.446-2.985l.062.084c-.355.925-.876 1.808-.793 2.923.042.188-.083.377 0 .504.355-.19.584-.61.772-.968.146-.946-.396-2.123.565-2.817 1.711-.673 3.318-1.556 5.302-1.577.062.063.209-.042.23.084-.418.462-1.024.904-1.212 1.472-.667.925-.647 2.502-.355 3.638.189.651-.375 1.01-.647 1.513-.129.179-.166.485-.286.691l.412.046c.354-.379.689-.841.71-1.389.041.21.229.38.396.422.146-.232-.125-.4-.146-.632.334-.189.48.231.751.316.44.105.815.294 1.273.294l.147-.147c-.46-.715-1.378-.84-2.171-.883-.418-.694-.418-1.555-.376-2.397.084-.442.167-.904.417-1.304.105-.294.397-.568.585-.799.376-.358.856-.61 1.316-.714h.062c0 .042.02.063.02.063-.563.441-.625 1.05-.959 1.598-.355.525-.523 1.24-.188 1.828.125.274.063.694.355.884.27-.378.292-.862.438-1.283-.063-.694-.48-1.346-.083-2.018.209-.526.647-.737 1.127-.925 1.148-.105 2.15.484 3.152.925.21.147.564.273.606.568-.021.567-.334 1.135-.773 1.408-.563.336-1.378.378-1.9-.021-.313-.315-.438-.862-.333-1.283.229-.252.543-.462.918-.336.209.105.396.316.668.19.104-.063.146-.232.084-.337-.23-.126-.313-.442-.627-.484-.396-.063-.877-.042-1.148.232a1.482 1.482 0 0 0-.48 1.472c.146.673.647 1.156 1.294 1.345.96.232 1.963-.063 2.568-.883.25-.273.313-.568.46-.904 1.001.61 1.753 1.682 2.15 2.775 0 .358.105.737.02 1.051l.73.064c-.062-.168 0-.357.064-.505.271-1.388 1.127-2.544 2.15-3.448.355-.21.271.273.355.42.313.8 1.044 1.367 1.816 1.599.876.147 1.712-.064 2.255-.736.271-.505.606-1.242.146-1.767a1.44 1.44 0 0 0-1.148-.547c-.543 0-.877.379-1.148.779 0 .168-.021.357.125.441.083 0 .25.02.313-.105.042-.316.313-.463.563-.631.23-.126.48 0 .669.126.23.19.27.505.291.82-.04.4-.312.82-.687.989-.607.315-1.484.168-2.005-.19-.25-.273-.397-.588-.584-.925-.042-.336-.168-.63 0-.967.918-.547 1.879-.947 2.985-1.051.438.084.815.379 1.106.693.96.989-.208 2.398.46 3.49.25-.04.25-.378.354-.588.314-.756-.083-1.577-.27-2.313-.252-.462-.397-.862-.795-1.24.105-.042.147-.042.25-.042.44.294.92.63 1.274 1.093.606.988.92 2.165.815 3.449-.167.63-.835.925-1.357 1.156-.208.168-.46.42-.564.673.251.147.606 0 .856-.106.397-.147.627-.652.898-.882.041.02.021.084.041.126.021.23-.104.546.105.61.104-.295.126-.716.188-1.073.272.295.313.673.396 1.052.189.378.502.883 1.002.946.126-.19-.02-.38-.062-.547-.063-.526-.501-.8-.793-1.177-.73-1.01-.397-2.587-.96-3.722-.21-.61-.648-1.052-1.128-1.556l.083-.084c1.024-.021 1.88.315 2.819.504 1.148.568 2.818.442 3.36 1.935.23.84.607 1.619 1.19 2.27l.064-.042a.854.854 0 0 0 0-.777c-.126-1.052-1.044-1.304-1.525-2.187l.063-.085c.5.148 1.023.274 1.524.484 1.67.463 2.84 2.103 3.048 3.806 0 1.346-.25 2.46-.772 3.595-.063.17-.355.358-.167.505.23-.168.27-.441.396-.63.69-1.157 1.044-2.755.69-4.227-.022-.274-.335-.484-.19-.757.106.127.231.147.356.19.126-.085.314-.085.397-.232.021-.126.104-.274 0-.379-.125-.189-.397-.189-.605-.147-.105.127-.23.295-.251.463-.208-.357-.418-.82-.752-1.114l.042-.063c.94.315 1.795.778 2.756 1.03.209.126.438.231.73.231.815.315 1.712.441 2.568.652.627-.063 1.148.231 1.775.084v-.042l-.02.02c-.23-.293-.73-.02-1.003-.23-1.441-.147-2.818-.526-4.113-1.03.02-.063.105-.043.167-.043.21-.105.355-.294.334-.526a.565.565 0 0 0-.48-.23c-.125.063-.292.21-.313.357.02.168.167.357.313.4-.041.041-.125.02-.187.02-.648-.294-1.275-.568-1.9-.862-.23-.042-.418-.231-.648-.273-.48-.231-.96-.463-1.44-.652-1.336-.694-2.818-1.072-4.238-1.576-.313-.085-.606-.17-.898-.253-.521-.147-1.043-.274-1.565-.42-1.775-.442-4.155-.484-5.7.483-.25-.085-.397.315-.522.063.438-1.157 1.712-1.535 2.86-1.577 8.372-.084 16.222-.147 24.468-.273.96 0 1.9-.337 2.4-1.199.355-.504.418-1.367.147-1.934z" mask="url(#b)"/></g><path fill="#FFF" d="M57.042 35.1c0 .063.125.084.083.19-.73.652-1.753.84-2.797.883-.084.02-.167.084-.271.063-.063-.042-.084-.105-.041-.148.75-.82 1.898-1.24 3.026-.987m-3.36.336c.082.295-.105.462-.336.567-.23-.02-.354-.168-.458-.337-.063-.167.083-.251.146-.356.167-.169.563-.169.647.126m-39.686.042c.041.147.02.336-.104.442-.084.104-.272.125-.377.104-.146-.02-.23-.189-.27-.314 0-.19.103-.295.27-.4.168 0 .355-.021.48.168m-3.737 1.367v.147a1.63 1.63 0 0 1-1.356-.315c-.293-.421-.626-.842-1.107-1.052 0-.063-.126-.147 0-.19 1.044 0 1.67.842 2.463 1.41m49.958-1.388c-.48.715-.898 1.598-1.753 1.914-.147 0-.271.21-.397.063.334-.8 1.044-1.661 1.858-1.998.083 0 .208-.021.292.02m-45.01.254c.021.231-.146.273-.292.398-.167.022-.25-.105-.355-.23-.084-.212.105-.295.209-.4.167-.042.355.084.439.232m47.64.125c-.188.273-.105.673-.292.968-.418.483-.773 1.03-1.44 1.135-.105-.21.145-.42.25-.61.292-.63.71-1.345 1.377-1.618l.104.125m-59.06.19c.063.147.126.294 0 .462a.492.492 0 0 1-.48.084.391.391 0 0 1-.166-.504c.125-.19.5-.294.647-.043m-1.19.253c.02.105.083.19.062.294-.062.106-.166.232-.291.253-.23.042-.375-.084-.48-.274-.022-.189.04-.357.207-.442.189-.084.398.022.502.169m2.463.126c.042.168.084.463-.166.504-.293.127-.46-.083-.627-.251a.48.48 0 0 1 .25-.421c.21-.02.397 0 .543.168m3.424.274c-.02.147.021.357-.146.399-.104.105-.292.064-.396.042-.043-.126-.273-.231-.147-.378a.782.782 0 0 1 .292-.232c.126.063.314 0 .397.169m56.366.147c-.062.147-.145.336-.313.336-.187-.02-.375-.042-.48-.232-.083-.23.105-.357.272-.42.208 0 .48.084.521.316m-3.82.104c.021.17-.166.296-.25.358-.292.126-.543-.083-.648-.315.042-.189.189-.315.356-.379.27-.02.417.126.542.336m2.589-.041a.437.437 0 0 1-.187.357c-.168.063-.376.042-.502-.084-.188-.168-.042-.315.084-.442.188-.105.542-.084.605.169m-60.375.357c.042.231-.041.441-.25.526-.188 0-.397-.105-.46-.295-.02-.189.041-.378.21-.44.208-.064.375.062.5.21m56.743.23c.062.232-.063.442-.293.547-.167.042-.271-.042-.397-.147-.083-.105-.187-.337-.02-.441.167-.316.584-.19.71.041m-45.512.232c.084.23-.166.273-.229.399-.083.042-.25.063-.313-.02-.105-.127-.23-.253-.167-.443.104-.083.146-.168.271-.21.23-.062.314.148.438.274m50 .147c.041.147-.083.21-.105.315-.125.106-.333.127-.48.085-.187-.106-.187-.274-.187-.462.125-.085.145-.19.292-.232.188 0 .418.083.48.294m-1.294.063c.083.252-.146.379-.313.442-.084.02-.21-.042-.23.084.543.274.877.714 1.294 1.114v.168c-.751-.02-1.524-.21-2.067-.799-.146-.104-.397-.104-.563-.252.271-.273.773-.168 1.148-.19.272-.294-.313-.504.042-.756.125-.021.208-.147.376-.105.146.062.229.169.313.294m-8.54.02c.043.106-.082.232-.103.338a.418.418 0 0 1-.46.084c-.104-.148-.272-.274-.209-.484.168-.315.71-.252.773.063m-46.68.736c-.063.19-.146.315-.355.336-.167-.021-.312-.084-.375-.252-.022-.147.083-.231.104-.336.23-.19.647-.063.626.252m1.692-.273c0 .294-.314.462-.418.756-.313.695-.877 1.325-1.67 1.388-.084-.189.271-.42.354-.61.334-.714 1.003-1.092 1.608-1.534h.126m44.487.294c.02.231-.188.4-.355.483-.188.064-.334-.084-.439-.168-.167-.167-.062-.336.022-.504.25-.252.605-.042.772.19m1.295.147a.52.52 0 0 1-.376.462c-.042-.063-.146-.02-.209-.042-.146-.085-.272-.21-.272-.378.105-.106.147-.274.293-.295.188-.021.501 0 .564.253m-42.547-.021c.02.23-.146.356-.313.44-.188.022-.313-.105-.397-.252-.041-.188.146-.315.25-.42.251-.084.314.105.46.232m1.441.083a.5.5 0 0 1-.397.358c-.146-.042-.313-.085-.376-.253-.02-.21.147-.315.292-.42.209 0 .439.084.481.315m45.594 1.472c.104.084.292.19.25.337-.334.147-.605-.232-.918-.294-.501-.505-.877-1.052-1.086-1.683.188-.19.397.042.564.106.48.399.94.924 1.19 1.534m.773-1.472a.524.524 0 0 1-.042.463c-.126.21-.397.168-.585.126-.104-.126-.292-.294-.167-.484.063-.167.25-.21.397-.273.145-.02.25.106.397.168m-44.448.547c.023.168.064.42-.145.526-.188.042-.438-.021-.5-.253-.105-.252.124-.294.25-.42.166-.042.27.042.395.147m39.124 1.367c.292.42.5.945.542 1.493-.063.147.105.294-.02.4h-.084c-.94-.674-1.148-1.62-1.503-2.566-.084-.042-.105-.126-.084-.21.21-.19.355.189.564.252l.585.631m-36.409-.715c-.02.02 0 .042.02.042-.834.589-2.003.946-2.964.378-.02-.063.022-.168.105-.188.605-.19 1.19-.484 1.837-.4l1.002.168m-4.76.105c-.709.442-1.356 1.304-2.234 1.514-.166.062-.27.294-.48.168.377-1.136 1.608-1.745 2.714-1.85v.168m39.937.946c.062.169 0 .4-.167.442-.105.105-.313.105-.396 0-.188-.084-.188-.273-.188-.421.062-.146.208-.168.313-.23.187.04.334.04.438.209m-1.733.105c-.125.295-.48.463-.751.547-.71.253-1.357-.084-1.983-.252.02-.168.23-.105.334-.21.688-.148 1.398-.295 2.129-.106.062-.042.209-.063.271.021m-38.204.61c-.062.084-.083.273-.25.336-.146.064-.292 0-.417-.083-.042-.127-.189-.232-.084-.38.042-.146.209-.188.334-.23.209.02.376.147.417.358m1.232.189c-.063.125-.125.315-.292.399-.167.042-.292-.042-.418-.147-.062-.127-.125-.274-.062-.42.042-.107.188-.128.292-.19.209-.02.397.19.48.358m38.308.21c.02.168-.062.273-.146.399-.104.147-.313.168-.459.084-.146-.021-.188-.19-.25-.294-.126-.168.083-.274.146-.42.23-.19.605-.085.71.23m.918-.042c.02.106.084.21.042.295-.126.105-.21.379-.46.274-.124.04-.187-.127-.25-.17-.083-.21-.02-.524.25-.566.188-.064.314.104.418.167m-39.978.61a.572.572 0 0 1-.21.568c-.229.042-.522.042-.605-.231-.021-.21 0-.484.251-.61.21-.021.459.02.564.273m1.19-.084c-.042.589-.168 1.304-.752 1.64-.334.064-.668.379-1.002.169v-.105c.438-.632 1.232-1.115 1.753-1.704m34.593.483c.083.127-.063.232-.125.338-.125.146-.356.083-.501.02-.147-.063-.167-.273-.105-.42.042-.127.167-.19.272-.232.188-.02.355.148.459.294m-32.505.968c.292.483.126 1.136.292 1.661-.355.042-.5-.358-.73-.568-.46-.63-.397-1.472-.606-2.207a.11.11 0 0 1 .147-.043c.313.21.542.61.793.884-.042.146.125.146.104.273m33.548-.799c0 .169-.187.21-.292.315a.767.767 0 0 1-.396-.189c-.063-.21.104-.274.208-.378.209-.084.418.02.48.252m2.485 1.871c0 .064-.02.19-.126.148h-.083c-.606-.547-1.21-1.157-1.127-1.998l.125-.02c.563.483 1.19 1.008 1.211 1.87m-1.566-.673c.02.169-.083.295-.187.4-.23.063-.585.042-.627-.273-.02-.21.209-.316.313-.421.25-.063.418.105.501.294m-1.378.442c-.292.778-1.085 1.177-1.628 1.766-.104-.063-.063-.23-.041-.315.208-.8.835-1.577 1.606-1.893.335.042 0 .274.063.442m1.566.63c0 .19-.188.274-.292.38-.167-.021-.334-.063-.46-.232-.02-.21.147-.273.272-.378a.434.434 0 0 1 .48.23M37.111 7.67h-.231c-.605 0-.092.734.234.734.404 0 .43-.734-.003-.734zm-1.87.734c.605 0 .033-.734-.293-.734h-.604c-.605 0-.033.734.293.734h.604zm-2.536 0c.605 0 .032-.734-.293-.734h-.604c-.605 0-.033.734.291.734h.606zm4.377-.9c.285 0 .516.234.516.52 0 .288-.23.52-.516.52h-6.19a.518.518 0 0 1-.517-.52c0-.286.231-.52.516-.52h6.191zm.044 9.598c0 .274.367.09.639.09s.639.184.639-.09c0-.389-.367-.254-.64-.254-.271 0-.638-.135-.638.254zm1.159.645c.266 0 .289-.365.289-.681 0-.718-.569 0-.859-.676-.212.57-.796.042-.796.655 0 .421-.002.702.416.702h.95zm-1.746-3.14l1.184.454 1.162-.454-.46 1.741.921-.19-.314 1.055.314 1.013-.817-.222.356 1.878-1.162-.454-1.184.454.482-1.878-.943.264.252-1.055-.252-1.013.901.148-.44-1.741z"/><path fill="#FFF" d="M33.771 17.167L33.771 16.946 33.572 16.909 33.727 16.747 33.632 16.569 33.834 16.591 33.957 16.376 34.077 16.588 34.284 16.569 34.186 16.747 34.342 16.909 34.144 16.946 34.144 17.167 33.957 17.027 33.771 17.167"/><path fill="#FFF" d="M32.853 18.349L32.853 18.129 32.654 18.091 32.81 17.929 32.714 17.752 32.916 17.774 33.04 17.558 33.159 17.771 33.365 17.752 33.269 17.929 33.425 18.091 33.227 18.129 33.227 18.349 33.04 18.209 32.853 18.349"/><path fill="#FFF" d="M34.41 18.199L34.41 17.978 34.212 17.941 34.367 17.779 34.272 17.601 34.475 17.623 34.597 17.407 34.717 17.62 34.924 17.601 34.828 17.779 34.983 17.941 34.785 17.978 34.785 18.199 34.597 18.059 34.41 18.199"/><path fill="#FFF" d="M34.594 19.082L34.594 18.957 34.482 18.936 34.57 18.845 34.515 18.744 34.63 18.756 34.699 18.635 34.767 18.755 34.884 18.744 34.829 18.845 34.917 18.936 34.805 18.957 34.805 19.082 34.699 19.003 34.594 19.082"/><path fill="#FFF" d="M33.147 20.093L33.147 19.714 32.808 19.649 33.074 19.372 32.909 19.068 33.257 19.105 33.468 18.736 33.674 19.1 34.027 19.068 33.862 19.372 34.127 19.649 33.788 19.714 33.788 20.093 33.468 19.853 33.147 20.093"/><path fill="#FFF" d="M33.884 0.258L34.619 2.066 36.481 1.518 35.536 3.224 37.123 4.349 35.209 4.669 35.325 6.619 33.884 5.312 32.442 6.619 32.559 4.669 30.645 4.349 32.232 3.224 31.287 1.518 33.148 2.066 33.884 0.258"/><path fill="#FFF" d="M27.148 40.808c-.22.082-.307.144-.253.373l.263 1.108c.048.205.064.528-.074.726-.162.238-.508.39-.756.45-.182.043-.576.117-.893-.017-.209-.09-.344-.185-.433-.56l-.276-1.161c-.068-.292-.178-.273-.414-.238l-.02-.087 1.399-.336.021.087c-.271.076-.399.11-.327.416l.274 1.16c.048.198.162.678.757.535.73-.175.612-.708.56-.93l-.252-1.06c-.05-.213-.127-.32-.487-.247l-.02-.088.91-.218.021.087m2.075.232c-.128-.228-.466-.573-.957-.463-.216.047-.421.203-.372.43.042.188.138.247.52.316l.667.118c.154.028.514.16.598.54.067.307-.106.788-.87.958-.395.089-.609.012-.737.04-.088.02-.095.088-.099.147l-.12.027-.19-.861.12-.027c.16.333.49.673 1.017.556.499-.112.443-.462.433-.506-.05-.234-.265-.274-.56-.322l-.302-.05c-.774-.127-.84-.427-.875-.588-.047-.212-.022-.715.767-.891.333-.075.554-.003.674-.03.096-.021.105-.078.11-.15l.126-.027.166.757-.116.026m2.754 1.377l-1.513.145-.008-.088c.307-.052.408-.069.38-.367l-.179-1.876c-.294.043-.73.103-.76.68l-.124.012-.055-.716 2.545-.245.075.714-.122.012c-.139-.56-.577-.537-.871-.523l.178 1.876c.03.302.13.3.446.286l.008.09m1.697-1.27c.557.007.78-.067.79-.531.006-.362-.165-.519-.506-.525-.233-.004-.243.034-.266.145l-.018.911zm1.844 1.27l-.873-.017-.858-1.136-.115-.003-.014.701c-.006.286.087.299.369.336l-.003.09-1.438-.03.001-.089c.29-.023.376-.031.381-.32l.031-1.58c.006-.308-.125-.317-.367-.337l.001-.089 1.37.027c.3.006 1.2.052 1.188.653-.008.44-.449.542-.68.598l.836 1.035c.058.066.122.07.172.071v.09z"/><path fill="#FFF" d="M37.128 41.777l-.32-.914-.504.811.824.103zm1.184.999l-1.369-.172.012-.089c.263.016.34.021.354-.096.013-.095-.09-.375-.135-.495l-.95-.12c-.15.24-.236.378-.243.434-.017.135.185.17.327.196l-.01.09-.859-.108.012-.09c.231 0 .305-.112.465-.362l1.179-1.825.118.014.71 1.983c.144.403.196.532.4.55l-.01.09zm2.48.504l-2.423-.444.017-.088c.239.018.366.03.405-.184l.308-1.701c.042-.232-.128-.27-.314-.317l.016-.088 1.462.27-.017.087c-.295-.043-.425-.063-.481.246l-.3 1.66c-.031.168.056.214.336.265.633.116.92-.132 1.185-.494l.121.022-.316.766m1.606.36l-1.458-.306.019-.088c.228.03.394.05.438-.167l.35-1.692c.048-.232-.147-.28-.336-.33l.018-.088 1.458.307-.018.087c-.197-.034-.397-.072-.446.165l-.35 1.693c-.047.224.117.27.343.332l-.018.087m1.755-.594l-.34-.908-.487.823.827.085zm1.206.973l-1.373-.142.01-.09c.264.01.34.015.352-.102.01-.097-.099-.373-.146-.493l-.953-.099c-.145.244-.229.382-.234.44-.013.134.19.165.332.188l-.009.088-.86-.088.01-.09c.23-.004.303-.118.457-.373l1.14-1.85.118.013.754 1.967c.151.4.207.528.41.543l-.008.088zm-11.63-28.67c-.251 0-.589.172-.589-.125 0-.421.286-.327.536-.327.25 0 .64-.094.64.327 0 .297-.337.124-.588.124zm.743-.165c0-.86-.481-.055-.747-.784-.195.617-.775.097-.775.762 0 .253.066.4.19.48v.254c0 .066.052.12.117.12h.912a.118.118 0 0 0 .118-.12v-.274a.558.558 0 0 0 .185-.438zm7.47 10.535c.218 0 .394-.155.394-.347 0-.19-.176-.347-.394-.347-.217 0-.393.156-.393.347 0 .192.176.347.393.347m-1.85-12.716s-.185.311-.185.37c0 .113.084.205.187.205s.188-.092.188-.205c0-.007-.19-.37-.19-.37m-12.61 0s-.184.311-.184.37c0 .113.084.205.187.205.104 0 .188-.092.188-.205 0-.007-.19-.37-.19-.37m3.152 0s-.185.311-.185.37c0 .113.084.205.187.205.104 0 .187-.092.187-.205 0-.007-.19-.37-.19-.37m3.153 0s-.184.311-.184.37c0 .113.083.205.186.205.104 0 .188-.092.188-.205 0-.007-.19-.37-.19-.37m3.152 0s-.184.311-.184.37c0 .113.084.205.187.205s.187-.092.187-.205c0-.007-.19-.37-.19-.37m-9.45 4.328s.184.311.184.37c0 .113-.084.205-.188.205-.103 0-.187-.092-.187-.205 0-.007.19-.37.19-.37m0 4.205s.185.312.185.37c0 .113-.084.205-.188.205-.103 0-.187-.092-.187-.205 0-.007.19-.37.19-.37m.505 3.33s.185.31.185.369c0 .113-.085.206-.188.206-.104 0-.187-.093-.187-.206 0-.006.19-.37.19-.37m2.644 1.77s.185.311.185.37c0 .113-.085.205-.187.205-.104 0-.188-.092-.188-.205 0-.006.19-.37.19-.37m9.615-9.304s-.184.311-.184.37c0 .113.084.205.187.205s.187-.092.187-.205c0-.007-.19-.37-.19-.37m0 4.205s-.184.312-.184.37c0 .113.084.205.187.205s.187-.092.187-.205c0-.007-.19-.37-.19-.37m-.505 3.33s-.184.31-.184.369c0 .113.084.206.187.206.104 0 .187-.093.187-.206 0-.006-.19-.37-.19-.37m-2.644 1.77s-.185.311-.185.37c0 .113.085.205.188.205s.187-.092.187-.205c0-.006-.19-.37-.19-.37m-3.218 1.876s-.185.31-.185.368c0 .114.084.207.187.207.104 0 .188-.093.188-.207 0-.006-.19-.368-.19-.368m5.13-6.274c.039.06.138.08.263.037l.12-.34c.01-.023-.138-.158-.225-.136-.337.08-.694.12-.893.44 0 .219.159.419.318.519.119-.04.138.08.218.14.02.1-.04.18-.139.18-.238-.24-.654.08-.833-.22.08-.3.239-.64-.02-.92.02-.06.12-.12.06-.18-.1-.278-.397-.06-.576-.06-.296-.04-.535.12-.714.36.02.1.06.2.159.3.08-.02.12 0 .14.08l-.2.12c.06.06.06.14.08.22-.14.06-.278-.14-.337-.24 0-.16.02-.44-.199-.48a.85.85 0 0 0-.172.059c-.048.06-.08.185-.08.33 0 .142.077.357.077.357s.612.454.75.733c-.178.36-.178.859-.595 1.058-.119.08-.119.2-.119.32l.1.08c.258-.14.753-.18.714-.62.1-.179.198-.379.376-.518.2-.04.378.06.457.219-.06.3-.258.5-.536.599-.04.04-.02.1-.02.16.08.14.298.08.417.06.338-.22.477-.62.773-.739.04.2-.396.26-.119.46.179-.04.417.02.536-.22-.14-.34.476-.5.1-.8 0-.299.316-.419.296-.739-.119-.32-.496-.32-.594-.619.119-.08.297-.06.416 0m-14.486 3.636c.217 0 .394-.156.394-.348 0-.19-.177-.346-.394-.346-.218 0-.394.155-.394.346 0 .192.176.348.394.348M4.08 37.817a.38.38 0 0 0 .387-.372.38.38 0 0 0-.387-.372.38.38 0 0 0-.387.372.38.38 0 0 0 .387.372M17.17 40.78h-.048l-.048-.061h-.007v.039c0 .016.006.016.02.018v.004h-.08v-.004c.017-.002.022-.002.022-.018v-.088c0-.017-.007-.018-.021-.02v-.003h.075c.017 0 .068.002.068.035 0 .024-.024.03-.037.034l.047.056a.012.012 0 0 0 .009.004v.004z"/><path fill="#FFF" d="M17.148 40.667c-.002-.006-.01-.02-.024-.02-.007 0-.013.005-.013.01 0 .007.002.01.012.014l.018.007c.005.002.014.009.014.019s-.008.022-.03.022c-.012 0-.018-.004-.022-.004-.002 0-.003.002-.004.004h-.004v-.026h.004c.004.01.01.023.026.023.014 0 .016-.01.016-.012 0-.007-.007-.01-.015-.012l-.008-.004c-.021-.009-.021-.017-.021-.022 0-.007.004-.02.027-.02l.02.002c.003 0 .003-.001.004-.003h.004v.022h-.004m.13-.018a.011.011 0 0 0-.007.007l-.025.062h-.003l-.021-.048-.025.048h-.002l-.027-.062c-.002-.005-.004-.006-.009-.007v-.002h.037v.002c-.004 0-.008.001-.008.005v.003l.016.038.015-.032-.005-.01c-.001-.002-.003-.004-.01-.004v-.002h.04v.002c-.005 0-.009 0-.009.004 0 .002 0 .004.002.006l.013.035.014-.036.001-.004c0-.005-.005-.005-.009-.005v-.002h.023v.002m.004.13c.025-.004.052-.014.064-.051-.004 0-.006.002-.01.003-.005.002-.008.002-.011.002-.017 0-.044-.008-.044-.044 0-.01.009-.043.052-.043.02 0 .054.01.054.058 0 .036-.033.074-.105.08v-.005z"/><path fill="#FFF" d="M17.354 40.668c.01 0 .018.002.027.005.005.003.013.01.013.02 0 .014-.013.025-.036.025-.01 0-.017-.003-.017-.009 0-.003.002-.006.007-.006.008 0 .016.009.024.009.004 0 .012-.002.012-.011 0-.006-.007-.012-.013-.014a.075.075 0 0 0-.027-.004l.012-.036h.04l-.005.013h-.035l-.002.008m23.374-16.897c-.076.841-.362 1.542-.944 1.938l-5.485 3.487h-.03a.675.675 0 0 1-.852-.006l-5.475-3.48c-.581-.397-.868-1.098-.944-1.939V12.894h13.73v10.877zm.41-11.267v-.008h-14.55v.008h-.002l.012 11.118c0 1.134.48 2.125 1.144 2.43l5.595 3.553a.677.677 0 0 0 .966.053l5.681-3.605c.664-.306 1.144-1.297 1.144-2.43l.011-11.12h-.001z"/><path fill="#FFF" d="M35.822 28.71l.176-.086a.911.911 0 0 0-.176.085"/><g transform="translate(16.316 31.053)"><path fill="#FFF" d="M7.145 12.165l-.527-.812-.299.91.826-.098zm1.386.689l-1.371.16-.01-.09c.261-.048.337-.06.323-.177-.01-.096-.177-.343-.25-.45l-.95.11c-.09.27-.141.424-.134.48.015.135.22.122.364.112l.01.089-.858.1-.01-.089c.224-.055.27-.182.367-.463l.715-2.054.119-.014 1.157 1.757c.234.358.315.47.518.44l.01.089z"/><path fill="#FFF" d="M32.083 8.442c-.187.38-.48.652-.897.715.02-.504.48-.862.313-1.43-.272-.4-.815-.524-1.315-.42-.188.126-.105.337-.168.526l-.083.693c-.418 0-.439-.378-.564-.672.021-.442.209-.883.647-1.093.334-.17.877-.148 1.21.042.273.063.586.189.69.441.313.294.23.82.167 1.198zm-1.69.21c.23-.23-.064-1.556.584-.694 0 .169.02.421-.147.547-.104.084-.271.253-.438.148zm.23.526c.02.337-.294.253-.46.379h-.501c-.105-.168-.063-.42-.063-.589.334.063.71.063 1.023.21zm.583 2.566c-.166.21-.02.546-.23.735 0 .38-.313.568-.584.715-2.484.547-4.927-.294-7.327-.715-3.362-.735-7.286-.946-10.71-.167a49.493 49.493 0 0 0-4.718 1.114c-.96.126-2.004.273-2.923-.02-.75-.359-.439-1.326-.669-1.999.042-.525-.145-.946-.166-1.45a1.25 1.25 0 0 1-.083-.548c.312.043.626.274.96.358 1.753.336 3.32-.231 4.948-.525 1.565-.337 3.173-.61 4.822-.737 1.88-.02 3.8-.126 5.595.19.584.02 1.086.168 1.648.21 1.17.148 2.256.463 3.446.547.188.063.417.063.627.105 1.878.295 3.986.82 5.782 0 0 .757-.313 1.45-.418 2.187zm-10.605 1.534c.104.295.293.569.188.926-.208.4-.626.4-1.002.483-.188.021-.334-.042-.48-.147.02-.084-.021-.147-.083-.21.062-.274-.48-.546-.105-.778.334-.316 1.127-1.03 1.482-.274zm.46.085c.25.063.27.336.292.546-.021.463-.271.862-.71 1.031-.23.126-.585.168-.815.084.502-.021 1.045-.21 1.254-.716l-.021-.945zm.542 2.796c-.041.021-.041.064-.041.084-.606.021-1.003-.336-1.461-.651l-.022-.106c.564.042 1.023.4 1.524.673zm-.771 1.935c-.022.062-.127.062-.168.02-.626-.799-.919-1.64-1.316-2.522l.084-.021c.501.82.898 1.723 1.4 2.523zm-1.045-.505l-.104.042c-.105-.084-.063-.316-.042-.442.125.105.23.253.146.4zm-.584-1.261c.02.21.23.294.104.483-.042-.084-.167-.273-.104-.483zm-.126-1.325h.042v-.063h-.042v.063zm-1.21 3.028c-.397.02-1.002.252-1.379-.084.021-.17-.166-.253-.145-.421.333-.126.625.273.94-.021.48.02.98-.063 1.46.042.23.063.585-.38.626.063-.166.694-1.002.21-1.502.42zm-.92-2.503l.105-.168a8.928 8.928 0 0 1-.69 1.514c-.124-.504.398-.904.586-1.346zm.585-.4c.272-.294.522.169.627.4.313.463 1.127.884.814 1.515-.397.357-1.024.02-1.461.293-.23-.02-.627.042-.752-.189.23-.672.439-1.43.772-2.019zm-.062-.798h-.083l.125-.126c.062.042-.022.084-.042.126zm.48.042c.083-.126.187-.316.334-.316 0 .021.02.043.042.064-.125.105-.23.21-.377.252zm.292.315c.042-.042.146-.042.189 0h-.189zm.564.652c-.021.042.02.105-.042.147l-.48-.378c.23-.042.397.063.522.23zm-.063-1.219h.021v-.064h-.02v.064zm.898-1.367c-.25.084-.438.379-.689.441.125-.23.439-.462.69-.441zm-1.044-.274c-.042-.189.188-.041.271-.125l.648.042c-.335-.042-.752.736-.92.083zm-1.524.589c.104-.294.126-.546.314-.778.208 0 .396 0 .562.084.043.42.565.989 0 1.346-.187.084-.459.273-.667.084-.271-.231-.314-.441-.209-.736zm-.313 1.304c-.021-.084.042-.19.063-.295.104-.105.209.085.25.148a.31.31 0 0 1-.313.147zm-.042-.967h.02v-.231h-.02v.23zm-.23-.631c-.27-.063-.417-.378-.71-.378.251-.084.501-.064.794-.022.104.148-.063.274-.084.4zm-.23 1.703a3.56 3.56 0 0 1 .335-.883c-.02.273-.146.652-.335.883zm-.459 0a4.983 4.983 0 0 1-1.001-.252c-.21-.21 0-.441 0-.673.292-.463 1.127-.694 1.524-.274-.064.463-.23.863-.523 1.199zm.188.568v.083h-.042v-.104h.084c-.02 0-.063 0-.084.02h.042zm-.521 1.22a16.06 16.06 0 0 1-1.024 1.976c-.04.104-.209.126-.333.147 0-.294.292-.525.417-.778.438-.567.564-1.177 1.065-1.724.125.126-.125.21-.125.378zm-1.984-.211c.502-.21 1.023-.651 1.587-.462-.397.315-1.044.44-1.587.462zm.751-1.45c-.104-.737.19-1.368.67-1.893.29-.063.625-.126.896.042-.542.147-1.231.273-1.357.967.022.273-.062.42.063.652.23.4.752.231 1.044.547 0 .105-.083.23-.188.252-.355-.21-.793-.294-1.128-.568zm-9.79-6.75c.062-.169 0-.42.23-.463.145-.042.375-.042.396.126-.02.253-.042.505-.104.737-.293.02-.439-.148-.522-.4zm.062.706c.313.231.751.126 1.128.189.062.231.062.526-.105.715-.354-.085-.814-.042-1.002-.378.042-.148-.063-.358-.02-.526zm-.98-.602c.062-.377.145-.777.5-1.05.501-.274 1.19-.21 1.65.063.146.083.25.21.334.399.104.357-.063.736-.314.946h-.208c0-.337 0-.672.125-.946-.02-.253-.23-.274-.397-.378-.355-.106-.668.062-.94.21-.208.252-.396.568-.27.925.146.232.02.546.103.8l-.063.083c-.25-.273-.584-.568-.52-1.052zm19.588 8.938c.499.226 1.503.445 2.226.527-.065.286-.574.018-.515.42-.647-.252-1.398-.379-1.878-.883.04-.022.083-.084.167-.064zm-13.034.336l-.292-.273c.146-.19.46-.085.689-.212.542-.168 1.17-.377 1.775-.251-.627.505-1.441.567-2.172.736zm22.547-9.588c-.25-.652-.772-1.094-1.42-1.304-.668-.147-1.378-.042-1.816.463-.752.61-.23 1.619-.208 2.439 0 .167.02.294-.147.378-3.027-.273-5.846-1.03-8.851-1.345-.692-.12-1.384-.089-2.04-.228l-.841-.089c-2.61.085-5.22.232-7.662.863-.522.168-1.107.21-1.628.399-.376-.063-.69.21-1.044.106l-.687.16a.579.579 0 0 1-.232-.013c-.334-.862.668-1.388.355-2.229-.271-.483-.814-.946-1.44-.862-.71-.084-1.336.315-1.67.862-.48 1.051.125 2.145.312 3.175-.042.336.335.715 0 .988-.668-.463-1.544-.715-2.359-.483-.25.126-.71-.042-.834.252.898.483 2.045.42 3.047.378.126-.042.209-.063.314.021.083.547-.105 1.283.23 1.767.375.505 1.002.63 1.607.694 1.921-.064 3.632-.63 5.386-1.073.271-.02.48-.168.773-.168.938-.21 1.962-.378 2.964-.4-.439.568-.689 1.199-.877 1.893-.25.568.438.652.647.967-.647.19-1.106.631-1.712.883-1.336-.042-2.464.463-3.716.61-.02.274.439.19.48.463-.062.189-.25.21-.396.315-.021.126 0 .147.125.168.126-.147.397-.042.522-.19.418 0 .773-.126 1.169-.147.356-.146.751-.168 1.065-.42.438-.126.71-.42 1.148-.546.626 0 1.19-.211 1.774-.253v.126c-.48.779-.98 1.577-1.482 2.313-.083.147.021.295.146.336.293.085.585 0 .814-.126.44-.756.835-1.472 1.19-2.25.147-.714.669-1.093 1.19-1.576.084-.042.21-.168.293-.042-.418.484-.69.946-1.002 1.472-.168.588-.21 1.345.313 1.828.25.212.626.148.96.169.815-.42 1.858.253 2.485-.547.375-.063.437.378.646.59.356.105.73.462 1.086.21-.02-.232-.271-.443-.396-.652-.251-.442-.564-.8-.794-1.199-.105-.294-.292-.484-.334-.778.376.126.71.379 1.128.442.355.147.793.125 1.127.336.272.357.689.567 1.044.799.52.252 1.106.294 1.649.505.209.02.522.189.668 0a.882.882 0 0 0-.313-.231c-.063-.274.375-.127.522-.337-.051-.104-.142-.145-.242-.16-.3-.16-1.043-.215-1.24-.323-.25-.042-.48-.148-.73-.232-1.254 0-1.943-1.136-2.945-1.556.23-.21.585-.378.731-.694.188-.295.25-.777.063-1.114-.188-.652-1.024-.568-1.503-.925l.063-.064c.813-.041 1.524.147 2.254.295 2.004.273 3.862 1.03 5.95 1.072 1.148 0 2.588.063 3.152-1.051.104-.652.23-1.303.334-1.955.25-1.052.939-2.019.835-3.175z"/><path stroke="#FFF" stroke-width="1.276" d="M57.797 0.604L188.721 0.604"/></g><path fill="#FFF" d="M79.441 21.831l-1.376-3.18-1.416 3.18h2.792zm.232.505H76.41l-.389.898c-.127.3-.19.548-.19.743 0 .258.104.449.313.572.122.072.424.127.906.163v.252h-3.072v-.252c.332-.05.604-.187.817-.412.213-.225.477-.689.79-1.393l3.303-7.369h.13l3.33 7.574c.318.717.579 1.17.783 1.355.154.14.372.222.654.245v.252h-4.468v-.252h.185c.358 0 .61-.05.755-.15.1-.073.15-.177.15-.313a.848.848 0 0 0-.04-.252 6.576 6.576 0 0 0-.205-.51l-.49-1.151zm10.331-3.74v4.986c0 .486.045.789.136.909.091.12.275.196.552.228v.245h-2.595v-.851c-.304.363-.609.628-.912.793a2.094 2.094 0 0 1-1.022.249 1.5 1.5 0 0 1-.957-.33 1.611 1.611 0 0 1-.562-.774c-.095-.295-.142-.81-.142-1.545v-2.527c0-.481-.045-.78-.134-.899-.088-.118-.273-.195-.554-.232v-.252h2.594v4.352c0 .454.022.747.065.879a.53.53 0 0 0 .528.402c.163 0 .31-.044.442-.13.182-.118.4-.356.654-.715V19.98c0-.481-.044-.78-.133-.899-.088-.118-.273-.195-.555-.232v-.252h2.595m5.074-.177l.103 2.173h-.232c-.277-.645-.564-1.086-.862-1.321-.297-.236-.593-.355-.888-.355a.67.67 0 0 0-.477.188.58.58 0 0 0-.198.432c0 .123.046.24.137.355.145.186.551.505 1.218.956.668.452 1.107.836 1.318 1.151.211.316.317.668.317 1.06 0 .353-.088.7-.266 1.04a1.856 1.856 0 0 1-.749.784 2.143 2.143 0 0 1-1.069.273c-.304 0-.71-.096-1.218-.287a1.011 1.011 0 0 0-.28-.074c-.15 0-.275.113-.375.34h-.224l-.11-2.288h.232c.204.6.485 1.049.841 1.349.357.3.694.449 1.012.449a.735.735 0 0 0 .534-.201.65.65 0 0 0 .208-.487.842.842 0 0 0-.204-.565c-.137-.159-.44-.4-.913-.722-.695-.481-1.144-.849-1.348-1.103-.3-.372-.45-.784-.45-1.233a2 2 0 0 1 .508-1.33c.338-.398.827-.597 1.468-.597.344 0 .678.084 1 .251a.663.663 0 0 0 .3.103.347.347 0 0 0 .197-.051c.05-.034.13-.13.239-.29h.231m3.372-2.152v2.33h1.512v.674H98.45V23.2c0 .368.016.605.051.712a.506.506 0 0 0 .18.259.4.4 0 0 0 .239.098c.295 0 .574-.224.837-.674l.205.15c-.368.871-.965 1.308-1.791 1.308-.405 0-.746-.112-1.025-.338-.28-.224-.458-.475-.535-.752-.046-.155-.068-.572-.068-1.254v-3.438h-.83v-.239a8.764 8.764 0 0 0 1.46-1.273 7.767 7.767 0 0 0 1.052-1.492h.225m4.202 2.33v1.443c.423-.658.793-1.095 1.11-1.31.318-.216.624-.324.92-.324.254 0 .457.078.61.235.151.156.227.378.227.664 0 .304-.073.54-.221.708a.686.686 0 0 1-.534.252.924.924 0 0 1-.627-.232 3.983 3.983 0 0 0-.313-.258.297.297 0 0 0-.157-.041.57.57 0 0 0-.374.15c-.187.154-.327.374-.423.66-.145.44-.218.927-.218 1.458v1.464l.007.381c0 .259.016.425.047.497a.546.546 0 0 0 .242.27c.107.056.287.09.542.105v.245h-3.44v-.245c.277-.023.465-.099.562-.228.098-.13.147-.471.147-1.025v-3.52c0-.364-.018-.595-.055-.696a.552.552 0 0 0-.197-.279c-.086-.059-.239-.1-.456-.123v-.252h2.601m6.504 4.93v-2.13c-.55.322-.958.667-1.225 1.035-.177.245-.266.493-.266.742 0 .21.075.392.225.551.113.123.273.184.476.184.228 0 .49-.126.79-.381zm0 .498c-.775.685-1.472 1.029-2.09 1.029-.363 0-.665-.12-.906-.358a1.21 1.21 0 0 1-.361-.896c0-.485.209-.922.627-1.31.418-.389 1.328-.905 2.73-1.55v-.64c0-.481-.025-.784-.078-.909a.732.732 0 0 0-.296-.327.887.887 0 0 0-.49-.14c-.296 0-.538.066-.729.198-.118.081-.177.177-.177.286 0 .096.063.213.19.354.173.195.26.384.26.565a.755.755 0 0 1-.25.569c-.165.157-.382.234-.65.234-.285 0-.525-.085-.718-.258a.79.79 0 0 1-.29-.606c0-.327.13-.64.389-.936.259-.298.62-.526 1.082-.685a4.417 4.417 0 0 1 1.445-.238c.603 0 1.08.128 1.433.385.351.256.58.534.684.834.064.19.096.629.096 1.314v2.472c0 .29.01.474.034.548.022.075.057.131.102.167a.244.244 0 0 0 .156.055c.118 0 .239-.084.362-.252l.204.163c-.227.336-.462.58-.705.732a1.528 1.528 0 0 1-.828.229c-.363 0-.646-.086-.85-.256-.205-.17-.33-.428-.376-.773z"/><path fill="#FFF" d="M114.55 15.73v7.913c0 .45.053.736.157.862.105.124.309.196.613.214v.245h-3.439v-.245c.281-.01.49-.091.627-.245.09-.105.136-.382.136-.83V17.05c0-.445-.052-.73-.157-.855-.104-.125-.306-.197-.606-.215v-.252h2.67"/><path fill="#FFF" d="M116.908 15.512c.295 0 .545.103.749.31.204.206.306.455.306.745s-.104.538-.31.742a1.024 1.024 0 0 1-.745.307c-.291 0-.539-.103-.743-.307a1.012 1.012 0 0 1-.306-.742c0-.29.102-.54.306-.745.204-.207.452-.31.743-.31zm.953 3.084v5.047c0 .45.052.736.156.862.105.124.31.196.614.214v.245h-3.44v-.245c.282-.01.49-.091.627-.245.09-.105.136-.382.136-.83v-3.72c0-.45-.052-.736-.156-.86-.105-.126-.307-.197-.607-.216v-.252h2.67zm4.345 4.93v-2.13c-.55.322-.958.667-1.226 1.035-.177.245-.265.493-.265.742 0 .21.074.392.224.551.114.123.273.184.477.184.227 0 .49-.126.79-.381zm0 .498c-.776.685-1.473 1.029-2.09 1.029-.364 0-.666-.12-.907-.358a1.21 1.21 0 0 1-.36-.896c0-.485.208-.922.626-1.31.418-.389 1.328-.905 2.73-1.55v-.64c0-.481-.026-.784-.077-.909a.732.732 0 0 0-.297-.327.887.887 0 0 0-.49-.14c-.295 0-.538.066-.728.198-.119.081-.178.177-.178.286 0 .096.064.213.19.354.173.195.26.384.26.565a.755.755 0 0 1-.249.569c-.165.157-.382.234-.65.234-.286 0-.526-.085-.719-.258a.79.79 0 0 1-.29-.606c0-.327.13-.64.39-.936.258-.298.62-.526 1.082-.685a4.417 4.417 0 0 1 1.444-.238c.603 0 1.081.128 1.433.385.352.256.58.534.685.834.063.19.095.629.095 1.314v2.472c0 .29.011.474.034.548a.33.33 0 0 0 .102.167.244.244 0 0 0 .157.055c.118 0 .238-.084.361-.252l.204.163c-.227.336-.461.58-.705.732a1.528 1.528 0 0 1-.827.229c-.364 0-.647-.086-.851-.256-.205-.17-.33-.428-.375-.773zm5.503-5.428v.824c.327-.353.64-.612.94-.772.3-.162.622-.242.967-.242.413 0 .756.114 1.028.343.273.23.455.515.545.855.073.26.11.757.11 1.492v2.479c0 .49.044.796.133.916.088.12.273.196.554.228v.245h-3.22v-.245c.24-.032.412-.132.517-.3.072-.113.109-.395.109-.844v-2.833c0-.523-.02-.851-.062-.988a.599.599 0 0 0-.207-.316.518.518 0 0 0-.324-.113c-.39 0-.754.28-1.09.838v3.412c0 .476.045.778.133.906.089.127.253.206.494.238v.245h-3.22v-.245c.267-.027.458-.114.57-.258.078-.101.117-.396.117-.886v-3.596c0-.481-.045-.78-.134-.899-.088-.118-.273-.195-.554-.232v-.252h2.594m17.238-3.078v3.256h-.252c-.304-.89-.76-1.567-1.369-2.03-.608-.463-1.273-.695-1.995-.695-.69 0-1.265.194-1.723.583-.459.388-.784.93-.974 1.624a8.02 8.02 0 0 0-.286 2.138c0 .886.104 1.662.313 2.33.209.667.546 1.157 1.012 1.47.465.313 1.018.47 1.658.47.222 0 .45-.023.684-.07a4.88 4.88 0 0 0 .719-.209v-1.92c0-.363-.026-.598-.075-.705-.05-.107-.153-.203-.31-.29a1.16 1.16 0 0 0-.568-.129h-.239v-.252h4.488v.252c-.341.023-.578.07-.712.14a.7.7 0 0 0-.31.35c-.04.087-.061.298-.061.634v1.92a9.084 9.084 0 0 1-1.842.596c-.638.134-1.3.201-1.985.201-.876 0-1.604-.12-2.183-.358a5.45 5.45 0 0 1-1.532-.94 4.432 4.432 0 0 1-1.039-1.31c-.318-.627-.477-1.328-.477-2.105 0-1.389.488-2.563 1.465-3.52.976-.958 2.204-1.437 3.684-1.437.459 0 .872.036 1.24.109.2.036.523.139.97.31.447.17.711.255.794.255a.534.534 0 0 0 .353-.14c.11-.093.21-.269.3-.528h.252m4.168 3.371a.793.793 0 0 0-.596.263c-.165.174-.274.52-.327 1.034-.052.516-.078 1.232-.078 2.15 0 .485.031.94.095 1.361.05.323.157.568.32.736a.76.76 0 0 0 .559.252.772.772 0 0 0 .51-.17c.178-.155.296-.37.355-.647.09-.432.136-1.303.136-2.615 0-.772-.043-1.302-.129-1.59-.086-.289-.214-.499-.382-.63a.715.715 0 0 0-.463-.144zm-.027-.483c.554 0 1.07.142 1.546.429.477.286.839.692 1.086 1.22.247.526.372 1.102.372 1.729 0 .903-.23 1.66-.689 2.267-.554.736-1.319 1.104-2.295 1.104-.958 0-1.695-.337-2.213-1.008-.518-.672-.777-1.45-.777-2.336 0-.913.265-1.708.794-2.387.53-.679 1.254-1.018 2.176-1.018zm6.287 6.749l-2.146-4.938c-.259-.594-.46-.971-.606-1.13-.105-.118-.259-.198-.463-.239v-.252h3.385v.252c-.213 0-.36.04-.436.116a.466.466 0 0 0-.164.354c0 .168.1.484.3.947l1.049 2.39.838-2.063c.24-.59.36-1.008.36-1.253 0-.14-.05-.255-.153-.344-.102-.089-.283-.138-.541-.147v-.252h2.084v.252a.846.846 0 0 0-.49.225c-.128.123-.318.484-.573 1.083l-2.125 4.999h-.32m7.26-4.06c0-.73-.04-1.232-.119-1.504-.08-.273-.203-.48-.37-.62a.568.568 0 0 0-.382-.123c-.237 0-.43.116-.58.348-.267.404-.4.958-.4 1.661v.239h1.852zm1.675.457h-3.493c.04.845.266 1.512.675 2.002.313.378.689.565 1.13.565.272 0 .52-.075.742-.227.222-.153.461-.426.715-.821l.231.15c-.344.703-.726 1.202-1.143 1.494-.418.293-.901.44-1.45.44-.945 0-1.66-.363-2.147-1.09-.39-.586-.585-1.312-.585-2.18 0-1.062.287-1.907.862-2.536.574-.629 1.247-.943 2.02-.943.643 0 1.203.265 1.678.793.474.529.73 1.314.765 2.353zm2.882-2.956v1.444c.423-.658.793-1.095 1.11-1.31.318-.216.624-.324.92-.324.254 0 .457.078.61.235.151.156.227.378.227.664 0 .304-.073.54-.221.708a.686.686 0 0 1-.534.252.924.924 0 0 1-.627-.232 3.983 3.983 0 0 0-.313-.258.297.297 0 0 0-.157-.041.57.57 0 0 0-.374.15c-.187.154-.327.374-.423.66-.145.44-.218.927-.218 1.458v1.464l.007.381c0 .259.016.425.047.497a.546.546 0 0 0 .242.27c.107.056.287.09.542.105v.245h-3.439v-.245c.276-.023.464-.099.562-.228.097-.13.146-.471.146-1.025v-3.52c0-.364-.019-.595-.054-.696a.552.552 0 0 0-.198-.279c-.086-.059-.238-.1-.456-.123v-.252h2.601m5.592 0v.824c.326-.353.64-.612.94-.772.299-.162.621-.242.966-.242.413 0 .756.114 1.028.343.273.23.455.515.545.855.073.26.11.757.11 1.492v2.479c0 .49.044.796.132.916.089.12.274.196.555.228v.245h-3.22v-.245c.24-.032.412-.132.516-.3.073-.113.11-.395.11-.844v-2.833c0-.523-.02-.851-.062-.988a.599.599 0 0 0-.207-.316.519.519 0 0 0-.324-.113c-.39 0-.754.28-1.09.838v3.412c0 .476.045.778.133.906.089.127.253.206.494.238v.245h-3.221v-.245c.268-.027.458-.114.571-.258.078-.101.117-.396.117-.886v-3.596c0-.481-.044-.78-.133-.899-.089-.118-.274-.195-.555-.232v-.252h2.595m7.24 0v.838c.35-.381.673-.648.97-.8.298-.152.623-.228.978-.228.408 0 .751.095 1.028.286.277.19.49.481.64.872.363-.409.712-.704 1.045-.886a2.164 2.164 0 0 1 1.046-.272c.44 0 .791.1 1.052.303.261.202.442.458.545.77.102.31.153.806.153 1.487v2.609c0 .49.044.794.133.912.089.118.273.195.554.232v.245h-3.29v-.245c.26-.023.45-.123.574-.3.081-.122.122-.404.122-.844v-2.738c0-.568-.022-.929-.068-1.083a.648.648 0 0 0-.214-.343.548.548 0 0 0-.345-.113c-.195 0-.392.071-.592.214-.2.144-.402.358-.606.644v3.419c0 .458.038.747.116.865.104.168.304.261.599.279v.245h-3.296v-.245a.737.737 0 0 0 .419-.133.571.571 0 0 0 .204-.286c.034-.111.051-.353.051-.725v-2.738c0-.576-.023-.937-.068-1.083a.662.662 0 0 0-.228-.34.552.552 0 0 0-.344-.123.908.908 0 0 0-.497.143c-.213.14-.44.381-.681.722v3.419c0 .45.044.746.133.888.088.143.273.229.555.256v.245h-3.283v-.245c.268-.027.458-.114.572-.258.077-.101.116-.396.116-.886v-3.596c0-.481-.044-.78-.133-.899-.088-.118-.274-.195-.555-.232v-.252h2.595m12.136 2.5c0-.731-.04-1.233-.118-1.505-.08-.273-.204-.48-.372-.62a.568.568 0 0 0-.381-.123c-.236 0-.43.116-.58.348-.267.404-.4.958-.4 1.661v.239h1.851zm1.676.456h-3.494c.04.845.266 1.512.675 2.002.312.378.69.565 1.13.565.272 0 .52-.075.742-.227.223-.153.46-.426.716-.821l.23.15c-.344.703-.726 1.202-1.143 1.494-.418.293-.902.44-1.451.44-.944 0-1.66-.363-2.145-1.09-.39-.586-.586-1.312-.586-2.18 0-1.062.287-1.907.862-2.536.574-.629 1.247-.943 2.019-.943.645 0 1.204.265 1.679.793.474.529.73 1.314.766 2.353zm2.84-2.956v.824c.327-.353.64-.612.94-.772.3-.162.621-.242.967-.242.413 0 .755.114 1.028.343.272.23.454.515.545.855.072.26.109.757.109 1.492v2.479c0 .49.044.796.133.916.088.12.273.196.555.228v.245h-3.221v-.245c.24-.032.413-.132.517-.3.073-.113.109-.395.109-.844v-2.833c0-.523-.02-.851-.061-.988a.6.6 0 0 0-.208-.316.517.517 0 0 0-.323-.113c-.39 0-.754.28-1.09.838v3.412c0 .476.044.778.132.906.089.127.254.206.495.238v.245h-3.221v-.245c.267-.027.458-.114.571-.258.077-.101.116-.396.116-.886v-3.596c0-.481-.044-.78-.133-.899-.088-.118-.273-.195-.554-.232v-.252h2.594m7.124-2.329v2.33h1.513v.674h-1.513V23.2c0 .368.017.605.051.712a.519.519 0 0 0 .18.259.403.403 0 0 0 .239.098c.295 0 .575-.224.838-.674l.205.15c-.369.871-.966 1.308-1.792 1.308-.404 0-.746-.112-1.025-.338-.28-.224-.457-.475-.535-.752-.045-.155-.067-.572-.067-1.254v-3.438h-.831v-.239a8.811 8.811 0 0 0 1.46-1.273 7.765 7.765 0 0 0 1.053-1.492h.224M79.1 37.288l.07 2.875h-.262c-.123-.72-.424-1.3-.906-1.74-.482-.438-1.002-.658-1.562-.658-.432 0-.774.116-1.026.347-.253.231-.38.497-.38.799 0 .19.045.36.134.508.124.199.32.396.592.591.2.14.66.388 1.38.745 1.01.496 1.69.964 2.042 1.405.347.441.522.946.522 1.514 0 .721-.281 1.341-.844 1.86-.561.52-1.274.78-2.14.78-.271 0-.527-.028-.769-.083a5.815 5.815 0 0 1-.91-.312c-.203-.084-.371-.127-.502-.127a.624.624 0 0 0-.35.127.89.89 0 0 0-.3.388h-.234v-3.256h.235c.187.916.546 1.614 1.078 2.095.532.482 1.106.722 1.72.722.476 0 .854-.13 1.136-.387.282-.259.423-.56.423-.904 0-.203-.054-.4-.162-.591a1.884 1.884 0 0 0-.493-.544c-.22-.171-.61-.395-1.17-.67-.785-.387-1.349-.716-1.693-.987a3.025 3.025 0 0 1-.791-.91 2.252 2.252 0 0 1-.277-1.107c0-.686.252-1.272.757-1.754.505-.484 1.14-.726 1.908-.726.28 0 .551.034.814.102.2.051.443.145.728.283.287.138.487.207.601.207a.34.34 0 0 0 .261-.102c.064-.068.123-.231.178-.49h.191m4.517 5.21c0-.683-.038-1.152-.112-1.406-.074-.255-.19-.447-.347-.579a.527.527 0 0 0-.355-.115c-.221 0-.402.109-.541.325-.25.378-.376.894-.376 1.552v.222h1.73zm1.564.426h-3.263c.039.789.248 1.411.63 1.87.292.351.645.528 1.056.528.254 0 .485-.071.693-.214.208-.142.43-.397.668-.766l.216.14c-.322.657-.678 1.122-1.068 1.396-.39.274-.842.41-1.355.41-.882 0-1.55-.339-2.003-1.017-.366-.547-.548-1.226-.548-2.036 0-.992.269-1.781.805-2.37.536-.587 1.165-.88 1.886-.88.602 0 1.125.247 1.568.741.443.494.681 1.227.715 2.198zm2.692-2.76v1.348c.394-.615.74-1.023 1.036-1.225.297-.201.583-.302.859-.302.237 0 .427.073.57.22.141.146.212.353.212.62 0 .283-.069.504-.206.66a.64.64 0 0 1-.5.237.86.86 0 0 1-.585-.217 3.842 3.842 0 0 0-.292-.242.283.283 0 0 0-.147-.038.534.534 0 0 0-.35.14c-.174.144-.305.35-.394.618a4.304 4.304 0 0 0-.203 1.36v1.368l.006.356c0 .242.015.397.045.465.05.114.125.198.225.25.1.054.268.086.506.1v.228H85.44v-.229c.258-.021.433-.092.524-.213.092-.12.137-.44.137-.957v-3.288c0-.34-.017-.556-.05-.65a.508.508 0 0 0-.185-.26c-.08-.055-.223-.093-.426-.115v-.235h2.43"/><path fill="#FFF" d="M93.347 46.288l-2.003-4.611c-.242-.555-.43-.908-.567-1.056-.097-.11-.241-.184-.432-.223v-.235h3.161v.235c-.2 0-.335.036-.407.109a.433.433 0 0 0-.152.33c0 .157.093.452.28.885l.98 2.232.781-1.927c.225-.551.338-.942.338-1.17a.406.406 0 0 0-.143-.322c-.096-.083-.265-.128-.506-.137v-.235h1.946v.235a.8.8 0 0 0-.458.21c-.119.115-.297.452-.534 1.011l-1.985 4.669h-.299"/><path fill="#FFF" d="M98.086 37.282c.276 0 .51.096.7.29a.953.953 0 0 1 .287.696.938.938 0 0 1-.29.693.953.953 0 0 1-.697.286.942.942 0 0 1-.693-.286.941.941 0 0 1-.286-.693c0-.272.095-.504.286-.696a.937.937 0 0 1 .693-.29zm.891 2.881v4.713c0 .42.049.688.146.805.098.117.288.184.573.2v.229h-3.212v-.229c.262-.008.458-.084.585-.229.085-.097.127-.356.127-.776v-3.473c0-.42-.049-.688-.147-.804-.097-.117-.286-.184-.565-.2v-.236h2.493zm5.63 4.414l.197.153c-.28.526-.63.917-1.046 1.174a2.507 2.507 0 0 1-1.333.384c-.793 0-1.427-.299-1.902-.896-.475-.599-.712-1.317-.712-2.157 0-.81.216-1.522.648-2.137.522-.742 1.241-1.113 2.157-1.113.615 0 1.103.155 1.466.464.362.31.544.656.544 1.037 0 .242-.073.435-.22.58a.786.786 0 0 1-.575.215.835.835 0 0 1-.62-.248c-.164-.165-.264-.46-.303-.884-.025-.267-.086-.454-.184-.56a.455.455 0 0 0-.343-.159c-.204 0-.378.108-.522.325-.22.327-.331.827-.331 1.5 0 .56.09 1.096.267 1.607.179.511.422.891.732 1.142a1.3 1.3 0 0 0 .827.273c.207 0 .404-.049.591-.146.187-.097.407-.282.662-.554m3.88-2.08c0-.682-.037-1.15-.111-1.405-.074-.255-.19-.447-.347-.579a.53.53 0 0 0-.356-.115c-.22 0-.4.109-.54.325-.25.378-.376.894-.376 1.552v.222h1.73zm1.565.427h-3.264c.04.789.249 1.411.63 1.87.293.351.645.528 1.056.528.255 0 .485-.071.694-.214.207-.142.43-.397.667-.766l.217.14c-.323.657-.679 1.122-1.069 1.396-.39.274-.841.41-1.355.41-.882 0-1.55-.339-2.003-1.017-.365-.547-.547-1.226-.547-2.036 0-.992.268-1.781.805-2.37.536-.587 1.165-.88 1.885-.88.603 0 1.125.247 1.568.741.443.494.682 1.227.716 2.198zm3.983-2.926l.095 2.029h-.217c-.258-.602-.527-1.013-.804-1.234-.278-.22-.555-.33-.83-.33a.625.625 0 0 0-.445.174.54.54 0 0 0-.185.404c0 .114.043.225.127.33.136.175.516.473 1.14.894.622.422 1.032.78 1.23 1.076.197.294.296.624.296.988 0 .33-.083.656-.248.973a1.743 1.743 0 0 1-.7.732 2.01 2.01 0 0 1-.999.254c-.284 0-.664-.09-1.138-.267a.954.954 0 0 0-.261-.07c-.14 0-.257.106-.35.318h-.21l-.102-2.137h.217c.19.56.453.98.785 1.26.333.28.648.42.945.42.203 0 .37-.063.499-.188a.61.61 0 0 0 .194-.456.786.786 0 0 0-.19-.527c-.128-.148-.412-.373-.853-.674-.649-.45-1.069-.793-1.26-1.03a1.793 1.793 0 0 1-.42-1.152c0-.458.159-.872.474-1.243.317-.371.773-.557 1.371-.557.322 0 .634.079.935.236a.627.627 0 0 0 .28.095.33.33 0 0 0 .185-.048c.046-.032.12-.122.222-.27h.217m8.09 3.187l-1.284-2.971-1.323 2.97h2.608zm.217.47h-3.047l-.362.84c-.12.28-.178.51-.178.693 0 .241.097.42.292.534.115.068.397.12.846.153v.235h-2.868v-.235c.309-.047.563-.175.763-.385.2-.21.445-.643.737-1.3l3.085-6.883h.122l3.11 7.073c.296.67.54 1.092.731 1.266.144.131.348.208.61.229v.235h-4.172v-.235h.172c.335 0 .57-.047.706-.14a.34.34 0 0 0 .14-.292.788.788 0 0 0-.038-.236 5.782 5.782 0 0 0-.192-.477l-.457-1.075zm9.65-3.492v4.656c0 .454.042.737.126.849.085.113.257.184.516.213v.229h-2.423v-.795c-.285.34-.569.587-.853.741a1.96 1.96 0 0 1-.954.232c-.335 0-.632-.103-.894-.309a1.507 1.507 0 0 1-.525-.721c-.089-.275-.133-.757-.133-1.444v-2.36c0-.45-.041-.729-.124-.84-.083-.11-.255-.182-.518-.216v-.235h2.423v4.064c0 .425.02.698.06.82a.497.497 0 0 0 .493.376.74.74 0 0 0 .414-.12c.169-.11.373-.334.61-.668v-3.18c0-.45-.041-.73-.124-.84-.082-.11-.255-.183-.518-.217v-.235h2.423m4.74-.165l.095 2.029h-.217c-.258-.602-.526-1.013-.804-1.234-.278-.22-.555-.33-.83-.33a.625.625 0 0 0-.446.174.54.54 0 0 0-.184.404c0 .114.042.225.127.33.136.175.515.473 1.14.894.622.422 1.032.78 1.23 1.076.197.294.295.624.295.988 0 .33-.082.656-.248.973a1.743 1.743 0 0 1-.699.732 2.008 2.008 0 0 1-.999.254c-.284 0-.664-.09-1.138-.267a.954.954 0 0 0-.261-.07c-.14 0-.257.106-.35.318h-.21l-.102-2.137h.216c.191.56.453.98.786 1.26s.647.42.944.42c.204 0 .37-.063.5-.188a.61.61 0 0 0 .194-.456.786.786 0 0 0-.191-.527c-.127-.148-.412-.373-.853-.674-.648-.45-1.068-.793-1.259-1.03a1.796 1.796 0 0 1-.42-1.152c0-.458.159-.872.474-1.243.316-.371.773-.557 1.371-.557.322 0 .634.079.935.236a.627.627 0 0 0 .28.095.33.33 0 0 0 .185-.048c.046-.032.12-.122.222-.27h.217m3.148-2.01v2.175h1.413v.63h-1.413v3.67c0 .343.017.565.048.664.032.1.088.18.169.242.08.062.155.093.222.093.276 0 .537-.21.783-.63l.19.14c-.343.814-.9 1.221-1.672 1.221-.378 0-.696-.105-.957-.315-.26-.21-.428-.444-.5-.703-.042-.143-.063-.534-.063-1.17v-3.212h-.776v-.223a8.18 8.18 0 0 0 1.364-1.19c.376-.415.703-.88.983-1.392h.21m3.924 2.175v1.349c.395-.615.74-1.023 1.037-1.225.297-.201.584-.302.859-.302.237 0 .427.073.57.22.142.146.212.353.212.62 0 .283-.069.504-.206.66a.64.64 0 0 1-.5.237.86.86 0 0 1-.585-.217 3.795 3.795 0 0 0-.293-.242.28.28 0 0 0-.146-.038.534.534 0 0 0-.35.14c-.174.144-.305.35-.394.618a4.319 4.319 0 0 0-.204 1.36v1.368l.007.356c0 .242.015.397.044.465a.503.503 0 0 0 .227.25c.099.054.267.086.505.1v.228h-3.212v-.229c.258-.021.433-.092.524-.213.092-.12.137-.44.137-.957v-3.288c0-.34-.017-.556-.05-.65a.508.508 0 0 0-.185-.26c-.081-.055-.223-.093-.426-.115v-.235h2.43m6.074 4.605v-1.99c-.513.3-.894.623-1.144.966-.166.23-.249.46-.249.693 0 .196.07.367.21.516.106.114.255.171.446.171.211 0 .457-.118.737-.356zm0 .464c-.725.64-1.376.961-1.953.961-.339 0-.62-.111-.845-.334a1.129 1.129 0 0 1-.338-.836c0-.454.195-.862.586-1.225.39-.363 1.24-.845 2.55-1.447v-.598c0-.45-.024-.732-.073-.849a.683.683 0 0 0-.277-.305.83.83 0 0 0-.457-.13c-.276 0-.503.061-.68.184-.111.076-.166.165-.166.267 0 .089.059.2.178.331.16.182.242.358.242.528a.706.706 0 0 1-.233.531c-.155.146-.357.22-.607.22a.97.97 0 0 1-.67-.242.738.738 0 0 1-.271-.566c0-.306.12-.597.362-.875.241-.278.579-.49 1.011-.64a4.121 4.121 0 0 1 1.349-.222c.564 0 1.01.12 1.339.36.328.239.541.5.64.779.058.178.088.587.088 1.227v2.308c0 .273.01.443.032.513.02.07.053.122.096.156.042.034.09.05.145.05.11 0 .223-.078.338-.234l.19.152c-.211.314-.43.542-.658.683a1.42 1.42 0 0 1-.773.214c-.339 0-.604-.08-.795-.238-.19-.16-.307-.4-.35-.723z"/><path fill="#FFF" d="M154.917 37.486v7.39c0 .42.049.688.147.805.097.117.288.184.572.2v.229h-3.212v-.229c.263-.008.458-.084.585-.229.085-.097.127-.356.127-.776V38.72c0-.415-.049-.682-.145-.798-.098-.117-.287-.184-.567-.2v-.235h2.493"/><path fill="#FFF" d="M157.118 37.282c.276 0 .51.096.7.29a.952.952 0 0 1 .286.696.936.936 0 0 1-.289.693.953.953 0 0 1-.697.286.942.942 0 0 1-.693-.286.943.943 0 0 1-.286-.693c0-.272.096-.504.286-.696a.937.937 0 0 1 .693-.29zm.891 2.881v4.713c0 .42.048.688.146.805.098.117.289.184.573.2v.229h-3.212v-.229c.262-.008.458-.084.585-.229.085-.097.127-.356.127-.776v-3.473c0-.42-.049-.688-.146-.804-.098-.117-.286-.184-.566-.2v-.236h2.493zm4.058 4.605v-1.99c-.513.3-.894.623-1.144.966-.166.23-.249.46-.249.693 0 .196.07.367.21.516.107.114.255.171.445.171.213 0 .458-.118.738-.356zm0 .464c-.724.64-1.376.961-1.952.961-.34 0-.621-.111-.847-.334a1.128 1.128 0 0 1-.336-.836c0-.454.195-.862.585-1.225.39-.363 1.24-.845 2.55-1.447v-.598c0-.45-.024-.732-.073-.849a.685.685 0 0 0-.276-.305.833.833 0 0 0-.459-.13c-.275 0-.502.061-.68.184-.11.076-.165.165-.165.267 0 .089.059.2.178.331.161.182.242.358.242.528a.706.706 0 0 1-.233.531c-.154.146-.357.22-.607.22a.97.97 0 0 1-.67-.242.738.738 0 0 1-.271-.566c0-.306.12-.597.362-.875s.579-.49 1.011-.64a4.124 4.124 0 0 1 1.349-.222c.563 0 1.01.12 1.339.36.328.239.541.5.64.779.058.178.088.587.088 1.227v2.308c0 .273.01.443.032.513.02.07.053.122.095.156a.228.228 0 0 0 .146.05c.11 0 .223-.078.338-.234l.19.152c-.211.314-.43.542-.658.683a1.419 1.419 0 0 1-.773.214c-.339 0-.604-.08-.795-.238-.19-.16-.307-.4-.35-.723z"/></g></svg>