<?xml version="1.0" encoding="utf-8"?>
<!-- Generator: Adobe Illustrator 18.0.0, SVG Export Plug-In . SVG Version: 6.00 Build 0)  -->
<!DOCTYPE svg PUBLIC "-//W3C//DTD SVG 1.1//EN" "http://www.w3.org/Graphics/SVG/1.1/DTD/svg11.dtd">
<svg version="1.1" id="Layer_1" xmlns="http://www.w3.org/2000/svg" xmlns:xlink="http://www.w3.org/1999/xlink" x="0px" y="0px"
	 width="390.1px" height="67.6px" viewBox="0 0 390.1 67.6" enable-background="new 0 0 390.1 67.6" xml:space="preserve">
<g>
	<g>
		<path fill="#00022C" d="M17.8,40.6h-6.1c-2.8,0-4.3,1.3-4.3,3.5c0,2.1,1.4,3.6,4.4,3.6c2.1,0,3.5-0.2,4.9-1.5
			c0.8-0.8,1.1-2,1.1-3.9V40.6z M18,53.7V51c-2.1,2.1-4,3-7.6,3c-3.5,0-6-0.9-7.9-2.7C0.9,49.5,0,47,0,44.3c0-4.9,3.4-8.9,10.5-8.9
			h7.3v-1.5c0-3.4-1.7-4.9-5.7-4.9c-3,0-4.3,0.7-5.9,2.5l-4.9-4.8c3-3.3,6-4.3,11.1-4.3c8.6,0,13.1,3.7,13.1,10.9v20.3L18,53.7
			L18,53.7z"/>
		<path fill="#00022C" d="M50.5,53.7v-2.8c-2,2.1-4.9,3.2-7.7,3.2c-3.1,0-5.6-1-7.3-2.7c-2.5-2.5-3.1-5.4-3.1-8.8V22.8h7.7v18.6
			c0,4.2,2.7,5.6,5.1,5.6s5.2-1.4,5.2-5.6V22.8H58v30.8h-7.5V53.7z"/>
		<path fill="#00022C" d="M76.4,54c-4.9,0-9.2-0.5-13.1-4.4l5-5c2.5,2.5,5.9,2.9,8.2,2.9c2.7,0,5.4-0.9,5.4-3.2
			c0-1.5-0.8-2.6-3.3-2.8L73.7,41c-5.6-0.5-9-3-9-8.6c0-6.4,5.6-9.8,11.9-9.8c4.8,0,8.8,0.8,11.8,3.6L83.7,31
			c-1.8-1.6-4.5-2.1-7.2-2.1c-3.1,0-4.4,1.4-4.4,3c0,1.1,0.5,2.4,3.2,2.7l4.9,0.5c6.1,0.6,9.2,3.8,9.2,9.1
			C89.4,50.8,83.6,54,76.4,54"/>
		<path fill="#00022C" d="M105,53.7c-6.3,0-8.9-4.4-8.9-8.8V29.6h-3.3v-5.9H96v-9.1h7.7v9.1h5.4v5.9h-5.4v14.8
			c0,1.8,0.8,2.8,2.7,2.8h2.8v6.5H105z"/>
		<path fill="#00022C" d="M132.9,31.2c-1.2-1.2-2.2-1.8-4.1-1.8c-2.4,0-5,1.8-5,5.7v18.6h-7.7V22.8h7.5v3c1.5-1.8,4.4-3.3,7.8-3.3
			c3,0,5.1,0.8,7.3,2.9L132.9,31.2z"/>
		<path fill="#00022C" d="M157.2,40.6h-6.1c-2.8,0-4.3,1.3-4.3,3.5c0,2.1,1.4,3.6,4.4,3.6c2.1,0,3.5-0.2,4.9-1.5
			c0.8-0.8,1.1-2,1.1-3.9L157.2,40.6L157.2,40.6z M157.4,53.7V51c-2.1,2.1-4,3-7.6,3c-3.5,0-6-0.9-7.9-2.7c-1.7-1.7-2.5-4.2-2.5-6.9
			c0-4.9,3.4-8.9,10.5-8.9h7.3V34c0-3.4-1.7-4.9-5.7-4.9c-3,0-4.3,0.7-5.9,2.5l-4.9-4.8c3-3.3,6-4.3,11.1-4.3
			c8.6,0,13.1,3.7,13.1,10.9v20.3H157.4z"/>
		<path fill="#00022C" d="M180.6,53.7c-6.3,0-9-4.4-9-8.8V11.5h7.7v32.9c0,1.8,0.8,2.8,2.7,2.8h3v6.5H180.6z"/>
	</g>
	<rect x="190.7" y="22.8" fill="#00022C" width="7.7" height="30.8"/>
	<g>
		<path fill="#00022C" d="M222.6,40.6h-6.1c-2.8,0-4.3,1.3-4.3,3.5c0,2.1,1.4,3.6,4.4,3.6c2.1,0,3.5-0.2,4.9-1.5
			c0.8-0.8,1.1-2,1.1-3.9L222.6,40.6L222.6,40.6z M222.8,53.7V51c-2.1,2.1-4,3-7.6,3c-3.5,0-6-0.9-7.9-2.7c-1.7-1.7-2.5-4.2-2.5-6.9
			c0-4.9,3.4-8.9,10.5-8.9h7.3V34c0-3.4-1.7-4.9-5.7-4.9c-3,0-4.3,0.7-5.9,2.5l-4.9-4.8c3-3.3,6-4.3,11.1-4.3
			c8.6,0,13.1,3.7,13.1,10.9v20.3H222.8z"/>
	</g>
	<rect x="238.8" y="49.3" fill="#00022C" width="4.4" height="4.4"/>
	<g>
		<path fill="#00022C" d="M259.3,27.4c-7,0-8.1,6-8.1,12c0,5.9,1.1,12,8.1,12s8.1-6,8.1-12C267.4,33.5,266.3,27.4,259.3,27.4
			 M258.7,67.6c-4.3,0-6.5-1.1-9.4-3.8l2-2c2.3,2.1,3.8,3.1,7.4,3.1c6,0,8.6-4.2,8.6-9.9v-5c-2.5,3.3-5.2,4-8.5,4c-3,0-5.5-1-7-2.5
			c-2.9-2.9-3.7-7.6-3.7-12.1s0.8-9.2,3.7-12.1c1.5-1.5,4-2.5,7-2.5c3.3,0,5.9,0.7,8.5,4v-3.7h3v30.1
			C270.4,62.4,266.1,67.6,258.7,67.6"/>
		<path fill="#00022C" d="M294.6,29.9c-1.6-1.6-3.6-2.4-5.9-2.4s-4.3,0.8-5.9,2.4c-2.4,2.4-2.5,6.2-2.5,9.5c0,3.3,0.2,7.2,2.5,9.5
			c1.6,1.6,3.6,2.4,5.9,2.4s4.3-0.8,5.9-2.4c2.4-2.4,2.5-6.2,2.5-9.5C297.1,36.1,296.9,32.2,294.6,29.9 M296.6,50.9
			c-2.1,2.1-4.7,3.1-7.9,3.1c-3.2,0-5.9-1.1-7.9-3.1c-3-3-3.6-7.4-3.6-11.5s0.5-8.5,3.6-11.5c2.1-2.1,4.7-3.1,7.9-3.1
			c3.3,0,5.9,1.1,7.9,3.1c3,3,3.6,7.4,3.6,11.5C300.1,43.5,299.6,47.9,296.6,50.9"/>
	</g>
	<polygon fill="#00022C" points="313.5,53.7 303.1,25.1 306.4,25.1 315,50.1 323.6,25.1 326.9,25.1 316.5,53.7 	"/>
	<rect x="327.6" y="49.3" fill="#00022C" width="4.4" height="4.4"/>
	<g>
		<path fill="#00022C" d="M348.4,40.1c-4.9,0-7.3,1.9-7.3,5.7s2.2,5.6,7.5,5.6c2.6,0,5-0.2,7.1-2.2c1.1-1,1.6-2.8,1.6-5.4v-3.7
			C357.3,40.1,348.4,40.1,348.4,40.1z M357.3,50.8c-2.4,2.4-4.7,3.2-8.7,3.2c-4.3,0-6.6-0.7-8.4-2.6c-1.4-1.4-2.1-3.4-2.1-5.6
			c0-5.2,3.7-8.2,9.9-8.2h9.2v-3.2c0-4.6-2.2-7-8.1-7c-4,0-6,1-7.9,3.6l-2.2-1.9c2.4-3.4,5.4-4.4,10.1-4.4c7.6,0,11.1,3.4,11.1,9.4
			v19.5h-3v-2.8H357.3z"/>
		<path fill="#00022C" d="M387.1,50.3c-2.1,2.5-4.9,3.7-8.4,3.7c-3.1,0-5.7-0.9-7.6-2.7c-2-1.9-3-4.6-3-7.9V25.1h3v17.7
			c0,5.5,2.7,8.5,7.9,8.5c5.2,0,8.1-3.1,8.1-8.5V25.1h3v28.5h-3V50.3z"/>
	</g>
	<polygon fill="#00022C" points="194.6,0 197,5 202.4,3.8 200,8.7 204.3,12.2 198.9,13.4 198.9,18.9 194.6,15.4 190.3,18.9 
		190.3,13.4 184.9,12.2 189.3,8.7 186.8,3.8 192.2,5 	"/>
</g>
</svg>
