<svg xmlns="http://www.w3.org/2000/svg" width="30" height="30"><path d="M25.311 23.443v1.875c0 1.035-.84 1.875-1.875 1.875h-5.625m0-22.5h5.625c1.035 0 1.875.84 1.875 1.875v1.875m-12.32 20.614L1.741 27.45a.938.938 0 0 1-.805-.928V4.656c0-.442.309-.825.741-.917L12.927.963a.936.936 0 0 1 1.134.917v26.25a.938.938 0 0 1-1.07.927zm12.32-16.866l3.75 3.75H18.75m6.563 3.75l3.75-3.75" stroke="#0073ec" fill="none" stroke-width="1.875" stroke-linecap="round" stroke-linejoin="round"/><path d="M9.842 14.536a.469.469 0 1 0 .47.469V15a.467.467 0 0 0-.467-.469h-.003" stroke="#0073ec" fill="none" stroke-width="1.875" stroke-linecap="round" stroke-linejoin="round"/></svg>