<svg xmlns="http://www.w3.org/2000/svg" width="26" height="26"><path fill="#FFF" d="M25.605 23.682l-6.41-6.436c1.648-1.891 2.551-4.271 2.551-6.749C21.746 4.71 16.868 0 10.873 0 4.878 0 0 4.71 0 10.497c0 5.789 4.878 10.498 10.873 10.498 2.25 0 4.396-.655 6.23-1.9l6.458 6.485c.27.27.633.42 1.022.42.368 0 .717-.136.982-.382a1.338 1.338 0 0 0 .04-1.936zM10.873 2.738c4.432 0 8.037 3.481 8.037 7.76 0 4.278-3.605 7.759-8.037 7.759-4.431 0-8.037-3.481-8.037-7.76 0-4.278 3.606-7.759 8.037-7.759z"/></svg>