<?xml version="1.0" encoding="UTF-8"?>
<svg width="25px" height="25px" viewBox="0 0 25 25" version="1.1" xmlns="http://www.w3.org/2000/svg" xmlns:xlink="http://www.w3.org/1999/xlink">
    <!-- Generator: Sketch 63.1 (92452) - https://sketch.com -->
    <title>Logos / Icons / Centrelink</title>
    <desc>Created with Sketch.</desc>
    <g id="Logos-/-Icons-/-Centrelink" stroke="none" stroke-width="1" fill="none" fill-rule="evenodd">
        <g id="dhs-unity-star" transform="translate(1.000000, 1.000000)" fill-rule="nonzero">
            <path d="M0.340140845,13.6833333 C0.404929577,14 0.745070423,14.0666667 0.907042254,14.0833333 L1.36056338,14.1 C2.33239437,13.5666667 4.76197183,12.2333333 4.7943662,12.2166667 C5.36126761,11.5333333 4.85915493,10.9166667 4.58380282,10.4833333 L4.24366197,10 L0.728873239,12 C0.307746479,12.25 0.0647887324,12.45 0.145774648,12.9333333 L0.340140845,13.6833333 Z" id="Shape" fill="#008D95"></path>
            <path d="M0.923239437,14.0833333 C0.745070423,14.0666667 0.421126761,14 0.356338028,13.6833333 L0.793661972,15.6833333 C0.923239437,16.1666667 1.21478873,16.2333333 1.70070423,16.2666667 L6.28450704,16.5333333 C6.78661972,16.5833333 7.56408451,16.5666667 7.72605634,17.45 C7.79084507,17.1166667 7.9528169,16.2166667 7.9528169,16.2166667 C7.98521127,16.0166667 7.98521127,15.8 7.93661972,15.5666667 C7.77464789,14.8333333 7.14295775,14.3333333 6.44647887,14.3166667 L0.923239437,14.0833333 Z" id="Shape" fill="#00B5C8"></path>
            <path d="M22.4816901,14.95 C22.5464789,14.6333333 22.2873239,14.4166667 22.1415493,14.3333333 L21.7366197,14.1166667 C20.6352113,14.1666667 17.8816901,14.2833333 17.8492958,14.2833333 C17.0556338,14.65 17.25,15.4333333 17.3147887,15.9333333 L17.4119718,16.5166667 L21.4288732,16.2833333 C21.9147887,16.25 22.2225352,16.1833333 22.3359155,15.7 L22.4816901,14.95 Z" id="Shape" fill="#81C241"></path>
            <path d="M4.6,3.21666667 C4.14647887,3.03333333 3.85492958,2.95 3.53098592,3.33333333 L3.06126761,3.93333333 C2.86690141,4.18333333 3.01267606,4.5 3.10985915,4.65 L3.38521127,5.03333333 C4.4056338,5.48333333 6.91619718,6.61666667 6.96478873,6.63333333 C7.82323944,6.66666667 8.00140845,5.86666667 8.1471831,5.38333333 L8.30915493,4.81666667 L4.6,3.21666667 Z" id="Shape" fill="#2AB24B"></path>
            <path d="M13.6704225,0.816666667 C13.5246479,0.333333333 13.3950704,0.05 12.9091549,0.0333333333 L12.1640845,0.0333333333 C11.856338,0.0333333333 11.7105634,0.35 11.6619718,0.516666667 L11.5485915,0.966666667 C11.8401408,2.06666667 12.5528169,4.8 12.5690141,4.83333333 C13.0873239,5.55 13.7838028,5.18333333 14.2535211,5.01666667 L14.7880282,4.78333333 L13.6704225,0.816666667 Z" id="Shape" fill="#C3D82E"></path>
            <path d="M21.2830986,5.53333333 L20.8133803,4.93333333 C20.6190141,4.68333333 20.2950704,4.76666667 20.1330986,4.83333333 L19.7119718,5.01666667 C19.0640845,5.93333333 17.428169,8.21666667 17.4119718,8.25 C17.1852113,9.11666667 17.8978873,9.45 18.3352113,9.71666667 L18.8373239,10 L21.1535211,6.63333333 C21.4288732,6.21666667 21.5584507,5.93333333 21.2830986,5.53333333 L21.2830986,5.53333333 Z" id="Shape" fill="#F1D311"></path>
            <path d="M6.72183099,21.75 L7.01338028,21.4 C7.22394366,20.2833333 7.72605634,17.5 7.72605634,17.4666667 C7.56408451,16.6 6.78661972,16.6 6.28450704,16.55 L5.70140845,16.5166667 L5.03732394,20.6 C4.95633803,21.1 4.95633803,21.4166667 5.39366197,21.65 L6.05774648,21.9833333 C6.33309859,22.1 6.59225352,21.8833333 6.72183099,21.75 Z" id="Shape" fill="#008D95"></path>
            <path d="M11.6619718,0.533333333 C11.7105634,0.366666667 11.856338,0.05 12.1640845,0.05 L10.171831,0.05 C9.68591549,0.0666666667 9.55633803,0.35 9.41056338,0.833333333 L8.13098592,5.38333333 C7.96901408,5.86666667 7.80704225,6.65 6.94859155,6.63333333 C7.25633803,6.76666667 8.06619718,7.13333333 8.06619718,7.13333333 C8.2443662,7.21666667 8.45492958,7.26666667 8.69788732,7.26666667 C9.42676056,7.26666667 10.0422535,6.75 10.2042254,6.05 L11.6619718,0.533333333 Z" id="Shape" fill="#81C241"></path>
            <path d="M3.10985915,4.65 C3.01267606,4.5 2.86690141,4.18333333 3.06126761,3.93333333 L1.81408451,5.55 C1.52253521,5.95 1.65211268,6.23333333 1.94366197,6.65 L4.6,10.5 C4.87535211,10.9333333 5.36126761,11.55 4.81056338,12.2333333 C5.10211268,12.0666667 5.89577465,11.65 5.89577465,11.65 C6.07394366,11.55 6.23591549,11.4166667 6.38169014,11.2333333 C6.83521127,10.65 6.81901408,9.83333333 6.39788732,9.26666667 L3.10985915,4.65 Z" id="Shape" fill="#00B5C8"></path>
            <path d="M15.9056338,22.5166667 C16.1809859,22.3833333 16.1809859,22.0333333 16.1647887,21.85 L16.0838028,21.3833333 C15.3549296,20.5166667 13.5570423,18.3833333 13.5408451,18.35 C12.7795775,17.9333333 12.293662,18.5666667 11.9535211,18.95 L11.5647887,19.4 L14.2373239,22.4833333 C14.5774648,22.85 14.8042254,23.05 15.2415493,22.85 L15.9056338,22.5166667 L15.9056338,22.5166667 Z" id="Shape" fill="#009448"></path>
            <path d="M16.1647887,21.8666667 C16.1809859,22.05 16.1971831,22.4 15.9056338,22.5333333 L17.7035211,21.6333333 C18.1246479,21.4 18.1246479,21.0833333 18.0598592,20.5833333 L17.2985915,15.9166667 C17.2338028,15.4 17.0556338,14.6166667 17.8492958,14.2666667 C17.5253521,14.2833333 16.634507,14.3166667 16.634507,14.3166667 C16.4401408,14.3333333 16.2295775,14.3833333 16.0190141,14.4833333 C15.3549296,14.8 15.0309859,15.55 15.1605634,16.25 L16.1647887,21.8666667 L16.1647887,21.8666667 Z" id="Shape" fill="#2AB24B"></path>
            <path d="M6.72183099,21.75 C6.6084507,21.8833333 6.33309859,22.1 6.05774648,21.9666667 L7.8556338,22.8666667 C8.29295775,23.0666667 8.53591549,22.8666667 8.85985915,22.5 L11.9211268,18.9833333 C12.2612676,18.6166667 12.7471831,17.9833333 13.5084507,18.3833333 C13.2978873,18.1333333 12.7147887,17.4333333 12.7147887,17.4333333 C12.5852113,17.2833333 12.4232394,17.15 12.2126761,17.0333333 C11.5647887,16.7166667 10.7873239,16.9 10.3338028,17.45 L6.72183099,21.75 L6.72183099,21.75 Z" id="Shape" fill="#00B5C8"></path>
            <path d="M22.1253521,14.3333333 C22.2711268,14.4333333 22.5464789,14.6333333 22.465493,14.95 L22.9028169,12.95 C23,12.4666667 22.7570423,12.2666667 22.3197183,12.0166667 L18.3190141,9.71666667 C17.8978873,9.45 17.1852113,9.11666667 17.3957746,8.25 C17.2014085,8.51666667 16.6669014,9.26666667 16.6669014,9.26666667 C16.5535211,9.43333333 16.456338,9.63333333 16.4077465,9.86666667 C16.2457746,10.6 16.6021127,11.3333333 17.2176056,11.65 L22.1253521,14.3333333 Z" id="Shape" fill="#C3D82E"></path>
            <path d="M20.1330986,4.83333333 C20.2950704,4.76666667 20.6190141,4.68333333 20.8133803,4.93333333 L19.5661972,3.31666667 C19.2584507,2.93333333 18.9507042,3.01666667 18.4971831,3.2 L14.2535211,5.01666667 C13.7838028,5.2 13.0873239,5.55 12.5690141,4.83333333 C12.65,5.15 12.8929577,6.05 12.8929577,6.05 C12.9415493,6.25 13.0387324,6.45 13.184507,6.63333333 C13.6380282,7.21666667 14.415493,7.38333333 15.0471831,7.1 L20.1330986,4.83333333 Z" id="Shape" fill="#F5EA00"></path>
        </g>
    </g>
</svg>