<svg height="20" width="20" xmlns="http://www.w3.org/2000/svg"><g fill="none" stroke="#0073ec" stroke-linecap="round" stroke-linejoin="round" stroke-width="1.249995"><path d="M16.25 7.5h1.597c.844 0 1.528.684 1.528 1.527v8.82c0 .844-.684 1.528-1.528 1.528h-3.82a1.528 1.528 0 0 1-1.527-1.528V15m-3.34-.616v-1.897l.637.106a1.896 1.896 0 0 0 2.209-1.871V9.167l.591-.148a.95.95 0 0 0 .56-1.447l-1.151-1.725v-.473c0-2.798-2.834-5.032-6.208-4.72A5.686 5.686 0 0 0 3.47 11.245v3.14"/><path d="M17.5 12.812L15.312 15l-.937-1.25"/></g></svg>