<?xml version="1.0" encoding="UTF-8"?>
<svg width="10px" height="19px" viewBox="0 0 10 19" version="1.1" xmlns="http://www.w3.org/2000/svg" xmlns:xlink="http://www.w3.org/1999/xlink">
    <!-- Generator: Sketch 63.1 (92452) - https://sketch.com -->
    <title>FB</title>
    <desc>Created with Sketch.</desc>
    <g id="Symbols" stroke="none" stroke-width="1" fill="none" fill-rule="evenodd" opacity="0.699999988">
        <g id="Global-/-Footer-/-Desktop" transform="translate(-1231.000000, -100.000000)" fill="#FFFFFF" fill-rule="nonzero">
            <g id="Footer">
                <g>
                    <g id="Row" transform="translate(535.000000, 60.000000)">
                        <g id="Footer_collumn-Copy">
                            <g id="Group-12" transform="translate(600.000000, 0.000000)">
                                <g id="Footer_collumn-Copy-4" transform="translate(0.000000, 37.000000)">
                                    <g id="Group" transform="translate(0.000000, 0.385681)">
                                        <g id="FB" transform="translate(96.000000, 2.983834)">
                                            <path d="M6.50300601,17.7090069 L6.50300601,9.61809383 L9.43887776,9.61809383 L9.87975952,6.48019932 L6.50300601,6.48019932 L6.50300601,4.46754415 C6.50300601,3.55555977 6.76352705,2.93446696 8.18637275,2.93446696 L10,2.93446696 L10,0.116946272 C9.67935872,0.0786193426 8.60721443,0 7.35470942,0 C4.749499,0 2.96593186,1.46035429 2.96593186,4.156015 L2.96593186,6.48019932 L0,6.48019932 L0,9.61809383 L2.96593186,9.61809383 L2.96593186,17.7090069 L6.50300601,17.7090069 L6.50300601,17.7090069 Z"></path>
                                        </g>
                                    </g>
                                </g>
                            </g>
                        </g>
                    </g>
                </g>
            </g>
        </g>
    </g>
</svg>