<svg height="30" viewBox="0 0 30 30" width="30" xmlns="http://www.w3.org/2000/svg"><g fill="none" stroke="#0073ec" stroke-linecap="round" stroke-linejoin="round" stroke-width="1.5" transform="scale(1.25)"><path d="m21.75 18.5v1.5c0 1.657-1.343 3-3 3h-15c-1.657 0-3-1.343-3-3v-10.5c0-1.657 1.343-3 3-3h15c1.657 0 3 1.343 3 3v1.5"/><path d="m18.75 6.5-2.329-4.658c-.37-.741-1.271-1.042-2.012-.671 0 0 0 0-.001 0l-10.658 5.329"/><path d="m21.75 18.5c.828 0 1.5-.672 1.5-1.5v-4.5c0-.828-.672-1.5-1.5-1.5h-3.75c-2.071 0-3.75 1.679-3.75 3.75s1.679 3.75 3.75 3.75z"/><path d="m18 14.375c.207 0 .375.168.375.375s-.168.375-.375.375-.375-.168-.375-.375.168-.375.375-.375"/></g></svg>