<svg height="30" viewBox="0 0 30 30" width="30" xmlns="http://www.w3.org/2000/svg"><g fill="none" stroke="#0073ec" stroke-linecap="round" stroke-linejoin="round" stroke-width="1.5" transform="scale(1.25)"><path d="m7.476 7.084c1.642 1.704 3.907 2.667 6.274 2.666 1.186 0 2.36-.241 3.45-.71"/><path d="m12 4.5c2.899 0 5.25 2.351 5.25 5.25s-2.351 5.25-5.25 5.25-5.25-2.351-5.25-5.25 2.351-5.25 5.25-5.25z"/><path d="m18.913 20.876c-3.794-3.818-9.965-3.837-13.783-.043-.014.014-.029.029-.043.043"/><path d="m12 .75c6.213 0 11.25 5.037 11.25 11.25s-5.037 11.25-11.25 11.25-11.25-5.037-11.25-11.25 5.037-11.25 11.25-11.25z"/></g></svg>