<?xml version="1.0" encoding="UTF-8"?>
<svg width="16px" height="16px" viewBox="0 0 16 16" version="1.1" xmlns="http://www.w3.org/2000/svg" xmlns:xlink="http://www.w3.org/1999/xlink">
    <!-- Generator: Sketch 63.1 (92452) - https://sketch.com -->
    <title>linkedin</title>
    <desc>Created with Sketch.</desc>
    <g id="Symbols" stroke="none" stroke-width="1" fill="none" fill-rule="evenodd" opacity="0.699999988">
        <g id="Global-/-Footer-/-Desktop" transform="translate(-1136.000000, -100.000000)" fill="#FFFFFF">
            <g id="Footer">
                <g>
                    <g id="Row" transform="translate(535.000000, 60.000000)">
                        <g id="Footer_collumn-Copy">
                            <g id="Group-12" transform="translate(600.000000, 0.000000)">
                                <g id="Footer_collumn-Copy-4" transform="translate(0.000000, 37.000000)">
                                    <g id="Group" transform="translate(0.000000, 0.385681)">
                                        <g id="linkedin" transform="translate(0.000000, 2.983834)">
                                            <path d="M16.96,14.7781663 L13.54,14.7781663 L13.54,9.53138106 C13.5486739,9.14052101 13.5015476,8.75039744 13.4,8.37242494 C13.2887468,7.8836587 12.9357127,7.48238542 12.46,7.30398152 C11.7164796,7.03040082 10.87844,7.25594683 10.38,7.86378291 C10.0942199,8.18805282 9.93786174,8.60339493 9.94,9.03257737 C9.95,9.18113626 9.94,9.32772748 9.94,9.47727021 L9.94,14.6118984 C9.94,14.7742309 9.94,14.7742309 9.77,14.7742309 C8.74,14.7742309 7.7,14.7742309 6.66,14.7742309 C6.54,14.7742309 6.51,14.7417644 6.51,14.6246882 C6.52,12.3034965 6.52666667,9.98328868 6.53,7.66406467 C6.53,6.81206467 6.53,5.96006467 6.52,5.106097 L6.52,4.81094688 L6.66,4.81094688 C7.7,4.81094688 8.74,4.81094688 9.78,4.81094688 C9.9,4.81094688 9.94,4.84046189 9.94,4.96048961 C9.93,5.31762125 9.94,5.67672055 9.94,6.03385219 C9.93736204,6.08190143 9.9441523,6.13000096 9.96,6.17552425 L10.2,5.86955196 C10.8015234,5.09180155 11.7271521,4.6220142 12.72,4.59056813 C13.3407971,4.54490896 13.9643979,4.6287231 14.55,4.83652656 C15.1049329,5.0357719 15.5953299,5.37791726 15.97,5.82724711 C16.5111785,6.51563597 16.8377125,7.34372241 16.91,8.21107621 C16.92,8.34881293 16.94,8.48753349 16.96,8.62527021 L16.96,14.7732471 L16.96,14.7781663 Z M0.99,1.49641109 C1.03,1.38720554 1.05,1.27603233 1.09,1.16879446 C1.24822698,0.696844698 1.62203722,0.325072194 2.1,0.164300231 C2.69285632,-0.0711180253 3.36028667,-0.0424124305 3.93,0.243006928 C4.61432642,0.584046037 4.97349685,1.34073235 4.8,2.07588915 C4.69376961,2.69405553 4.22736719,3.19263462 3.61,3.34798614 C3.06188482,3.53283334 2.46177777,3.49747972 1.94,3.24960277 C1.44987667,3.02399821 1.10528227,2.57405495 1.02,2.0483418 L0.99,1.9696351 L0.99,1.50034642 L0.99,1.49641109 Z M4.61,14.7781663 L4.48,14.7781663 C3.44,14.7781663 2.39,14.7781663 1.34,14.7781663 C1.22,14.7781663 1.2,14.7417644 1.2,14.6325589 L1.2,4.82472055 L4.61,4.82472055 L4.61,14.7752148 L4.61,14.7781663 Z"></path>
                                        </g>
                                    </g>
                                </g>
                            </g>
                        </g>
                    </g>
                </g>
            </g>
        </g>
    </g>
</svg>