<?xml version="1.0" encoding="UTF-8"?>
<svg width="26px" height="20px" viewBox="0 0 26 20" version="1.1" xmlns="http://www.w3.org/2000/svg" xmlns:xlink="http://www.w3.org/1999/xlink">
    <!-- Generator: Sketch 63.1 (92452) - https://sketch.com -->
    <title>Icons / UI / Inbox / Filled</title>
    <desc>Created with Sketch.</desc>
    <g id="Symbols" stroke="none" stroke-width="1" fill="none" fill-rule="evenodd" opacity="0.699999988">
        <g id="Global-/-Footer-/-Desktop" transform="translate(-1270.000000, -99.000000)" fill="#FFFFFF">
            <g id="Footer">
                <g>
                    <g id="Row" transform="translate(535.000000, 60.000000)">
                        <g id="Footer_collumn-Copy">
                            <g id="Group-12" transform="translate(600.000000, 0.000000)">
                                <g id="Footer_collumn-Copy-4" transform="translate(0.000000, 37.000000)">
                                    <g id="Group" transform="translate(0.000000, 0.385681)">
                                        <g id="mail" transform="translate(135.000000, 0.983834)">
                                            <g id="Icons-/-UI-/-Inbox-/-Filled" transform="translate(0.000000, 0.630485)">
                                                <g id="streamline-icon-email-action-unread@40x40">
                                                    <path d="M25.4115241,3.11893376 L25.4166667,3.27777778 L25.4166667,16.6111111 C25.4166667,17.8919561 24.4190779,18.9407787 23.158844,19.0226352 L23,19.0277778 L3,19.0277778 C1.71915498,19.0277778 0.670332398,18.030189 0.588475944,16.7699551 L0.583333333,16.6111111 L0.583333333,3.27777778 C0.583333333,2.93552299 0.654562431,2.60983491 0.782998531,2.31473561 L10.2962054,9.77249672 L10.4830409,9.90876919 C12.0617342,10.998953 14.16895,10.9536805 15.698515,9.77659728 L15.698515,9.77659728 L25.1946874,2.26501422 C25.3161334,2.52761732 25.3918261,2.81567096 25.4115241,3.11893376 Z M23,0.861111111 C23.4245407,0.861111111 23.8235911,0.970707722 24.170389,1.16313871 L14.7757965,8.59401965 L14.6162094,8.70844556 C13.5868186,9.39499099 12.2151936,9.35655557 11.2162927,8.58784716 L11.2162927,8.58784716 L1.78013735,1.19135911 C2.09527864,1.00663902 2.45594778,0.891274298 2.84115599,0.866253722 L3,0.861111111 L23,0.861111111 Z" id="Combined-Shape"></path>
                                                </g>
                                            </g>
                                        </g>
                                    </g>
                                </g>
                            </g>
                        </g>
                    </g>
                </g>
            </g>
        </g>
    </g>
</svg>