<?xml version="1.0" encoding="UTF-8"?>
<svg width="36px" height="34px" viewBox="0 0 36 34" version="1.1" xmlns="http://www.w3.org/2000/svg" xmlns:xlink="http://www.w3.org/1999/xlink">
    <!-- Generator: Sketch 63.1 (92452) - https://sketch.com -->
    <title>Group</title>
    <desc>Created with Sketch.</desc>
    <defs>
        <filter x="-5.3%" y="-6.4%" width="110.7%" height="112.8%" filterUnits="objectBoundingBox" id="filter-1">
            <feOffset dx="0" dy="2" in="SourceAlpha" result="shadowOffsetOuter1"></feOffset>
            <feGaussianBlur stdDeviation="3" in="shadowOffsetOuter1" result="shadowBlurOuter1"></feGaussianBlur>
            <feColorMatrix values="0 0 0 0 0   0 0 0 0 0   0 0 0 0 0  0 0 0 0 0" type="matrix" in="shadowBlurOuter1" result="shadowMatrixOuter1"></feColorMatrix>
            <feMerge>
                <feMergeNode in="shadowMatrixOuter1"></feMergeNode>
                <feMergeNode in="SourceGraphic"></feMergeNode>
            </feMerge>
        </filter>
    </defs>
    <g id="01-Public" stroke="none" stroke-width="1" fill="none" fill-rule="evenodd" stroke-linecap="round" stroke-linejoin="round">
        <g id="D-01-00-SA_Home-page" transform="translate(-114.000000, -1378.000000)" stroke="#0073EC" stroke-width="1.5">
            <g id="Info-for-travellers" transform="translate(0.000000, 1215.000000)">
                <g id="Corousel-02-Copy" transform="translate(97.000000, 145.000000)">
                    <g id="Tiles-/-Application-/-Default">
                        <g id="Group-11-Copy-5" filter="url(#filter-1)">
                            <g id="Group" transform="translate(23.000000, 22.000000)">
                                <g id="aircraft-plane">
                                    <path d="M15,21.1250001 C13.9773851,21.1252836 13.083194,20.4359254 12.8232703,19.4468951 C12.5633465,18.4578648 13.0030718,17.4179445 13.8936936,16.9154168 C14.7843154,16.4128891 15.9018055,16.5741606 16.614,17.308 C17.0361755,15.8163776 18.5252763,14.8920609 20.0493395,15.1756112 C21.5734028,15.4591615 22.6304349,16.8571836 22.4879013,18.4008331 C22.3453678,19.9444825 21.0502159,21.1253146 19.5,21.1250001 L15,21.1250001 Z" id="Shape"></path>
                                    <path d="M20.625,9.875 C22.0747475,9.875 23.25,8.69974747 23.25,7.25 L23.25,7.25 C23.25,6.55380671 22.9734383,5.88612769 22.4811553,5.3938447 C21.9888723,4.90156171 21.3211933,4.625 20.625,4.625 L6,4.625 L3.75,0.875 L0.75,0.875 L0.75,5.375 L0.75,5.375 C0.75,7.86028137 2.76471863,9.875 5.25,9.875 L9,9.875 L9,13.592 C9.00014049,13.8782798 9.16324054,14.1395093 9.42039261,14.2653225 C9.67754468,14.3911358 9.98388927,14.359585 10.21,14.184 L15.75,9.875 L20.625,9.875 Z" id="Shape"></path>
                                </g>
                            </g>
                        </g>
                    </g>
                </g>
            </g>
        </g>
    </g>
</svg>
