<?xml version="1.0" encoding="UTF-8"?>
<svg width="19px" height="16px" viewBox="0 0 19 16" version="1.1" xmlns="http://www.w3.org/2000/svg" xmlns:xlink="http://www.w3.org/1999/xlink">
    <!-- Generator: Sketch 63.1 (92452) - https://sketch.com -->
    <title>twitter</title>
    <desc>Created with Sketch.</desc>
    <g id="Symbols" stroke="none" stroke-width="1" fill="none" fill-rule="evenodd" opacity="0.699999988">
        <g id="Global-/-Footer-/-Desktop" transform="translate(-1182.000000, -100.000000)" fill="#FFFFFF">
            <g id="Footer">
                <g>
                    <g id="Row" transform="translate(535.000000, 60.000000)">
                        <g id="Footer_collumn-Copy">
                            <g id="Group-12" transform="translate(600.000000, 0.000000)">
                                <g id="Footer_collumn-Copy-4" transform="translate(0.000000, 37.000000)">
                                    <g id="Group" transform="translate(0.000000, 0.385681)">
                                        <g id="twitter" transform="translate(47.000000, 2.000000)">
                                            <path d="M18.95,2.7311224 C18.240349,3.03507979 17.4888696,3.23400288 16.72,3.32142263 C17.5263554,2.86017881 18.1342687,2.12568773 18.43,1.25537182 C17.6638822,1.69079789 16.8289718,1.99674925 15.96,2.16049885 C15.2159677,1.40329238 14.1904834,0.976994066 13.12,0.979898383 C12.1012791,0.967030992 11.1190954,1.35287587 10.3895607,2.05253481 C9.660026,2.75219376 9.24291304,3.7083418 9.23,4.71059584 C9.23248822,4.99598426 9.26601243,5.28029125 9.33,5.55866051 C6.22311014,5.41890331 3.31788612,4.00476175 1.32,1.65972748 C0.971538482,2.2264394 0.788187511,2.87651282 0.79,3.53884988 C0.791483478,4.7956557 1.4435155,5.96517182 2.52,6.64186143 C1.90418409,6.62499649 1.3011331,6.46520951 0.76,6.17552425 L0.76,6.22274827 C0.777934985,8.01869275 2.08527925,9.55101333 3.88,9.8796582 C3.30552321,10.0296813 2.7042839,10.0518633 2.12,9.94459122 C2.64827259,11.4785787 4.10383667,12.5169012 5.75,12.5340416 C4.36319157,13.5758243 2.66483445,14.1365967 0.92,14.128836 C0.612639167,14.1293945 0.305488961,14.1129715 -9.09494702e-13,14.0796443 C1.78667304,15.178792 3.85279494,15.7585948 5.96,15.7521617 C8.86320181,15.8096407 11.6685071,14.7189615 13.7474799,12.7244547 C15.8264527,10.7299478 17.0053216,7.99832464 17.02,5.14151501 C17.02,4.97819861 17.02,4.81783372 17.01,4.65648499 C17.7697621,4.13389841 18.4270368,3.48024953 18.95,2.72718707"></path>
                                        </g>
                                    </g>
                                </g>
                            </g>
                        </g>
                    </g>
                </g>
            </g>
        </g>
    </g>
</svg>