<?xml version="1.0" encoding="utf-8"?>
<!-- Generator: Adobe Illustrator 18.0.0, SVG Export Plug-In . SVG Version: 6.00 Build 0)  -->
<!DOCTYPE svg PUBLIC "-//W3C//DTD SVG 1.0//EN" "http://www.w3.org/TR/2001/REC-SVG-20010904/DTD/svg10.dtd">
<svg version="1.0" id="Layer_1" xmlns="http://www.w3.org/2000/svg" xmlns:xlink="http://www.w3.org/1999/xlink" x="0px" y="0px"
	 width="359.8px" height="87.2px" viewBox="0 0 359.8 87.2" enable-background="new 0 0 359.8 87.2" xml:space="preserve">
<path fill="#FFFFFF" d="M139.9,55.8h-5.7l-0.7,1.6c-0.2,0.5-0.3,1-0.3,1.3c0,0.5,0.2,0.8,0.5,1c0.2,0.1,0.7,0.2,1.6,0.3v0.4H130
	v-0.4c0.6-0.1,1.1-0.3,1.4-0.7c0.4-0.4,0.8-1.2,1.4-2.4l5.8-12.9h0.2l5.8,13.2c0.6,1.3,1,2,1.4,2.4c0.3,0.2,0.7,0.4,1.1,0.4v0.4
	h-7.8v-0.4h0.3c0.6,0,1.1-0.1,1.3-0.3c0.2-0.1,0.3-0.3,0.3-0.5c0-0.1,0-0.3-0.1-0.4c0-0.1-0.1-0.4-0.4-0.9L139.9,55.8L139.9,55.8z
	 M139.5,54.9l-2.4-5.6l-2.5,5.6H139.5L139.5,54.9z"/>
<path fill="#FFFFFF" d="M157,49.2v8.7c0,0.8,0.1,1.4,0.2,1.6c0.2,0.2,0.5,0.3,1,0.4v0.4h-4.5v-1.5c-0.5,0.6-1.1,1.1-1.6,1.4
	c-0.5,0.3-1.1,0.4-1.8,0.4c-0.6,0-1.2-0.2-1.7-0.6c-0.5-0.4-0.8-0.8-1-1.4c-0.2-0.5-0.3-1.4-0.3-2.7v-4.4c0-0.8-0.1-1.4-0.2-1.6
	c-0.2-0.2-0.5-0.3-1-0.4v-0.4h4.5v7.6c0,0.8,0,1.3,0.1,1.5c0.1,0.2,0.2,0.4,0.4,0.5c0.2,0.1,0.4,0.2,0.6,0.2c0.3,0,0.5-0.1,0.8-0.2
	c0.3-0.2,0.7-0.6,1.1-1.2v-5.9c0-0.8-0.1-1.4-0.2-1.6c-0.1-0.2-0.5-0.3-1-0.4v-0.4H157L157,49.2z"/>
<path fill="#FFFFFF" d="M166,48.9l0.2,3.8h-0.4c-0.5-1.1-1-1.9-1.5-2.3c-0.5-0.4-1-0.6-1.5-0.6c-0.3,0-0.6,0.1-0.8,0.3
	c-0.2,0.2-0.3,0.5-0.3,0.8c0,0.2,0.1,0.4,0.2,0.6c0.3,0.3,1,0.9,2.1,1.7c1.2,0.8,1.9,1.5,2.3,2c0.4,0.5,0.6,1.2,0.6,1.8
	c0,0.6-0.2,1.2-0.5,1.8c-0.3,0.6-0.7,1.1-1.3,1.4c-0.6,0.3-1.2,0.5-1.9,0.5c-0.5,0-1.2-0.2-2.1-0.5c-0.2-0.1-0.4-0.1-0.5-0.1
	c-0.3,0-0.5,0.2-0.7,0.6h-0.4l-0.2-4h0.4c0.4,1,0.8,1.8,1.5,2.4c0.6,0.5,1.2,0.8,1.8,0.8c0.4,0,0.7-0.1,0.9-0.3
	c0.2-0.2,0.4-0.5,0.4-0.9c0-0.4-0.1-0.7-0.4-1c-0.2-0.3-0.8-0.7-1.6-1.3c-1.2-0.8-2-1.5-2.4-1.9c-0.5-0.7-0.8-1.4-0.8-2.2
	c0-0.9,0.3-1.6,0.9-2.3c0.6-0.7,1.5-1,2.6-1c0.6,0,1.2,0.1,1.7,0.4c0.2,0.1,0.4,0.2,0.5,0.2c0.1,0,0.3,0,0.3-0.1
	c0.1-0.1,0.2-0.2,0.4-0.5H166L166,48.9z"/>
<path fill="#FFFFFF" d="M171.9,45.2v4.1h2.6v1.2h-2.6v6.9c0,0.6,0,1.1,0.1,1.2c0.1,0.2,0.2,0.3,0.3,0.5c0.2,0.1,0.3,0.2,0.4,0.2
	c0.5,0,1-0.4,1.5-1.2l0.4,0.3c-0.6,1.5-1.7,2.3-3.1,2.3c-0.7,0-1.3-0.2-1.8-0.6c-0.5-0.4-0.8-0.8-0.9-1.3c-0.1-0.3-0.1-1-0.1-2.2v-6
	h-1.5V50c1-0.7,1.8-1.4,2.5-2.2c0.7-0.8,1.3-1.6,1.8-2.6H171.9L171.9,45.2z"/>
<path fill="#FFFFFF" d="M179.9,49.2v2.5c0.7-1.1,1.4-1.9,1.9-2.3c0.6-0.4,1.1-0.6,1.6-0.6c0.4,0,0.8,0.1,1.1,0.4
	c0.3,0.3,0.4,0.7,0.4,1.2c0,0.5-0.1,0.9-0.4,1.2c-0.3,0.3-0.6,0.4-0.9,0.4c-0.4,0-0.8-0.1-1.1-0.4c-0.3-0.3-0.5-0.4-0.5-0.5
	c-0.1,0-0.2-0.1-0.3-0.1c-0.2,0-0.4,0.1-0.7,0.3c-0.3,0.3-0.6,0.7-0.7,1.2c-0.3,0.8-0.4,1.6-0.4,2.5v2.6l0,0.7c0,0.5,0,0.7,0.1,0.9
	c0.1,0.2,0.2,0.4,0.4,0.5c0.2,0.1,0.5,0.2,1,0.2v0.4h-6v-0.4c0.5,0,0.8-0.2,1-0.4c0.2-0.2,0.3-0.8,0.3-1.8v-6.1c0-0.6,0-1-0.1-1.2
	c-0.1-0.2-0.2-0.4-0.3-0.5c-0.2-0.1-0.4-0.2-0.8-0.2v-0.4H179.9L179.9,49.2z"/>
<path fill="#FFFFFF" d="M191,58.7c-1.4,1.2-2.6,1.8-3.7,1.8c-0.6,0-1.2-0.2-1.6-0.6c-0.4-0.4-0.6-0.9-0.6-1.6c0-0.8,0.4-1.6,1.1-2.3
	c0.7-0.7,2.3-1.6,4.8-2.7v-1.1c0-0.8,0-1.4-0.1-1.6c-0.1-0.2-0.3-0.4-0.5-0.6c-0.3-0.2-0.5-0.3-0.9-0.3c-0.5,0-0.9,0.1-1.3,0.3
	c-0.2,0.1-0.3,0.3-0.3,0.5c0,0.2,0.1,0.4,0.3,0.6c0.3,0.3,0.5,0.7,0.5,1c0,0.4-0.1,0.7-0.4,1c-0.3,0.3-0.7,0.4-1.1,0.4
	c-0.5,0-0.9-0.2-1.3-0.5c-0.3-0.3-0.5-0.7-0.5-1.1c0-0.6,0.2-1.1,0.7-1.6c0.5-0.5,1.1-0.9,1.9-1.2c0.8-0.3,1.6-0.4,2.5-0.4
	c1.1,0,1.9,0.2,2.5,0.7c0.6,0.4,1,0.9,1.2,1.5c0.1,0.3,0.2,1.1,0.2,2.3v4.3c0,0.5,0,0.8,0.1,1c0,0.1,0.1,0.2,0.2,0.3
	c0.1,0.1,0.2,0.1,0.3,0.1c0.2,0,0.4-0.1,0.6-0.4l0.4,0.3c-0.4,0.6-0.8,1-1.2,1.3c-0.4,0.3-0.9,0.4-1.4,0.4c-0.6,0-1.1-0.1-1.5-0.4
	C191.3,59.8,191.1,59.3,191,58.7L191,58.7z M191,57.8v-3.7c-1,0.6-1.7,1.2-2.1,1.8c-0.3,0.4-0.5,0.9-0.5,1.3c0,0.4,0.1,0.7,0.4,1
	c0.2,0.2,0.5,0.3,0.8,0.3C190.1,58.5,190.5,58.3,191,57.8L191,57.8z"/>
<path fill="#FFFFFF" d="M200.7,44.2V58c0,0.8,0.1,1.3,0.3,1.5c0.2,0.2,0.5,0.3,1.1,0.4v0.4h-6v-0.4c0.5,0,0.9-0.2,1.1-0.4
	c0.2-0.2,0.2-0.7,0.2-1.5V46.5c0-0.8-0.1-1.3-0.3-1.5c-0.2-0.2-0.5-0.3-1.1-0.4v-0.4H200.7L200.7,44.2z"/>
<path fill="#FFFFFF" d="M205.8,43.8c0.5,0,1,0.2,1.3,0.5c0.4,0.4,0.5,0.8,0.5,1.3c0,0.5-0.2,0.9-0.5,1.3c-0.4,0.4-0.8,0.5-1.3,0.5
	c-0.5,0-0.9-0.2-1.3-0.5c-0.4-0.4-0.5-0.8-0.5-1.3c0-0.5,0.2-0.9,0.5-1.3C204.9,44,205.3,43.8,205.8,43.8L205.8,43.8z M207.5,49.2
	V58c0,0.8,0.1,1.3,0.3,1.5c0.2,0.2,0.5,0.3,1.1,0.4v0.4h-6v-0.4c0.5,0,0.9-0.2,1.1-0.4c0.2-0.2,0.2-0.7,0.2-1.5v-6.5
	c0-0.8-0.1-1.3-0.3-1.5c-0.2-0.2-0.5-0.3-1.1-0.4v-0.4H207.5L207.5,49.2z"/>
<path fill="#FFFFFF" d="M215.3,58.7c-1.4,1.2-2.6,1.8-3.7,1.8c-0.6,0-1.2-0.2-1.6-0.6c-0.4-0.4-0.6-0.9-0.6-1.6
	c0-0.8,0.4-1.6,1.1-2.3c0.7-0.7,2.3-1.6,4.8-2.7v-1.1c0-0.8,0-1.4-0.1-1.6c-0.1-0.2-0.3-0.4-0.5-0.6c-0.3-0.2-0.5-0.3-0.9-0.3
	c-0.5,0-0.9,0.1-1.3,0.3c-0.2,0.1-0.3,0.3-0.3,0.5c0,0.2,0.1,0.4,0.3,0.6c0.3,0.3,0.5,0.7,0.5,1c0,0.4-0.1,0.7-0.4,1
	c-0.3,0.3-0.7,0.4-1.1,0.4c-0.5,0-0.9-0.2-1.3-0.5c-0.3-0.3-0.5-0.7-0.5-1.1c0-0.6,0.2-1.1,0.7-1.6c0.5-0.5,1.1-0.9,1.9-1.2
	c0.8-0.3,1.6-0.4,2.5-0.4c1.1,0,1.9,0.2,2.5,0.7c0.6,0.4,1,0.9,1.2,1.5c0.1,0.3,0.2,1.1,0.2,2.3v4.3c0,0.5,0,0.8,0.1,1
	c0,0.1,0.1,0.2,0.2,0.3c0.1,0.1,0.2,0.1,0.3,0.1c0.2,0,0.4-0.1,0.6-0.4l0.4,0.3c-0.4,0.6-0.8,1-1.2,1.3c-0.4,0.3-0.9,0.4-1.4,0.4
	c-0.6,0-1.1-0.1-1.5-0.4C215.6,59.8,215.4,59.3,215.3,58.7L215.3,58.7z M215.3,57.8v-3.7c-1,0.6-1.7,1.2-2.1,1.8
	c-0.3,0.4-0.5,0.9-0.5,1.3c0,0.4,0.1,0.7,0.4,1c0.2,0.2,0.5,0.3,0.8,0.3C214.3,58.5,214.8,58.3,215.3,57.8L215.3,57.8z"/>
<path fill="#FFFFFF" d="M224.9,49.2v1.4c0.6-0.6,1.1-1.1,1.6-1.3c0.5-0.3,1.1-0.4,1.7-0.4c0.7,0,1.3,0.2,1.8,0.6
	c0.5,0.4,0.8,0.9,1,1.5c0.1,0.5,0.2,1.3,0.2,2.6v4.3c0,0.9,0.1,1.4,0.2,1.6c0.2,0.2,0.5,0.3,1,0.4v0.4h-5.6v-0.4
	c0.4-0.1,0.7-0.2,0.9-0.5c0.1-0.2,0.2-0.7,0.2-1.5V53c0-0.9,0-1.5-0.1-1.7c-0.1-0.2-0.2-0.4-0.4-0.5c-0.2-0.1-0.4-0.2-0.6-0.2
	c-0.7,0-1.3,0.5-1.9,1.5v6c0,0.8,0.1,1.4,0.2,1.6c0.2,0.2,0.4,0.4,0.9,0.4v0.4h-5.6v-0.4c0.5,0,0.8-0.2,1-0.5
	c0.1-0.2,0.2-0.7,0.2-1.5v-6.3c0-0.8-0.1-1.4-0.2-1.6c-0.1-0.2-0.5-0.3-1-0.4v-0.4H224.9L224.9,49.2z"/>
<path fill="#FFFFFF" d="M254.3,43.9v5.7h-0.4c-0.5-1.6-1.3-2.7-2.4-3.5c-1.1-0.8-2.2-1.2-3.5-1.2c-1.2,0-2.2,0.3-3,1
	c-0.8,0.7-1.4,1.6-1.7,2.8c-0.3,1.2-0.5,2.5-0.5,3.7c0,1.5,0.2,2.9,0.5,4.1c0.4,1.2,1,2,1.8,2.6c0.8,0.5,1.8,0.8,2.9,0.8
	c0.4,0,0.8,0,1.2-0.1c0.4-0.1,0.8-0.2,1.3-0.4V56c0-0.6,0-1-0.1-1.2c-0.1-0.2-0.3-0.4-0.5-0.5c-0.3-0.2-0.6-0.2-1-0.2h-0.4v-0.4h7.8
	V54c-0.6,0-1,0.1-1.2,0.2c-0.2,0.1-0.4,0.3-0.5,0.6c-0.1,0.2-0.1,0.5-0.1,1.1v3.4c-1,0.5-2.1,0.8-3.2,1c-1.1,0.2-2.3,0.4-3.5,0.4
	c-1.5,0-2.8-0.2-3.8-0.6c-1-0.4-1.9-1-2.7-1.6c-0.8-0.7-1.4-1.4-1.8-2.3c-0.6-1.1-0.8-2.3-0.8-3.7c0-2.4,0.9-4.5,2.6-6.2
	c1.7-1.7,3.9-2.5,6.4-2.5c0.8,0,1.5,0.1,2.2,0.2c0.3,0.1,0.9,0.2,1.7,0.5c0.8,0.3,1.2,0.4,1.4,0.4c0.2,0,0.4-0.1,0.6-0.2
	c0.2-0.2,0.4-0.5,0.5-0.9H254.3L254.3,43.9z"/>
<path fill="#FFFFFF" d="M262,48.9c1,0,1.9,0.2,2.7,0.7c0.8,0.5,1.5,1.2,1.9,2.1c0.4,0.9,0.7,1.9,0.7,3c0,1.6-0.4,2.9-1.2,4
	c-1,1.3-2.3,1.9-4,1.9c-1.7,0-3-0.6-3.9-1.8c-0.9-1.2-1.4-2.5-1.4-4.1c0-1.6,0.5-3,1.4-4.2C259.1,49.5,260.4,48.9,262,48.9L262,48.9
	z M262.1,49.7c-0.4,0-0.8,0.2-1,0.5c-0.3,0.3-0.5,0.9-0.6,1.8c-0.1,0.9-0.1,2.1-0.1,3.7c0,0.8,0.1,1.6,0.2,2.4
	c0.1,0.6,0.3,1,0.6,1.3c0.3,0.3,0.6,0.4,1,0.4c0.4,0,0.7-0.1,0.9-0.3c0.3-0.3,0.5-0.6,0.6-1.1c0.2-0.8,0.2-2.3,0.2-4.6
	c0-1.3-0.1-2.3-0.2-2.8c-0.2-0.5-0.4-0.9-0.7-1.1C262.7,49.8,262.4,49.7,262.1,49.7L262.1,49.7z"/>
<path fill="#FFFFFF" d="M272.5,60.7l-3.8-8.6c-0.5-1-0.8-1.7-1.1-2c-0.2-0.2-0.5-0.3-0.8-0.4v-0.4h5.9v0.4c-0.4,0-0.6,0.1-0.8,0.2
	c-0.2,0.2-0.3,0.4-0.3,0.6c0,0.3,0.2,0.8,0.5,1.7l1.8,4.2l1.5-3.6c0.4-1,0.6-1.8,0.6-2.2c0-0.2-0.1-0.4-0.3-0.6
	c-0.2-0.2-0.5-0.2-0.9-0.3v-0.4h3.6v0.4c-0.3,0-0.6,0.2-0.9,0.4c-0.2,0.2-0.6,0.8-1,1.9l-3.7,8.7H272.5L272.5,60.7z"/>
<path fill="#FFFFFF" d="M287.4,54.4h-6.1c0.1,1.5,0.5,2.6,1.2,3.5c0.5,0.7,1.2,1,2,1c0.5,0,0.9-0.1,1.3-0.4c0.4-0.3,0.8-0.8,1.2-1.4
	l0.4,0.3c-0.6,1.2-1.3,2.1-2,2.6c-0.7,0.5-1.6,0.8-2.5,0.8c-1.7,0-2.9-0.6-3.7-1.9c-0.7-1-1-2.3-1-3.8c0-1.9,0.5-3.3,1.5-4.4
	c1-1.1,2.2-1.7,3.5-1.7c1.1,0,2.1,0.5,2.9,1.4C286.9,51.2,287.3,52.6,287.4,54.4L287.4,54.4z M284.5,53.6c0-1.3-0.1-2.2-0.2-2.6
	c-0.1-0.5-0.3-0.8-0.6-1.1c-0.2-0.1-0.4-0.2-0.7-0.2c-0.4,0-0.8,0.2-1,0.6c-0.5,0.7-0.7,1.7-0.7,2.9v0.4H284.5L284.5,53.6z"/>
<path fill="#FFFFFF" d="M292.7,49.2v2.5c0.7-1.1,1.4-1.9,1.9-2.3c0.6-0.4,1.1-0.6,1.6-0.6c0.4,0,0.8,0.1,1.1,0.4
	c0.3,0.3,0.4,0.7,0.4,1.2c0,0.5-0.1,0.9-0.4,1.2c-0.3,0.3-0.6,0.4-0.9,0.4c-0.4,0-0.8-0.1-1.1-0.4c-0.3-0.3-0.5-0.4-0.5-0.5
	c-0.1,0-0.2-0.1-0.3-0.1c-0.2,0-0.4,0.1-0.7,0.3c-0.3,0.3-0.6,0.7-0.7,1.2c-0.3,0.8-0.4,1.6-0.4,2.5v2.6l0,0.7c0,0.5,0,0.7,0.1,0.9
	c0.1,0.2,0.2,0.4,0.4,0.5c0.2,0.1,0.5,0.2,1,0.2v0.4h-6v-0.4c0.5,0,0.8-0.2,1-0.4c0.2-0.2,0.3-0.8,0.3-1.8v-6.1c0-0.6,0-1-0.1-1.2
	c-0.1-0.2-0.2-0.4-0.3-0.5c-0.2-0.1-0.4-0.2-0.8-0.2v-0.4H292.7L292.7,49.2z"/>
<path fill="#FFFFFF" d="M302.9,49.2v1.4c0.6-0.6,1.1-1.1,1.6-1.3c0.5-0.3,1.1-0.4,1.7-0.4c0.7,0,1.3,0.2,1.8,0.6
	c0.5,0.4,0.8,0.9,1,1.5c0.1,0.5,0.2,1.3,0.2,2.6v4.3c0,0.9,0.1,1.4,0.2,1.6c0.2,0.2,0.5,0.3,1,0.4v0.4h-5.6v-0.4
	c0.4-0.1,0.7-0.2,0.9-0.5c0.1-0.2,0.2-0.7,0.2-1.5V53c0-0.9,0-1.5-0.1-1.7c-0.1-0.2-0.2-0.4-0.4-0.5c-0.2-0.1-0.4-0.2-0.6-0.2
	c-0.7,0-1.3,0.5-1.9,1.5v6c0,0.8,0.1,1.4,0.2,1.6c0.2,0.2,0.4,0.4,0.9,0.4v0.4h-5.6v-0.4c0.5,0,0.8-0.2,1-0.5
	c0.1-0.2,0.2-0.7,0.2-1.5v-6.3c0-0.8-0.1-1.4-0.2-1.6c-0.2-0.2-0.5-0.3-1-0.4v-0.4H302.9L302.9,49.2z"/>
<path fill="#FFFFFF" d="M315.8,49.2v1.5c0.6-0.7,1.2-1.1,1.7-1.4c0.5-0.3,1.1-0.4,1.7-0.4c0.7,0,1.3,0.2,1.8,0.5
	c0.5,0.3,0.9,0.8,1.1,1.5c0.6-0.7,1.2-1.2,1.8-1.5c0.6-0.3,1.2-0.5,1.8-0.5c0.8,0,1.4,0.2,1.8,0.5c0.5,0.3,0.8,0.8,1,1.3
	c0.2,0.5,0.3,1.4,0.3,2.6v4.6c0,0.9,0.1,1.4,0.2,1.6c0.2,0.2,0.5,0.3,1,0.4v0.4h-5.7v-0.4c0.5,0,0.8-0.2,1-0.5
	c0.1-0.2,0.2-0.7,0.2-1.5v-4.8c0-1,0-1.6-0.1-1.9c-0.1-0.3-0.2-0.5-0.4-0.6c-0.2-0.1-0.4-0.2-0.6-0.2c-0.3,0-0.7,0.1-1,0.4
	c-0.4,0.2-0.7,0.6-1.1,1.1v6c0,0.8,0.1,1.3,0.2,1.5c0.2,0.3,0.5,0.5,1,0.5v0.4h-5.8v-0.4c0.3,0,0.6-0.1,0.7-0.2
	c0.2-0.1,0.3-0.3,0.4-0.5c0.1-0.2,0.1-0.6,0.1-1.3v-4.8c0-1,0-1.6-0.1-1.9c-0.1-0.3-0.2-0.5-0.4-0.6c-0.2-0.1-0.4-0.2-0.6-0.2
	c-0.3,0-0.6,0.1-0.9,0.2c-0.4,0.2-0.8,0.7-1.2,1.3v6c0,0.8,0.1,1.3,0.2,1.6c0.2,0.2,0.5,0.4,1,0.4v0.4h-5.7v-0.4
	c0.5,0,0.8-0.2,1-0.5c0.1-0.2,0.2-0.7,0.2-1.5v-6.3c0-0.8-0.1-1.4-0.2-1.6c-0.1-0.2-0.5-0.3-1-0.4v-0.4H315.8L315.8,49.2z"/>
<path fill="#FFFFFF" d="M340,54.4h-6.1c0.1,1.5,0.5,2.6,1.2,3.5c0.5,0.7,1.2,1,2,1c0.5,0,0.9-0.1,1.3-0.4c0.4-0.3,0.8-0.8,1.2-1.4
	l0.4,0.3c-0.6,1.2-1.3,2.1-2,2.6c-0.7,0.5-1.6,0.8-2.5,0.8c-1.6,0-2.9-0.6-3.7-1.9c-0.7-1-1-2.3-1-3.8c0-1.9,0.5-3.3,1.5-4.4
	c1-1.1,2.2-1.7,3.5-1.7c1.1,0,2.1,0.5,2.9,1.4C339.4,51.2,339.9,52.6,340,54.4L340,54.4z M337,53.6c0-1.3-0.1-2.2-0.2-2.6
	c-0.1-0.5-0.3-0.8-0.6-1.1c-0.2-0.1-0.4-0.2-0.7-0.2c-0.4,0-0.8,0.2-1,0.6c-0.5,0.7-0.7,1.7-0.7,2.9v0.4H337L337,53.6z"/>
<path fill="#FFFFFF" d="M344.9,49.2v1.4c0.6-0.6,1.1-1.1,1.6-1.3c0.5-0.3,1.1-0.4,1.7-0.4c0.7,0,1.3,0.2,1.8,0.6
	c0.5,0.4,0.8,0.9,1,1.5c0.1,0.5,0.2,1.3,0.2,2.6v4.3c0,0.9,0.1,1.4,0.2,1.6c0.2,0.2,0.5,0.3,1,0.4v0.4h-5.6v-0.4
	c0.4-0.1,0.7-0.2,0.9-0.5c0.1-0.2,0.2-0.7,0.2-1.5V53c0-0.9,0-1.5-0.1-1.7c-0.1-0.2-0.2-0.4-0.4-0.5c-0.2-0.1-0.4-0.2-0.6-0.2
	c-0.7,0-1.3,0.5-1.9,1.5v6c0,0.8,0.1,1.4,0.2,1.6c0.2,0.2,0.4,0.4,0.9,0.4v0.4h-5.6v-0.4c0.5,0,0.8-0.2,1-0.5
	c0.1-0.2,0.2-0.7,0.2-1.5v-6.3c0-0.8-0.1-1.4-0.2-1.6c-0.2-0.2-0.5-0.3-1-0.4v-0.4H344.9L344.9,49.2z"/>
<path fill="#FFFFFF" d="M357.1,45.2v4.1h2.6v1.2h-2.6v6.9c0,0.6,0,1.1,0.1,1.2c0.1,0.2,0.2,0.3,0.3,0.5c0.1,0.1,0.3,0.2,0.4,0.2
	c0.5,0,1-0.4,1.5-1.2l0.4,0.3c-0.6,1.5-1.7,2.3-3.1,2.3c-0.7,0-1.3-0.2-1.8-0.6c-0.5-0.4-0.8-0.8-0.9-1.3c-0.1-0.3-0.1-1-0.1-2.2v-6
	h-1.5V50c1-0.7,1.8-1.4,2.5-2.2c0.7-0.8,1.3-1.6,1.8-2.6H357.1L357.1,45.2z"/>
<path fill="#FFFFFF" d="M40.1,69.9c-0.1,0.1-0.2,0.2-0.3,0.3"/>
<path fill="#FFFFFF" d="M42.9,48.1c0.3,0,0.6-0.3,0.6-0.6c0-0.3-0.3-0.6-0.6-0.6c-0.3,0-0.6,0.3-0.6,0.6
	C42.3,47.9,42.6,48.1,42.9,48.1L42.9,48.1z"/>
<path fill="#FFFFFF" d="M69.9,23.5L69.9,23.5l-21,0v0h0l0,17c0,1.6,0.7,3.1,1.6,3.5l8.1,4.8c0.2,0.2,0.4,0.3,0.7,0.3
	c0.3,0,0.5-0.1,0.7-0.3l8.2-4.9c1-0.4,1.6-1.9,1.6-3.5L69.9,23.5L69.9,23.5L69.9,23.5z M55.9,28.4h-1.8v-4.3h1.8V28.4L55.9,28.4z
	 M54.6,29.9l0.3-0.3l-0.2-0.3l0.3,0l0.2-0.4l0.2,0.4l0.3,0l-0.2,0.3l0.3,0.3L55.5,30v0.4l-0.3-0.2l-0.3,0.2V30L54.6,29.9L54.6,29.9z
	 M49.5,35.3v-4.1h2.2v4.1H49.5L49.5,35.3z M49.9,29.4l0.3,0l0.2-0.4l0.2,0.4l0.3,0l-0.2,0.3l0.3,0.3L50.7,30v0.4l-0.3-0.2l-0.3,0.2
	V30l-0.3-0.1l0.3-0.3L49.9,29.4L49.9,29.4z M52.3,33.6l0.3,0l0.2-0.4l0.2,0.4l0.3,0l-0.2,0.3l0.3,0.3l-0.3,0.1v0.4l-0.3-0.2
	l-0.3,0.2v-0.4l-0.3-0.1l0.3-0.3L52.3,33.6L52.3,33.6z M53.8,30.2c0-0.1-0.2-0.1-0.2-0.1c-0.2,0-0.3,0.3-0.4,0.3
	c-0.1,0-0.2,0-0.2-0.1c0-0.1,0.3-0.2,0.3-0.3c-1.4,0-1.4,0.6-1.6,0.6c-0.4,0,0.3-0.7,0.5-0.8c-0.3,0-0.4-0.4-0.7-0.6
	c0.1-0.2,0.2-0.1,0.4,0c0-0.1,0.1-0.3,0.4-0.3c0.6,0,0.4,0.6,0.5,0.6c0.1,0,0-0.6,0.4-0.6c0.6,0,1.4,1.6,0.7,1.6
	C53.6,30.5,53.8,30.3,53.8,30.2L53.8,30.2z M52.2,25.7l0.3-0.3l-0.2-0.3l0.3,0l0.2-0.4l0.2,0.4l0.3,0l-0.2,0.3l0.3,0.3l-0.3,0.1v0.4
	l-0.3-0.2l-0.3,0.2v-0.4L52.2,25.7L52.2,25.7z M51.7,24.1v4.3h-2.2v-4.3H51.7L51.7,24.1z M55.9,46.5l-5-3c-0.8-0.6-1.3-1.6-1.4-2.8
	v-4.8h6.4V46.5L55.9,46.5z M54.1,35.3v-4.1h1.8v4.1H54.1L54.1,35.3z M62.3,46.8L60,48.2h0c-0.2,0.1-0.4,0.2-0.6,0.2
	c-0.2,0-0.5-0.1-0.6-0.2l-2.3-1.4V35.9h5.9V46.8L62.3,46.8z M62.3,35.3h-5.9V24.1h5.9V35.3L62.3,35.3z M69.3,40.7
	c-0.1,1.2-0.5,2.2-1.4,2.8l-5,3V35.9h6.4V40.7L69.3,40.7z M69.3,35.3h-6.4V24.1h6.4V35.3L69.3,35.3z"/>
<path fill="#FFFFFF" d="M55.5,39.8c0-0.1-0.8,0.3-0.6,0.2c0-0.2,0.4-0.7,0.6-0.9c0-0.3-0.4,0-0.7,0.2c1.2-1.7,0.4-1-0.2-0.9
	c1.1-1.1,0.8-1.1,0-0.8c0.6-0.5,0.8-1.1,0.7-1.2c-0.6,0.8-1.1,0.7-1.1,1.4c0,0.5-0.2,1.2-0.4,1.5c-0.3,0.3-0.1-1.3-0.9-1.3
	c-0.3,0-0.9,0-1.1,0.3c0.2,0,0.4,0.4,0.4,0.6c0,0.2,0.2,0.6-0.1,0.6c-0.3,0-0.6-0.6-0.6-0.9c0-0.3,0-0.2,0-0.6
	c0-0.7-1.1-1.6-1.6-1.6c0,0.5,0.6,0.6,0.6,1.2c-0.3,0-0.6-0.5-0.6-0.2c0,0.3,0.4,0.4,0.4,0.6c0,0.3-0.4-0.1-0.4,0.2
	c0,0.2,0.2,0.2,0.3,0.4c-0.2,0-0.3,0-0.4,0.1c0,0.1,0.1,0.2,0.2,0.3c-0.1,0.1-0.1,0.2-0.1,0.6c0,1.3,0.8,2,1.5,2
	c0.4,0,0.4-0.3,0.4-0.5c0,0.2,0.2-0.1,0.2,0.3c0,0.4-0.4,0.2-0.4,0.6c0,0.5,0.7,0,0.7,0.5c0,0.6-0.1,0.6-0.1,0.9
	c0,0.2,0.7-0.2,0.7-0.3c0.2,0.1,0.2,0.6,0.5,0.5c0.2,0,0.2-0.5,0.4-0.6c-0.1,0,0.6,0.5,0.6,0.2c0-0.6-0.3-0.4-0.3-0.8
	c0-0.4,0.9-0.3,0.7-0.5c-0.1-0.2-0.2-0.1-0.3-0.4c0,0.1-0.7-1,0.1-0.5C55.5,41.8,55.6,39.9,55.5,39.8L55.5,39.8z"/>
<path fill="#FFFFFF" d="M77.9,44.2c0.4,0,0.7-0.3,0.7-0.6c0-0.3-0.3-0.6-0.7-0.6c-0.4,0-0.7,0.3-0.7,0.6
	C77.2,44,77.5,44.2,77.9,44.2L77.9,44.2z"/>
<path fill="#FFFFFF" d="M75.1,45.9c0.4,0,0.7-0.3,0.7-0.6c0-0.3-0.3-0.6-0.7-0.6c-0.4,0-0.7,0.3-0.7,0.6
	C74.4,45.6,74.8,45.9,75.1,45.9L75.1,45.9z"/>
<path fill="#FFFFFF" d="M42,49.7c0.4,0,0.7-0.3,0.7-0.6c0-0.3-0.3-0.6-0.7-0.6c-0.4,0-0.7,0.3-0.7,0.6C41.3,49.4,41.6,49.7,42,49.7
	L42,49.7z"/>
<path fill="#FFFFFF" d="M44.1,49.9c0.4,0,0.7-0.3,0.7-0.6c0-0.3-0.3-0.6-0.7-0.6c-0.4,0-0.7,0.3-0.7,0.6
	C43.4,49.6,43.7,49.9,44.1,49.9L44.1,49.9z"/>
<path fill="#FFFFFF" d="M103.8,20.9c1,1.2,1.2,3.2,0.5,4.6c-0.4,0-0.3-0.6-0.4-0.8c-0.7-1.4-1.3-3.1-0.7-4.6
	C103.8,20.1,103.6,20.7,103.8,20.9L103.8,20.9z"/>
<path fill="#FFFFFF" d="M16.2,22.6c-0.2,0.9-0.2,2.1,0,2.9c-0.2,0.2-0.1-0.2-0.3-0.1c-1.4-1-0.8-3.1-1.1-4.5
	c0.1-0.1,0.3-0.1,0.4-0.1C15.8,21.2,16,21.9,16.2,22.6L16.2,22.6z"/>
<path fill="#FFFFFF" d="M107,22.7c0.2,0.4-0.2,0.8-0.5,1c-0.3,0.1-0.7-0.1-0.9-0.4c-0.1-0.4,0.1-0.8,0.4-1
	C106.4,22.3,106.8,22.4,107,22.7L107,22.7z"/>
<path fill="#FFFFFF" d="M14,24.3c-0.1,0.3-0.2,0.7-0.5,0.8c-0.2,0-0.5,0-0.7-0.2c-0.2-0.2-0.3-0.5-0.1-0.8c0.1-0.3,0.4-0.3,0.7-0.3
	C13.6,24,13.9,24,14,24.3L14,24.3z"/>
<path fill="#FFFFFF" d="M108.4,25c0.1,0.2,0.1,0.4,0,0.6c-0.3,0.3-0.6,0.5-1,0.3c-0.3-0.1-0.3-0.4-0.4-0.6c0.1-0.3,0.4-0.6,0.6-0.7
	C108,24.6,108.2,24.8,108.4,25L108.4,25z"/>
<path fill="#FFFFFF" d="M106.3,25c0.3,0.1,0.1,0.5,0,0.7c-0.2,0.2-0.4,0.5-0.8,0.4c-0.2-0.2-0.4-0.2-0.5-0.4c0-0.4,0.1-0.7,0.5-0.8
	C105.9,24.7,106.1,24.9,106.3,25L106.3,25z"/>
<path fill="#FFFFFF" d="M103.7,25.6c0,0.4,0,0.9-0.4,1c-0.4,0.1-0.7-0.2-0.8-0.5c0-0.4,0.2-0.7,0.5-0.9
	C103.2,25.1,103.5,25.3,103.7,25.6L103.7,25.6z"/>
<path fill="#FFFFFF" d="M17.9,25.7c0.1,0.4-0.3,0.6-0.5,0.8c-0.3,0.1-0.6-0.1-0.7-0.4c-0.3-0.3,0.1-0.5,0.1-0.7
	C17.3,25.1,17.8,25.3,17.9,25.7L17.9,25.7z"/>
<path fill="#FFFFFF" d="M15.8,25.9c0,0.3-0.1,0.6-0.4,0.7c-0.3,0.1-0.6-0.1-0.7-0.3c-0.2-0.4,0-0.7,0.3-0.8
	C15.4,25.2,15.6,25.6,15.8,25.9L15.8,25.9z"/>
<path fill="#FFFFFF" d="M94.8,26c0.4,0.8,0.7,1.7,0.7,2.7c-0.1,0.7,0.1,1.6-0.4,2.1c-0.5-0.2-0.5-0.8-0.9-1.1
	c-0.7-1.3-0.1-2.8,0.1-4.1C94.7,25.4,94.7,25.8,94.8,26L94.8,26z"/>
<path fill="#FFFFFF" d="M14,26.4c0.1,0.4-0.2,0.7-0.5,0.9c-0.4,0.1-0.7-0.2-0.9-0.5c0-0.4,0.2-0.7,0.5-0.9
	C13.5,25.9,13.9,26.1,14,26.4L14,26.4z"/>
<path fill="#FFFFFF" d="M100.6,27.5c0.5,1.1,0.5,2.4,0.2,3.5l-0.2,0.2c-0.5-1-1.2-1.9-1.5-3c0-0.8,0.1-1.5,0.4-2.1
	c0.3-0.2,0.4,0,0.5,0.3C100,26.8,100.2,27.3,100.6,27.5L100.6,27.5z"/>
<path fill="#FFFFFF" d="M105.2,26.8c0,0.4-0.2,0.8-0.6,0.9c-0.4,0.1-0.7,0-0.8-0.4c-0.1-0.4,0.1-0.7,0.4-0.9
	C104.6,26.2,105,26.6,105.2,26.8L105.2,26.8z"/>
<path fill="#FFFFFF" d="M15.8,28c0,0.3-0.3,0.6-0.5,0.7c-0.3,0.2-0.5-0.1-0.8-0.3c-0.1-0.3-0.2-0.6,0-0.8c0.1-0.2,0.4-0.2,0.6-0.3
	C15.4,27.5,15.7,27.6,15.8,28L15.8,28z"/>
<path fill="#FFFFFF" d="M17.4,27.8c0.1,0.4-0.3,0.6-0.4,0.7c-0.4,0.1-0.7-0.2-0.8-0.4c-0.1-0.4,0.1-0.6,0.4-0.8
	C17,27.2,17.2,27.5,17.4,27.8L17.4,27.8z"/>
<path fill="#FFFFFF" d="M106.2,27.7c0,0.5-0.8,1-0.8,1.4c-0.4,1-1.3,1.7-2.3,2.1c-0.2,0.2-0.5,0.4-0.8,0.5c-0.1-0.7,0.6-1.4,1-2.1
	C104,28.6,105.1,28,106.2,27.7L106.2,27.7z"/>
<path fill="#FFFFFF" d="M15.1,29.2c0.5,0.6,0.8,1.2,1.5,1.7c0,0.1-0.1,0.4-0.3,0.4c-1.8-0.1-3-2-3.9-3.2c0.1-0.4,0.6-0.1,0.8-0.1
	C13.9,28.5,14.6,28.6,15.1,29.2L15.1,29.2z"/>
<path fill="#FFFFFF" d="M106.7,29.8c-0.1,1.6-0.8,3.2-2.3,4c-0.4,0.1-0.8,0.6-1.2,0.3c0.8-1.6,1.9-2.9,3.2-4.3H106.7L106.7,29.8z"/>
<path fill="#FFFFFF" d="M99.7,30.8c0.1,0.6-0.2,0.9-0.6,1.1c-0.4,0-0.7-0.3-0.8-0.6c0-0.4,0.2-0.7,0.5-0.8c0.1-0.1,0.3-0.1,0.4-0.1
	C99.4,30.5,99.5,30.6,99.7,30.8L99.7,30.8z"/>
<path fill="#FFFFFF" d="M13,31.2c0.7,0.5,1.3,1.1,2,1.7c-0.5,0.3-1.1,0-1.6,0c-1.2-0.4-2.1-1.5-3.4-1.9c0-0.4,0.5-0.3,0.8-0.4
	C11.6,30.6,12.3,31,13,31.2L13,31.2z"/>
<path fill="#FFFFFF" d="M52.3,20.2c-2.1-0.8-3.4,1.3-5.5,1.1c-0.3,0.1-0.2,0.4-0.3,0.6c-0.1,0.1-0.3,0-0.4,0
	c-0.1-0.9-0.4-1.7-0.5-2.5c-0.2-0.4-0.1-0.9-0.3-1.3c-1.2-3.2,2.9-0.8,3.7-2.7c0.7-1.6-1.4-1.8-2-3V12c-0.6-0.6-1.2-0.8-1.6-1.5
	c0.3-0.9,0.4-1.9,0.1-2.8c0-0.2-0.2-0.5-0.5-0.4c-0.7,1-1.2,1.7-1.9,2.7c-0.7-0.5-1.4-1.2-2.2-1.6c-0.6-0.1-1.1-0.6-1.7-0.4
	c-0.1,0.2,0,0.4,0.1,0.6c0,1.4,0.8,2.6,1.8,3.6l0.1,0.6c-0.7,1.5-0.5,3.2-0.7,4.9c-1.6,4.2-4.3,8.3-7.9,11.2
	c-2.1,2.4-4.6,4.6-4.9,7.9c-0.1,0.5,0.1,1.1-0.3,1.5c-1.2-0.4-2.4-1-3.4-1.8c-1.7-1.2-4.1-1-5.2-3.2c-0.4-0.8,0.1-1.7,0.5-2.3
	c1.2-1.2,1.1-3.3,0.4-4.7c-0.1,0-0.2,0.1-0.3,0.2c-0.1,2.2-1.8,3.7-1.2,6.1c0.1,0.7,0.5,1.1,0.7,1.8c-0.3-0.1-0.6-0.1-0.8-0.2
	c-0.8-0.1-1.6-0.4-2.5-0.3c-1.7,0.8-4-0.2-5.3,1.4c-0.2,0-0.5,0.1-0.4,0.4c0.8,0,1.6,0.2,2.4,0.2c1.3,0.2,2.1-0.8,3-1.3h0.2
	c0.4-0.4,1-0.1,1.5-0.2c2.3,0.3,4.1,1.4,6,2.5v0.1c-0.7,0.3-1.6,0.6-2.3,1c-0.8,0.6-1.8,1.4-2,2.5c-0.6,0.9,0.2,1.7,0.5,2.5
	c0,0.4,0.1,0.8,0.4,1c1.2-1.3,0.1-2.8,0.3-4.2c0.3-1.1,1.3-1.6,2.4-1.9c2.1-0.9,3.6,0.8,5.3,1.8c0,1.7,0.2,3.3-0.2,5
	c-0.5,0.2-1.2,0.3-1.7,0.3c-2.9,0.2-5.2,1.8-7.8,2.7c-1.2,0.4-2.6,0.4-3.7,0.8c0.9,0.3,1.9-0.1,2.8-0.1c3.6-0.5,6.3-3.3,10.2-2.8
	l0.1,0.1c-0.4,0.9-1,1.7-1.7,2.4c-0.1-0.4-0.1-0.7-0.5-1c-0.3-0.1-0.6,0-0.8,0.3c-0.1,0.2-0.1,0.4,0,0.6c0.2,0.3,0.5,0.4,0.8,0.5
	c-0.1,0.3-0.5,0.5-0.7,0.8c-1,1.7-3.1,1-4.3,2.2c-0.2,0.3-0.8,0.4-0.5,0.8c1.4,0.1,2.7-0.2,3.8-1c1.4-1.5,2.8-2.9,4.1-4.4
	c0.2,1.2-0.1,2.4-0.8,3.4c-0.3-0.2-0.6-0.4-1-0.6c-0.4,0.1-0.6,0.4-0.7,0.7c0.1,0.3,0.3,0.6,0.5,0.7c-1.2,0.9-2.8,1-4.2,1.4
	c-2.7,0.3-5.3,0.6-8,0.6c-1.3-0.1-2.7,0.4-4,0c-1.4,0.3-2.9-0.2-4,0.6c-0.1,0.2,0,0.4,0,0.5c1.7,1.1,4,0.2,5.9,0.6h14.4
	c1.1,0,2.1-0.1,3-0.6c1.9-1.1,2.9-3,3.8-4.9c0.4-0.7,0.6-1.4,0.8-2.2c0.4-1.3,1.5-2.1,2.7-2.2c0.2,1.9-0.2,3.8-0.6,5.6
	c-0.2,1.2-1,2.3-0.5,3.6c0.1,0.6,0.7,0.6,1.2,0.7c4.4-0.1,8.9-0.3,13.5,0.1c0.8,0.1,1.6,0.4,2.5,0.4c0.1-0.1,0.3-0.1,0.2-0.4
	c-0.1-0.4-0.4-0.9-0.9-1c-0.1-0.2-0.4-0.1-0.5-0.3c-2.3-1.3-5.2-0.6-7.9-0.6c-1.4,0.2-2.9,0.4-4.1-0.4c-0.5-0.7-0.1-2.8-0.1-2.8
	c0-0.8,2-6.6,2.3-7.1c0.1-0.6,0.3-1.1,0.2-1.7c0.3-0.7,0.2-1.7,0.2-2.5c0.1-1.2,0.7-2.3,1.1-3.4c0.2-0.6,0.4-1.1,0.6-1.7
	c0.2-0.7,0.3-1.4,0.7-1.9c1.2,0.8,2.4,0.7,2.9,2.1l0.5,3.1c0,0.2,0.1,0.6,0.4,0.3c1-0.6,0.7-2,0.7-3c0.2-1.1-0.6-1.7-0.9-2.7
	c-0.3-0.2-0.7-1.1-0.7-1.1c-0.1-0.8-1.9-1.4-1.5-2.4c0.2-0.8,0.4-1.6,1.2-2.1c0.1,0.1,0.2,0.2,0.2,0.3l0.4-0.3l0-3.1
	c1.2,0,3,0.1,4.2,0.1c0.3,0.1,0.6,0.4,1,0.4l0.3-0.4l3-0.6C54.2,21.7,53.5,20.2,52.3,20.2L52.3,20.2z"/>
<path fill="#FFFFFF" d="M55.5,21.6c0.1,0,0.2,0,0.3-0.1L55.5,21.6L55.5,21.6z"/>
<path fill="#FFFFFF" d="M23.6,31.8c0,0.4-0.2,0.7-0.5,0.8c-0.3-0.1-0.5-0.1-0.7-0.4c-0.1-0.4,0.2-0.7,0.5-0.8
	C23.1,31.5,23.5,31.5,23.6,31.8L23.6,31.8z"/>
<path fill="#FFFFFF" d="M21.2,31.8c0.2,0.2,0.3,0.6,0.1,0.8c-0.3,0.2-0.7,0.4-0.9,0.1c-0.2-0.2-0.4-0.5-0.3-0.8
	C20.5,31.7,20.9,31.5,21.2,31.8L21.2,31.8z"/>
<path fill="#FFFFFF" d="M72.2,32.2C72.2,32.2,72.2,32.3,72.2,32.2"/>
<path fill="#FFFFFF" d="M100.1,32.9c0.1,0.4-0.2,0.7-0.5,0.8c-0.4-0.1-0.8-0.2-0.8-0.7c0-0.3,0.3-0.5,0.5-0.6
	C99.6,32.4,99.9,32.6,100.1,32.9L100.1,32.9z"/>
<path fill="#FFFFFF" d="M102,32.8c0.1,0.2,0.4,0.5,0.1,0.7c-0.1,0.1-0.3,0.1-0.4,0.3c-0.4,0.1-0.8-0.1-0.9-0.4
	c-0.1-0.4,0.3-0.6,0.5-0.8C101.6,32.4,101.8,32.6,102,32.8L102,32.8z"/>
<path fill="#FFFFFF" d="M12,33.2c-0.1,0.4-0.5,0.6-1,0.5c-0.1-0.1-0.2-0.3-0.3-0.5c0-0.3,0.1-0.5,0.4-0.6
	C11.6,32.6,11.9,32.8,12,33.2L12,33.2z"/>
<path fill="#FFFFFF" d="M24.4,33.9c0,0.3-0.4,0.6-0.6,0.7c-0.4,0-0.6-0.3-0.8-0.5c0-0.3,0.1-0.7,0.4-0.7
	C23.8,33.1,24.2,33.4,24.4,33.9L24.4,33.9z"/>
<path fill="#FFFFFF" d="M22.2,33.6c0.1,0.1,0.2,0.4,0.1,0.6c-0.2,0.2-0.5,0.5-0.9,0.3c-0.2-0.2-0.5-0.3-0.4-0.7
	c0.1-0.1,0.3-0.4,0.5-0.4C21.8,33.3,22,33.4,22.2,33.6L22.2,33.6z"/>
<path fill="#FFFFFF" d="M107.6,34c0,0.3-0.3,0.6-0.5,0.7c-0.3,0.1-0.6,0-0.8-0.2c-0.2-0.1-0.1-0.4-0.1-0.6c0.2-0.3,0.4-0.4,0.7-0.5
	C107.2,33.6,107.4,33.8,107.6,34L107.6,34z"/>
<path fill="#FFFFFF" d="M109.9,34.4c-0.1,0.3-0.4,0.6-0.7,0.7c-0.2,0-0.6-0.1-0.5-0.4c0-0.3,0.1-0.5,0.3-0.6
	C109.4,33.8,109.8,34,109.9,34.4L109.9,34.4z"/>
<path fill="#FFFFFF" d="M16.2,34.9c0.1,0.4-0.1,0.7-0.4,0.9c-0.3,0.1-0.5,0-0.7-0.2c-0.2-0.2-0.3-0.5-0.2-0.7
	c0.1-0.3,0.4-0.3,0.6-0.4C15.8,34.5,16,34.6,16.2,34.9L16.2,34.9z"/>
<path fill="#FFFFFF" d="M18,35.2c0.1,0.3-0.2,0.4-0.3,0.6c-0.2,0.1-0.4,0.2-0.7,0.1c-0.3-0.2-0.5-0.6-0.3-0.9
	C17,34.5,17.8,34.8,18,35.2L18,35.2z"/>
<path fill="#FFFFFF" d="M105.4,35c0,0.4-0.3,0.6-0.5,0.8c-0.3,0.1-0.7-0.1-0.7-0.4c0-0.3,0.1-0.5,0.4-0.7
	C104.9,34.7,105.3,34.7,105.4,35L105.4,35z"/>
<path fill="#FFFFFF" d="M108.4,35.6c-0.1,0.3,0,0.7-0.4,0.9c-0.3,0.1-0.7,0-0.9-0.1c-0.2-0.2-0.3-0.5-0.1-0.8
	c0.2-0.3,0.5-0.5,0.9-0.4C108.2,35.3,108.2,35.5,108.4,35.6L108.4,35.6z"/>
<path fill="#FFFFFF" d="M14.8,36.4c0.1,0.3-0.2,0.4-0.3,0.5c-0.3,0.1-0.5,0-0.7-0.1c-0.3-0.1-0.1-0.5-0.1-0.7
	C14,35.5,14.7,36,14.8,36.4L14.8,36.4z"/>
<path fill="#FFFFFF" d="M106.1,37.1c0.1,0,0.1,0.3,0,0.3c-0.9,0.4-2.2,0.6-3-0.1c-0.4-0.4-1-0.5-1.5-0.8c0.2-0.5,0.8-0.4,1.3-0.6
	C104.1,36.1,105,37.1,106.1,37.1L106.1,37.1z"/>
<path fill="#FFFFFF" d="M16.6,36.8c0.1,0.3-0.1,0.4-0.2,0.6c-0.1,0.2-0.4,0.1-0.6,0.1c-0.3-0.2-0.5-0.6-0.3-0.9
	C15.9,36.1,16.3,36.4,16.6,36.8L16.6,36.8z"/>
<path fill="#FFFFFF" d="M19.8,37c0.1,0.3-0.1,0.6-0.4,0.8c-0.3,0.1-0.5-0.1-0.7-0.1c-0.2-0.3-0.5-0.6-0.2-0.8
	C18.9,36.3,19.5,36.6,19.8,37L19.8,37z"/>
<path fill="#FFFFFF" d="M62.1,38.5c-0.1,0.7-1.3-0.1-1.1,0.9c0.2,0.7,0.3,1.5,0.7,2.1c0.3,0.5,0.2,1.3,0.1,1.9
	c-0.3,0.5-0.8,0.9-1.4,1.2c-1-0.1-2.6,0.5-3.1-0.8c-0.2-0.6-0.6-1.1-0.6-1.8c0.1-0.1,0.2-0.1,0.3-0.2c0-0.2-0.3-0.4-0.2-0.6
	c1.2-0.2-0.5-1.3,0.5-1.3c0.8,0.9,2.2,0.6,2.9,1.5c0.2,0.1,0.3,0.4,0.5,0.5c-0.1-0.9-0.6-1.8-0.7-2.7c-0.1-0.5,0.1-0.9,0.4-1.2
	C61.2,37.5,61.8,38.2,62.1,38.5L62.1,38.5z"/>
<path fill="#FFFFFF" d="M23,38.3c0.1,0.4-0.2,0.6-0.4,0.8c-0.3,0.1-0.5-0.2-0.7-0.4c-0.1-0.4,0.1-0.6,0.4-0.7
	C22.6,37.9,22.9,38.1,23,38.3L23,38.3z"/>
<path fill="#FFFFFF" d="M45.6,38.7c0.4,1.4,0.3,2.9-0.4,4.1c0,0.3,0.1,0.8-0.3,0.7c-1-1.4-0.3-3.3,0.1-4.7
	C45,38.5,45.5,38.3,45.6,38.7L45.6,38.7z"/>
<path fill="#FFFFFF" d="M76.9,39.4c0.5,1,0.5,2.4,0.1,3.4l-0.3,0.3c-0.4-0.9-0.7-1.7-0.8-2.6c0.2-0.7,0.4-1.3,0.4-2
	C76.8,38.4,76.8,39.1,76.9,39.4L76.9,39.4z"/>
<path fill="#FFFFFF" d="M25.9,39.8c-0.2,0.4-0.8,0.6-1.2,0.8c-0.9,0.7-2.2,0.8-3.3,0.6c1-1.3,2.4-2.1,4.2-1.7
	C25.6,39.7,25.8,39.6,25.9,39.8L25.9,39.8z"/>
<path fill="#FFFFFF" d="M10.8,41.1c1.4,1,1.7,2.3,2.5,3.6c0.1,0.1,0.5,0.2,0.3,0.5c-0.3,0.2-0.6-0.2-1-0.1c-1.4-0.6-2.3-2.2-2.2-3.8
	C10.4,41.1,10.7,41.1,10.8,41.1L10.8,41.1z"/>
<path fill="#FFFFFF" d="M75.5,42.3c0,0.4,0,0.7-0.3,0.9c-0.4,0.1-0.7-0.1-0.8-0.4c-0.1-0.3,0.1-0.4,0.2-0.6
	C74.8,41.8,75.3,41.9,75.5,42.3L75.5,42.3z"/>
<path fill="#FFFFFF" d="M90.9,44.2c0-0.7,0.2-1.4,0.3-2c0.1-0.2,0.2-0.5,0.1-0.8c0.9-1.2,2.7-0.8,4.1-0.7c0.5,0.3,1.2,0.3,1.8,0.4
	c0.3-0.2,0.6-0.2,0.9-0.2c1.2-0.6,0.4-2,0.5-3.1l-0.4-1.1c-0.1-0.2-0.2-0.5-0.3-0.7c-0.2-0.3-0.4-0.7-0.6-1
	c-0.6-1.6-1.8-2.5-2.9-3.8c-1.9-2.4-4.8-3.8-7.7-4.8c-2.9-1-5.8,0.3-8.4,1.2c-0.8-0.2-1.2-0.8-1.4-1.6c-0.1-1.4,0.1-2.8,0.7-3.9
	c0.1-0.9,0.7-1.6,1-2.5c0.7-2.1,1.4-4.1,1.5-6.3c0.1-1.4-1-2.3-2-2.9c-0.7-0.2-1.5-0.1-2,0.4c-0.5,1-1.5,1.7-2.4,2.1
	c-0.1,0.6,0.7,0.2,1,0.4c0.8,0.1,1.7-0.1,2.4,0.4c0.1,1.5-0.8,2.7-1.5,3.8c-1.2,1.8-2.6,3.7-3.3,5.8L72,23.3l0.2,9
	c1.2,1.9,2.6,4.2,4.8,4.9c1.2,1,2.6,2.1,4.2,1.3c0.8-0.3,0.9,0.9,1.3,1.4c0.4,1.4-0.5,2.3-0.6,3.6l-1,2c-1.1,2.1-2.1,4.4-3.8,6.2
	c-0.6,0-0.9,0.6-1.4,0.6c-0.3,0.4-0.9,0.1-1.2,0.3c-1.1,0.5-2.7,0.2-3.5,1.3c0.1,0.1,0.2,0.1,0.3,0.2c2.2,0,4.7,0.2,7.1,0.1
	c0.3-0.1,0.6-0.4,0.6-0.7c-0.3-0.6,0.1-1.2,0.4-1.7c0.2-0.9,0.8-1.4,1-2.3c0.8-1.5,1.6-3,2.5-4.5l1.1-1.8c0.3-0.6,0.7-1.4,1.1-2.1
	c0.3-0.3,0.4-0.6,0.7-1c0-0.4-0.1-0.5-0.4-0.8c0.3-0.3,0.7-0.2,1-0.3c0.9,0.6,1.9,1.4,2,2.4l0.3,1l0.1,0.4L88.9,44l0.1,1.1
	c0.2,1.8-0.1,3.6-0.3,5.4c-0.6,2.1-3.1,1.9-4.8,2.4c-0.4,0.3-1.3,0.1-1.3,0.9c2.1,0.4,4.6,0.2,6.9,0.1c0.4-0.1,0.4-0.5,0.6-0.8
	c0.1-0.5,0.5-0.9,0.4-1.4c-0.4-0.5,0-1.3-0.1-2c0.1-0.2,0.1-0.4,0-0.7c0.3-1.1,0.2-2.4,0.4-3.4L90.9,44.2L90.9,44.2z"/>
<path fill="#FFFFFF" d="M109,42.8c-1.2,1.7-2.4,3.5-4.5,4.1c-0.1,0-0.3,0.1-0.4-0.1c1.2-1.3,1.9-3.4,3.8-3.9
	C108.3,42.8,108.7,42.6,109,42.8L109,42.8z"/>
<path fill="#FFFFFF" d="M9,44.6c-0.2,0.1,0,0.5-0.4,0.5c-0.3,0.1-0.6,0-0.8-0.3C7.7,44.4,8.1,44,8.4,44C8.7,44.1,8.9,44.2,9,44.6
	L9,44.6z"/>
<path fill="#FFFFFF" d="M19.6,45.1c0.1,0.3-0.3,0.3-0.4,0.4c-1.5,0.6-3.1,0-4.2-1.1c0-0.1,0-0.3,0.1-0.3
	C16.6,44.5,18.3,44.2,19.6,45.1L19.6,45.1z"/>
<path fill="#FFFFFF" d="M11,44.6c0.1,0.1,0.1,0.4,0.1,0.6c-0.2,0.3-0.5,0.4-0.9,0.3C10,45.4,9.9,45.2,9.7,45c0-0.4,0.3-0.6,0.6-0.7
	C10.6,44.4,10.8,44.4,11,44.6L11,44.6z"/>
<path fill="#FFFFFF" d="M45.3,44.8c0.1,0.3-0.2,0.6-0.4,0.7c-0.3,0.1-0.6-0.1-0.8-0.3c-0.1-0.3,0-0.6,0.3-0.7
	C44.7,44.4,45.2,44.5,45.3,44.8L45.3,44.8z"/>
<path fill="#FFFFFF" d="M110.3,44.9c0.1,0.4-0.2,0.6-0.5,0.8c-0.2,0.1-0.5,0-0.7-0.1c0-0.2-0.3-0.3-0.2-0.6c0.1-0.3,0.5-0.5,0.8-0.4
	C110,44.7,110.2,44.8,110.3,44.9L110.3,44.9z"/>
<path fill="#FFFFFF" d="M112.8,44.8c0.2,0.3,0,0.6-0.1,0.8c-0.1,0.3-0.4,0.3-0.7,0.2c-0.2-0.2-0.5-0.3-0.5-0.7
	c0-0.3,0.3-0.5,0.5-0.6C112.3,44.4,112.5,44.8,112.8,44.8L112.8,44.8z"/>
<path fill="#FFFFFF" d="M7.5,45.9c0,0.3-0.2,0.4-0.3,0.6c-0.2,0.1-0.4,0.2-0.6,0.1c-0.3-0.1-0.4-0.3-0.5-0.6
	c0.1-0.3,0.3-0.6,0.7-0.7C7,45.4,7.4,45.5,7.5,45.9L7.5,45.9z"/>
<path fill="#FFFFFF" d="M84.6,45.9c0.1,0.1,0,0.3,0,0.5c-0.2,0.3-0.5,0.6-0.9,0.4c-0.2-0.2-0.5-0.4-0.4-0.8
	C83.7,45.5,84.3,45.4,84.6,45.9L84.6,45.9z"/>
<path fill="#FFFFFF" d="M13.4,46.4c-0.1,0.3-0.2,0.5-0.5,0.6c-0.3,0-0.4-0.3-0.6-0.4c0-0.3,0-0.7,0.3-0.9
	C13,45.6,13.4,45.9,13.4,46.4L13.4,46.4z"/>
<path fill="#FFFFFF" d="M9.9,46.5c0.1,0.4-0.1,0.6-0.4,0.8c-0.4,0.1-0.8-0.2-1-0.5c0-0.3,0.3-0.7,0.7-0.8
	C9.5,45.9,9.7,46.3,9.9,46.5L9.9,46.5z"/>
<path fill="#FFFFFF" d="M87,46.4c0.1,0.4,0,0.7-0.4,0.9c-0.4,0.1-0.8-0.2-1-0.5c0.2-0.3,0.2-0.7,0.7-0.8C86.6,46,86.8,46.2,87,46.4
	L87,46.4z"/>
<path fill="#FFFFFF" d="M11.6,46.6c0.1,0.3-0.1,0.4-0.2,0.6c-0.2,0-0.3,0.2-0.5,0.1c-0.1-0.2-0.4-0.3-0.5-0.5c0-0.4,0.2-0.6,0.5-0.7
	C11.3,46,11.5,46.3,11.6,46.6L11.6,46.6z"/>
<path fill="#FFFFFF" d="M108.3,46.9c-0.1,0.3-0.3,0.4-0.6,0.6c-0.3,0.1-0.5-0.2-0.7-0.3c-0.2-0.1-0.1-0.5,0-0.7
	C107.3,45.9,108.3,46.2,108.3,46.9L108.3,46.9z"/>
<path fill="#FFFFFF" d="M111.1,47c-0.1,0.4-0.5,0.6-0.9,0.6c-0.3-0.1-0.7-0.4-0.4-0.8c0.1-0.1,0.2-0.3,0.4-0.3
	C110.7,46.3,111,46.6,111.1,47L111.1,47z"/>
<path fill="#FFFFFF" d="M93.7,47.3c0.2,0.5-0.3,0.6-0.5,0.8c-0.3,0-0.5-0.1-0.7-0.3c-0.1-0.4,0.1-0.8,0.5-1
	C93.3,46.9,93.5,47,93.7,47.3L93.7,47.3z"/>
<path fill="#FFFFFF" d="M83.7,47.7c0.2,0.1,0.1,0.3,0.1,0.4c-0.2,0.1-0.5,0.5-0.8,0.3c-0.3-0.2-0.4-0.4-0.4-0.7
	C82.7,47.3,83.5,47.3,83.7,47.7L83.7,47.7z"/>
<path fill="#FFFFFF" d="M85.7,48c0,0.3,0,0.4-0.3,0.6c-0.3,0.3-0.6,0-0.8-0.1c-0.1-0.2-0.1-0.4,0-0.6c0.1-0.1,0.3-0.3,0.5-0.3
	C85.3,47.7,85.6,47.7,85.7,48L85.7,48z"/>
<path fill="#FFFFFF" d="M23.6,48c0.2,0.2,0,0.5-0.1,0.7c-0.2,0.2-0.6,0.4-0.9,0.2c-0.4-0.1-0.3-0.6-0.3-0.9c0.2-0.1,0.2-0.3,0.5-0.3
	C23.2,47.7,23.4,47.8,23.6,48L23.6,48z"/>
<path fill="#FFFFFF" d="M97.6,48.2c0.1,0.4-0.3,0.5-0.5,0.6c-0.4,0.1-0.7-0.2-0.8-0.5c0-0.2,0.2-0.4,0.3-0.6
	C97.1,47.5,97.4,47.9,97.6,48.2L97.6,48.2z"/>
<path fill="#FFFFFF" d="M95.7,48.2c0.1,0.4-0.3,0.6-0.4,0.7C95,49,94.7,49,94.5,48.7c-0.2-0.1-0.2-0.3-0.2-0.5
	c0.2-0.2,0.3-0.4,0.6-0.5C95.2,47.7,95.5,47.9,95.7,48.2L95.7,48.2z"/>
<path fill="#FFFFFF" d="M112.2,48.6c0.1,0.5-0.6,0.3-0.8,0.4c-1.5,0.9-3.5,0.2-5-0.3c0.1-0.5,0.7-0.3,1-0.5c1.6-1,3.2,0.2,4.8,0.3
	L112.2,48.6L112.2,48.6z"/>
<path fill="#FFFFFF" d="M12,48.2l-0.1,0.3c-1.4,0.8-3.1,1.4-4.7,0.8L7,49c1.4-1,3.1-1.3,4.9-1L12,48.2L12,48.2z"/>
<path fill="#FFFFFF" d="M101.4,48.4c0,0.3-0.1,0.6-0.4,0.7c-0.4,0.1-0.8,0-1-0.4c-0.1-0.3,0.2-0.6,0.5-0.7
	C100.8,48,101.2,48,101.4,48.4L101.4,48.4z"/>
<path fill="#FFFFFF" d="M18.5,48.6c-0.1,0.3-0.1,0.6-0.4,0.7c-0.4,0.1-0.8-0.2-0.9-0.5c-0.1-0.4,0.2-0.5,0.4-0.7
	C18,47.9,18.3,48.2,18.5,48.6L18.5,48.6z"/>
<path fill="#FFFFFF" d="M15.9,48.7c0.1,0.3-0.1,0.4-0.2,0.6c-0.2,0.2-0.5,0.2-0.7,0.1c-0.3-0.2-0.5-0.5-0.4-0.9
	c0.2-0.2,0.3-0.3,0.6-0.4C15.5,48.2,15.9,48.4,15.9,48.7L15.9,48.7z"/>
<path fill="#FFFFFF" d="M103.9,49.6c0,0.3-0.3,0.6-0.6,0.7c-0.3,0-0.5-0.2-0.7-0.4c-0.1-0.2-0.1-0.5,0.1-0.7
	c0.1-0.1,0.3-0.1,0.5-0.2C103.6,49,103.9,49.3,103.9,49.6L103.9,49.6z"/>
<path fill="#FFFFFF" d="M13.2,49.2c0.1,0.3-0.1,0.4-0.2,0.6c-0.1,0.6-0.5,1-0.8,1.6c-0.7,0.8-1.7,0.8-2.7,1.1l-0.1-0.3
	c1.1-1.4,2.2-2.4,3.7-3.1L13.2,49.2L13.2,49.2z"/>
<path fill="#FFFFFF" d="M102.1,50c0.1,0.4-0.3,0.5-0.5,0.7c-0.3,0-0.6-0.2-0.7-0.4c-0.1-0.4,0.3-0.6,0.5-0.7
	C101.7,49.4,102,49.7,102.1,50L102.1,50z"/>
<path fill="#FFFFFF" d="M17.4,50c0,0.1,0,0.1,0.1,0.2c0,0.4-0.3,0.5-0.5,0.7c-0.3,0-0.6-0.1-0.8-0.4c-0.1-0.3,0-0.7,0.4-0.8
	C16.9,49.6,17.3,49.7,17.4,50L17.4,50z"/>
<path fill="#FFFFFF" d="M108.9,51.1c0.4,0,0.4-0.5,0.8-0.6c0.4-0.1,0.7,0.1,0.9,0.4c0.1,0.4-0.2,0.7-0.5,0.8
	c-0.3,0.2-0.8-0.2-0.8,0.3c0.3,0.2,0.5,0.4,0.5,0.7c-0.1,0.1-0.3,0.1-0.4,0c-1.1-0.4-2.2-1.2-2.6-2.3c-0.1-0.3-0.8-0.6-0.4-0.9
	C107.4,49.6,108.3,50.4,108.9,51.1L108.9,51.1z"/>
<path fill="#FFFFFF" d="M112.4,50c0.2,0.2,0.1,0.5,0,0.7c-0.2,0.4-0.7,0.2-1.1,0.2c-0.2-0.2-0.4-0.4-0.3-0.7
	c0.1-0.2,0.3-0.4,0.5-0.5C111.9,49.6,112.1,49.8,112.4,50L112.4,50z"/>
<path fill="#FFFFFF" d="M99.1,52c0.3,0.4,0.7,1,0.8,1.5c-0.1,0.1-0.3,0.1-0.3,0.1c-1.2-0.7-2.9-1.5-3.3-2.9
	c-0.1-0.1-0.4-0.3-0.4-0.6c1-0.2,1.9,0.5,2.5,1C98.6,51.4,98.9,51.5,99.1,52L99.1,52z"/>
<path fill="#FFFFFF" d="M15.4,50.6c0.1,0.3-0.1,0.6-0.3,0.7c-0.4,0.1-0.6-0.1-0.8-0.3c-0.3-0.4,0.2-0.7,0.5-0.9
	C15,50.1,15.2,50.4,15.4,50.6L15.4,50.6z"/>
<path fill="#FFFFFF" d="M103.7,51.4c0,0.2-0.3,0.4-0.4,0.5c-0.3,0-0.6,0.1-0.8-0.1c-0.1-0.2-0.3-0.5,0-0.7
	C102.8,50.6,103.4,51,103.7,51.4L103.7,51.4z"/>
<path fill="#FFFFFF" d="M112.8,51.9c0.1,0.4-0.2,0.7-0.5,0.9c-0.4,0.1-0.7-0.1-0.9-0.3c-0.2-0.2,0-0.4,0-0.7c0.3-0.2,0.6-0.4,1-0.3
	C112.5,51.7,112.6,51.7,112.8,51.9L112.8,51.9z"/>
<path fill="#FFFFFF" d="M87.4,57c0,0.4-0.8,0.3-1.1,0.7c-1.1,0.6-2.5,0.6-3.8,0.6V58C83.8,56.9,85.7,56.5,87.4,57L87.4,57z"/>
<path fill="#FFFFFF" d="M34,58.6c0,0.3-0.2,0.5-0.6,0.6c-0.3,0-0.5-0.1-0.6-0.4c-0.1-0.4,0.2-0.6,0.5-0.8
	C33.7,58.1,33.9,58.3,34,58.6L34,58.6z"/>
<path fill="#FFFFFF" d="M86.8,59c-0.1,0.3-0.2,0.7-0.5,0.8c-0.3,0.1-0.5-0.1-0.8-0.3c-0.2-0.1-0.1-0.4-0.1-0.6
	C85.6,58.3,86.6,58.3,86.8,59L86.8,59z"/>
<path fill="#FFFFFF" d="M94.1,59.1c-0.9,0.6-1.9,1.3-3.1,1.3l-2,0l-0.2-0.1c1.2-1.5,3.4-1.5,5.3-1.3V59.1L94.1,59.1z"/>
<path fill="#FFFFFF" d="M24,60c0,0.3-0.1,0.6-0.5,0.7c-0.4,0.1-0.6-0.1-0.8-0.3c-0.1-0.3,0-0.7,0.3-0.8C23.4,59.3,23.8,59.7,24,60
	L24,60z"/>
<path fill="#FFFFFF" d="M25.8,60.4c0.1,0.2-0.1,0.3-0.1,0.5c-0.2,0.1-0.5,0.2-0.7,0c-0.3-0.2-0.3-0.4-0.2-0.6
	c0.1-0.2,0.3-0.2,0.4-0.3C25.5,60,25.7,60.1,25.8,60.4L25.8,60.4z"/>
<path fill="#FFFFFF" d="M11.8,64.1c-0.4,0.4-1-0.1-1.4-0.3c-1.3-0.7-1.2-2.2-2.5-3c0.1-0.4,0.5,0,0.7,0c0.2,0.2,0.5,0.3,0.8,0.4
	C10.7,61.8,11,63,11.8,64.1L11.8,64.1z"/>
<path fill="#FFFFFF" d="M118.5,49.8c-0.6-1.1-1.6-1.5-2.7-1.5c-1,0.1-1.6,0.7-2,1.5c-0.2,0.8,0.1,1.5,0.7,2c0.3,0.1,0.6,0.1,0.7-0.2
	c0.2-0.5-0.3-0.5-0.4-0.9c-0.1-0.5,0-1,0.4-1.3c0.4-0.4,1-0.2,1.4-0.2c0.4,0.3,0.9,0.6,1.1,1.1c0.2,0.6,0.2,1.3,0,2
	c-0.4,0.9-1.3,1.7-2.3,1.8c-3,0.4-36.4,0.3-36.4,0.3c-3.9,0.4-8.4-0.7-11.8,1.3c-1.5,0.7-2.3,2.4-2.7,3.9c-1,0.9-2.1,1.9-2.9,2.9
	l-0.1-0.1c0.2-0.9,0.6-1.7,0.8-2.5c0.5-0.7,0.5-1.7,1-2.5c1.4-2.2,2.7-4.5,4.9-6.1c0.9-1.2,2.5-1,3.9-1c1.5,0.7,3.3,0.9,5.1,0.7
	c0.1-0.1,0.1-0.2,0.1-0.3c-0.5-0.5-1.4-0.7-1.9-1.1c-1.5-0.7-2.9,0.2-4.4,0.1c-0.1-0.1-0.1-0.1-0.1-0.2c1.4-1,3-1.8,4.5-2.4
	c1.3-0.7,2.6-1.1,4-1.6c0.5,0,1.1-0.5,1.6-0.1l1.9-0.5c0.1,0,0.1,0.1,0.3,0.1c1.6-0.6,3.7,0,5.6-0.1l0.3,0.2l1.8,0.4
	c0.7,0.1,1,0.8,1.6,0.9c0.4-0.5-0.4-0.7-0.6-1.1c0.8-0.2,1.7,0,2.5,0.4L94,46.2c-0.2,0.4,0.1,0.7,0.4,0.8c0.3,0.1,0.4-0.1,0.6-0.2
	c0.5-0.3,0-0.7,0.1-1c2.7,0.5,5.3,1.1,7.8,2.2c0.7,0.2,1.4,0.7,2.1,0.7c-0.8-0.7-1.8-1.1-2.8-1.5c-0.6-0.4-1.5-0.4-2-0.9
	c0.1-0.2,0.4-0.1,0.5-0.3c1.2-0.1,2.3-1.1,3.2-2.1c0.1-0.2,0.5-0.1,0.4-0.4c-0.3-0.4-0.9,0.1-1.3,0.1c-1.5,0.3-2.2,2.1-3.7,2.4
	c-1.9-0.4-3.8-0.9-5.6-1.4c-0.9-0.1-1.9-0.2-2.7-0.6l-2-0.2h-3.7c0-0.1-0.1-0.1-0.1-0.2c1.3-0.3,2.5-1.1,3.8-1.4l9.8-4.5
	c1-0.9,1.9-2,2.8-3c0-0.3-0.1-0.6-0.4-0.7c-0.3-0.1-0.6-0.1-0.7,0.1c-0.4,0.3,0,0.7,0,1.1c-0.4,0.6-1.1,1.1-1.7,1.4
	c-0.1,0-10.1,4.5-10.1,4.5C87,42,85.6,42.7,84,43.1l-2.1,0.3c-0.1,0.4-0.5,0.7-0.9,0.8c-0.6,0.1-1.1,0.5-1.7,0.5
	c-4.8,1.8-9.7,3.8-13.5,7.6c0.2-0.4,0.3-1,0.4-1.5c-0.1-0.6,0-1.2-0.4-1.6c-0.1-0.2-0.4-0.8-0.3-1L65,48.5c-0.3,0.8-0.6,2.3-0.3,3.1
	c0.1,0.7,0.7,1.4,0.1,2c-1.8,2.1-2.7,4.7-3.9,7.2c-0.4-0.1-0.7-0.5-0.8-0.9c1.2-1.6,2.2-3.4,2.6-5.4c0.3-0.2,0.1-0.7,0.3-0.9
	c-0.1-0.6,0.3-1.2,0-1.7c0.2-0.8-1.1-1.5-0.2-2.1l-0.7,0.3c-1.6,2.1,0.8,5.2-1,7.2v0.1c-0.5,0.7-0.8,1.3-1.5,1.8
	c-0.9-0.4-1.2-1.4-1.7-2.1c-0.8-0.8-0.8-2.4-0.3-3.4c0.3-1.1-0.2-2-0.3-3l-0.4-0.2c-0.9,1.1-1.2,2.9-0.5,4.3c0.4,0.7,0.4,1.6,1,2.1
	c0.3,1.1,1,1.8,1.6,2.7c0.1,0.4-0.2,0.4-0.4,0.6c-0.4-0.3-0.3-0.8-0.7-1.1c-1.2-2.6-2.8-4.6-4.7-6.7c-0.1-0.3-0.4-0.6-0.2-1
	c0.7-0.7,0.8-2,0.5-2.8c-0.1-0.2-0.3-0.4-0.3-0.6l-0.6-0.4c0.1,1.3-0.8,2.4-0.4,3.8v0.1c-3.8-2.8-7.9-5.4-12.2-7.4l-0.3,0.9
	c1.1,0.3,3.9,2,3.9,2c1.3,0.5,2.5,1.3,3.7,2c5,2.8,8.3,7.3,10.5,12.4c0,0.4,0.4,0.8,0.1,1.3c-0.8-1.2-1.9-1.8-2.8-2.8
	c-0.3-1.7-1.3-3.4-2.8-4.1c-0.5-0.8-1.7-0.9-2.6-1.1l-13.3-0.1C25.6,54.5,15.7,55,4.9,54.8c-1.5-0.1-3.3-0.7-3.8-2.3
	c-0.3-0.6-0.3-1.5,0-2c0.4-0.7,1.1-0.9,1.9-1c0.6,0.1,1,0.6,1.2,1c0,0.5-0.4,0.9-0.6,1.3c0,0.1,0.2,0.4,0.4,0.3
	c0.5-0.2,0.8-0.7,1-1.2c0-0.3,0.1-0.6-0.1-0.8c-0.2-0.8-1-1.3-1.7-1.5c-0.9-0.1-1.9,0.2-2.5,0.9c-0.9,0.7-0.8,2.1-0.6,3.1
	c0.6,1.6,2.3,2.7,4,3l35.6,0.1c3.5,0.2,7.4-0.4,10.9,0.3c1.3,0.4,2.6,1.4,3,2.8c0,0.1-0.1,0-0.3,0c-2.9-1.9-6.7-2.6-10.4-2.1
	c-1.5-0.1-2.8,0.5-4.1,0.8c-0.7,0.1-1.4-0.2-1.8-0.6c-1.3-1.2-3.6-1.1-5.3-0.7c0,0.1,0,0.2,0,0.3c1.8-0.1,2.9,1.4,4.5,1.6
	c0.4,0.1,0.7-0.3,1,0c-1.7,0.8-3.3,1.8-5.1,2.3c-0.5-0.1-0.8-0.6-1.3-0.9c-0.7-0.8-2-0.4-2.9-0.5c-0.3,0.1-0.6-0.1-0.8,0
	c0.3,0.6,1,0.9,1.6,1.2c0.9,0.4,2,0,2.8,0.5c-0.2,0.3-0.5,0.3-0.8,0.5c-1.7,0.7-3.1,2.2-5.1,2.1c-2,0.2-4.1-0.4-5.4-1.8
	c-0.6-1.4-2.1-2.2-3.7-2.1c-0.1,0.1-0.3,0.1-0.2,0.3c0.8,0.5,1.4,1.4,2.2,2c0.5,0.6,1.5,0,2,0.7c0.7,0.5,1.6,0.9,2.4,1
	c0.6,0.3,1.2,0.4,1.9,0.5l-0.3,0.1c-3.3,1.1-7.2,1.2-10.9,1.1c-1.1,0-2.2-0.4-3.3-0.3c0.2,0.2,0.5,0.4,0.9,0.5
	c-0.3,0.2-0.6,0.3-1,0.3c-0.4,0.1-1,0.1-1.4,0.4c-0.6,0-1.1,0.2-1.6,0.4c-0.6,0.7-1.4,1.4-2.1,1.7c0,0.2,0,0.4,0.1,0.4
	c0.7-0.3,1.6-0.1,2.3-0.4c1.2-0.1,1.9-1.4,2.9-2c1-0.8,2.5-0.6,3.7-0.4c0.7,0.2-0.1,0.5,0.1,1c0.3,0.3,0.5,0.6,1,0.4
	c0.1-0.1,0.1-0.1,0.3-0.2c0.2-0.3,0.2-0.6,0-0.9c0.5-0.3,1.2,0,1.8-0.2c1.4,0,2.8-0.3,4.1-0.4c0.2,0,0.5-0.3,0.7,0
	c-0.1,0.3-0.5,0.3-0.3,0.7c0.1,0.3,0.4,0.5,0.7,0.6c0.4-0.1,0.7-0.4,0.5-0.9c-0.1-0.3-0.4-0.3-0.5-0.4c0.8-0.4,1.6-0.5,2.4-0.9
	c0.5-0.1,1.1-0.3,1.5-0.5c0.5,0,0.9-0.5,1.3-0.3c-0.2,0.6-0.4,1.2-0.8,1.8c-0.6,2-1,4.5,0,6.4c0.1,0,0.1,0,0.2-0.1
	c-0.8-2-0.3-4.2,0.3-6c0.5-3.1,3.7-4.1,6-5.2l0.1,0.1c-0.6,1.6-1.5,3.2-1.4,5.1c0.1,0.3-0.1,0.7,0,0.9c0.6-0.3,1-1.1,1.4-1.7
	c0.3-1.7-0.7-3.7,1-4.9c3-1.2,5.8-2.7,9.3-2.8c0.1,0.1,0.4-0.1,0.4,0.1c-0.7,0.8-1.8,1.6-2.1,2.6c-1.2,1.6-1.1,4.4-0.6,6.4
	c0.3,1.1-0.7,1.8-1.1,2.7c-0.2,0.3-0.3,0.9-0.5,1.2l0.7,0.1c0.6-0.7,1.2-1.5,1.2-2.4c0.1,0.4,0.4,0.7,0.7,0.7
	c0.3-0.4-0.2-0.7-0.3-1.1c0.6-0.3,0.8,0.4,1.3,0.6c0.8,0.2,1.4,0.5,2.2,0.5l0.3-0.3c-0.8-1.3-2.4-1.5-3.8-1.5
	c-0.7-1.2-0.7-2.7-0.7-4.2c0.1-0.8,0.3-1.6,0.7-2.3c0.2-0.5,0.7-1,1-1.4c0.7-0.6,1.5-1.1,2.3-1.3H46c0,0.1,0,0.1,0,0.1
	c-1,0.8-1.1,1.8-1.7,2.8c-0.6,0.9-0.9,2.2-0.3,3.2c0.2,0.5,0.1,1.2,0.6,1.5c0.5-0.7,0.5-1.5,0.8-2.2c-0.1-1.2-0.8-2.4-0.1-3.5
	c0.4-0.9,1.1-1.3,2-1.6c2-0.2,3.8,0.8,5.5,1.6c0.4,0.3,1,0.5,1.1,1c0,1-0.6,2-1.4,2.5c-1,0.6-2.4,0.7-3.3,0
	c-0.5-0.6-0.8-1.5-0.6-2.3c0.4-0.4,1-0.8,1.6-0.6c0.4,0.2,0.7,0.6,1.2,0.3c0.2-0.1,0.3-0.4,0.1-0.6c-0.4-0.2-0.5-0.8-1.1-0.8
	c-0.7-0.1-1.5-0.1-2,0.4c-0.8,0.7-1.1,1.7-0.8,2.6c0.3,1.2,1.1,2,2.3,2.4c1.7,0.4,3.4-0.1,4.5-1.5c0.4-0.5,0.5-1,0.8-1.6
	c1.8,1.1,3.1,2.9,3.8,4.9c0,0.6,0.2,1.3,0,1.8l1.3,0.1c-0.1-0.3,0-0.6,0.1-0.9c0.5-2.4,2-4.5,3.8-6.1c0.6-0.4,0.5,0.5,0.6,0.7
	c0.5,1.4,1.8,2.4,3.2,2.8c1.5,0.3,3-0.1,4-1.3c0.5-0.9,1.1-2.2,0.3-3.1c-0.5-0.6-1.2-1-2-1c-1,0-1.5,0.7-2,1.4c0,0.3,0,0.6,0.2,0.8
	c0.1,0,0.4,0,0.5-0.2c0.1-0.6,0.5-0.8,1-1.1c0.4-0.2,0.8,0,1.2,0.2c0.4,0.3,0.5,0.9,0.5,1.4c-0.1,0.7-0.5,1.4-1.2,1.7
	c-1.1,0.6-2.6,0.3-3.5-0.3c-0.4-0.5-0.7-1-1-1.6c-0.1-0.6-0.3-1.1,0-1.7c1.6-1,3.3-1.7,5.2-1.8c0.8,0.1,1.4,0.7,1.9,1.2
	c1.7,1.7-0.4,4.2,0.8,6.1c0.4-0.1,0.4-0.7,0.6-1c0.5-1.3-0.1-2.8-0.5-4.1c-0.4-0.8-0.7-1.5-1.4-2.2c0.2-0.1,0.3-0.1,0.4-0.1
	c0.8,0.5,1.6,1.1,2.2,1.9c1.1,1.7,1.6,3.8,1.4,6c-0.3,1.1-1.5,1.6-2.4,2c-0.4,0.3-0.8,0.7-1,1.2c0.4,0.3,1.1,0,1.5-0.2
	c0.7-0.3,1.1-1.1,1.6-1.5c0.1,0,0,0.1,0.1,0.2c0,0.4-0.2,1,0.2,1.1c0.2-0.5,0.2-1.3,0.3-1.9c0.5,0.5,0.5,1.2,0.7,1.8
	c0.3,0.7,0.9,1.5,1.8,1.7c0.2-0.3,0-0.7-0.1-1c-0.1-0.9-0.9-1.4-1.4-2.1c-1.3-1.8-0.7-4.5-1.7-6.5c-0.4-1.1-1.1-1.8-2-2.7l0.1-0.1
	c1.8,0,3.3,0.5,4.9,0.9c2,1,4.9,0.8,5.9,3.4c0.4,1.5,1.1,2.8,2.1,4l0.1-0.1c0.2-0.4,0.2-1,0-1.4c-0.2-1.8-1.8-2.3-2.7-3.8l0.1-0.1
	c0.9,0.3,1.8,0.5,2.7,0.8c2.9,0.8,5,3.7,5.3,6.7c0,2.4-0.4,4.3-1.4,6.3c-0.1,0.3-0.6,0.6-0.3,0.9c0.4-0.3,0.5-0.8,0.7-1.1
	c1.2-2,1.8-4.8,1.2-7.4c0-0.5-0.6-0.8-0.3-1.3c0.2,0.2,0.4,0.3,0.6,0.3c0.2-0.1,0.5-0.1,0.7-0.4c0-0.2,0.2-0.5,0-0.7
	c-0.2-0.3-0.7-0.3-1.1-0.3c-0.2,0.2-0.4,0.5-0.4,0.8c-0.4-0.6-0.7-1.4-1.3-2l0.1-0.1c1.6,0.6,3.1,1.4,4.8,1.8
	c0.4,0.2,0.8,0.4,1.3,0.4c1.4,0.6,3,0.8,4.5,1.1c1.1-0.1,2,0.4,3.1,0.1v-0.1l0,0c-0.4-0.5-1.3,0-1.8-0.4c-2.5-0.3-4.9-0.9-7.2-1.8
	c0-0.1,0.2-0.1,0.3-0.1c0.4-0.2,0.6-0.5,0.6-0.9c-0.2-0.3-0.5-0.4-0.8-0.4c-0.2,0.1-0.5,0.4-0.5,0.6c0,0.3,0.3,0.6,0.5,0.7
	c-0.1,0.1-0.2,0-0.3,0c-1.1-0.5-2.2-1-3.3-1.5c-0.4-0.1-0.7-0.4-1.1-0.5c-0.8-0.4-1.7-0.8-2.5-1.1c-2.3-1.2-4.9-1.9-7.4-2.8
	c-0.5-0.1-1.1-0.3-1.6-0.4c-0.9-0.3-1.8-0.5-2.7-0.7c-3.1-0.8-7.3-0.8-10,0.8c-0.4-0.1-0.7,0.6-0.9,0.1c0.8-2,3-2.7,5-2.8
	c14.7-0.1,28.4-0.3,42.9-0.5c1.7,0,3.3-0.6,4.2-2.1C118.9,52.3,119,50.8,118.5,49.8L118.5,49.8z M60.3,63.4
	c-0.1,0.4-0.4,0.8-0.4,1.3l-0.1,0.1c0.1-0.6-0.4-0.9-0.3-1.5c-0.3-0.4-0.3-1-0.5-1.5c-0.3-0.6,0.3-0.9,0.5-1.3
	c0.5,0.2,0.7,0.7,1.1,1.1C60.7,62.4,60.3,62.8,60.3,63.4L60.3,63.4z"/>
<path fill="#FFFFFF" d="M100,61.1c0,0.1,0.2,0.1,0.1,0.3c-1.3,1.1-3.1,1.5-4.9,1.5c-0.1,0-0.3,0.1-0.5,0.1c-0.1-0.1-0.1-0.2-0.1-0.3
	C96,61.4,98,60.7,100,61.1L100,61.1z"/>
<path fill="#FFFFFF" d="M94.1,61.7c0.1,0.5-0.2,0.8-0.6,1c-0.4,0-0.6-0.3-0.8-0.6c-0.1-0.3,0.1-0.4,0.3-0.6
	C93.3,61.2,94,61.2,94.1,61.7L94.1,61.7z"/>
<path fill="#FFFFFF" d="M24.5,61.8c0.1,0.3,0,0.6-0.2,0.8c-0.1,0.2-0.5,0.2-0.7,0.2c-0.3,0-0.4-0.3-0.5-0.6c0-0.3,0.2-0.5,0.5-0.7
	C24,61.5,24.3,61.4,24.5,61.8L24.5,61.8z"/>
<path fill="#FFFFFF" d="M18,64.2v0.3c-0.9,0.2-1.7,0-2.4-0.6c-0.5-0.7-1.1-1.5-1.9-1.8c0-0.1-0.2-0.3,0-0.3
	C15.5,61.7,16.6,63.2,18,64.2L18,64.2z"/>
<path fill="#FFFFFF" d="M105.6,61.7c-0.8,1.3-1.6,2.8-3.1,3.3c-0.3,0-0.5,0.4-0.7,0.1c0.6-1.4,1.8-2.9,3.3-3.5
	C105.2,61.7,105.4,61.6,105.6,61.7L105.6,61.7z"/>
<path fill="#FFFFFF" d="M26.7,62.2c0,0.4-0.3,0.5-0.5,0.7c-0.3,0-0.4-0.2-0.6-0.4c-0.1-0.4,0.2-0.5,0.4-0.7
	C26.2,61.7,26.5,61.9,26.7,62.2L26.7,62.2z"/>
<path fill="#FFFFFF" d="M110.2,62.4c-0.3,0.5-0.2,1.2-0.5,1.7c-0.7,0.8-1.4,1.8-2.5,2c-0.2-0.4,0.3-0.7,0.4-1.1
	c0.5-1.1,1.2-2.4,2.4-2.8L110.2,62.4L110.2,62.4z"/>
<path fill="#FFFFFF" d="M6.6,62.7c0.1,0.3,0.2,0.5,0,0.8c-0.2,0.2-0.5,0.3-0.8,0.1c-0.3-0.2-0.4-0.6-0.3-0.9
	C5.7,62.5,6.4,62.3,6.6,62.7L6.6,62.7z"/>
<path fill="#FFFFFF" d="M4.6,63.2c0,0.2,0.1,0.3,0.1,0.5c-0.1,0.2-0.3,0.4-0.5,0.4c-0.4,0.1-0.7-0.1-0.8-0.5c0-0.3,0.1-0.6,0.4-0.8
	C4,62.7,4.4,62.9,4.6,63.2L4.6,63.2z"/>
<path fill="#FFFFFF" d="M8.9,63.4c0.1,0.3,0.1,0.8-0.3,0.9c-0.5,0.2-0.8-0.1-1.1-0.4c0-0.3,0.2-0.6,0.4-0.7
	C8.3,63.1,8.6,63.1,8.9,63.4L8.9,63.4z"/>
<path fill="#FFFFFF" d="M14.9,63.9c0,0.3,0,0.6-0.3,0.7c-0.2,0.2-0.5,0.1-0.7,0.1c-0.1-0.2-0.5-0.4-0.3-0.7c0.1-0.2,0.3-0.3,0.5-0.4
	C14.4,63.7,14.7,63.6,14.9,63.9L14.9,63.9z"/>
<path fill="#FFFFFF" d="M113.7,64.1c-0.1,0.3-0.3,0.6-0.5,0.6c-0.3,0-0.7-0.1-0.8-0.4c-0.1-0.4,0.2-0.6,0.5-0.7
	C113.2,63.6,113.6,63.7,113.7,64.1L113.7,64.1z"/>
<path fill="#FFFFFF" d="M107,64.3c0,0.3-0.3,0.5-0.4,0.6c-0.5,0.2-0.9-0.1-1.1-0.6c0.1-0.3,0.3-0.6,0.6-0.7
	C106.5,63.7,106.8,63.9,107,64.3L107,64.3z"/>
<path fill="#FFFFFF" d="M111.6,64.2c0,0.3-0.1,0.5-0.3,0.6c-0.3,0.1-0.7,0.1-0.9-0.1c-0.3-0.3-0.1-0.6,0.1-0.8
	C110.8,63.7,111.4,63.8,111.6,64.2L111.6,64.2z"/>
<path fill="#FFFFFF" d="M5.7,64.9c0.1,0.4-0.1,0.8-0.4,0.9c-0.3,0-0.7-0.2-0.8-0.5c0-0.3,0.1-0.7,0.4-0.8
	C5.2,64.4,5.5,64.6,5.7,64.9L5.7,64.9z"/>
<path fill="#FFFFFF" d="M105.2,65.3c0.1,0.4-0.1,0.8-0.5,1c-0.3,0.1-0.5-0.1-0.7-0.3c-0.1-0.2-0.3-0.6,0-0.8
	C104.2,64.6,105,64.9,105.2,65.3L105.2,65.3z"/>
<path fill="#FFFFFF" d="M25.4,65.7c0.1,0.4-0.3,0.5-0.4,0.7c-0.1,0.1-0.4,0.1-0.5,0c-0.2-0.2-0.4-0.4-0.3-0.8
	c0.2-0.1,0.3-0.3,0.5-0.4C25,65.1,25.2,65.4,25.4,65.7L25.4,65.7z"/>
<path fill="#FFFFFF" d="M113.1,65.9c0.1,0.3-0.1,0.4-0.2,0.6c-0.2,0.2-0.6,0.2-0.8,0.1c-0.3-0.2-0.3-0.5-0.3-0.8
	c0.2-0.1,0.3-0.3,0.5-0.4C112.5,65.4,112.9,65.6,113.1,65.9L113.1,65.9z"/>
<path fill="#FFFFFF" d="M110.8,66c0.1,0.4-0.3,0.7-0.5,0.8c-0.1,0-0.4-0.1-0.4,0.1c1,0.5,1.5,1.3,2.3,2v0.3c-1.3,0-2.7-0.4-3.6-1.4
	c-0.3-0.2-0.7-0.2-1-0.4c0.5-0.5,1.4-0.3,2-0.3c0.5-0.5-0.6-0.9,0.1-1.3c0.2,0,0.4-0.3,0.7-0.2C110.5,65.6,110.6,65.8,110.8,66
	L110.8,66z"/>
<path fill="#FFFFFF" d="M95.8,66.1c0.1,0.2-0.1,0.4-0.2,0.6c-0.2,0.2-0.5,0.3-0.8,0.2c-0.2-0.3-0.5-0.5-0.4-0.8
	C94.8,65.4,95.7,65.5,95.8,66.1L95.8,66.1z"/>
<path fill="#FFFFFF" d="M14,67.4c-0.1,0.3-0.3,0.6-0.6,0.6c-0.3,0-0.5-0.1-0.7-0.4c0-0.3,0.1-0.4,0.2-0.6C13.3,66.6,14,66.8,14,67.4
	L14,67.4z"/>
<path fill="#FFFFFF" d="M16.9,66.9c0,0.5-0.5,0.8-0.7,1.3c-0.5,1.2-1.5,2.3-2.9,2.4c-0.1-0.3,0.5-0.7,0.6-1.1
	c0.6-1.3,1.8-1.9,2.8-2.7H16.9L16.9,66.9z"/>
<path fill="#FFFFFF" d="M94.9,67.4c0,0.4-0.3,0.7-0.6,0.9c-0.3,0.1-0.6-0.2-0.8-0.3c-0.3-0.3-0.1-0.6,0-0.9
	C94,66.6,94.6,67,94.9,67.4L94.9,67.4z"/>
<path fill="#FFFFFF" d="M97.2,67.7c0,0.4-0.3,0.7-0.7,0.8c-0.1-0.1-0.3,0-0.4-0.1c-0.3-0.1-0.5-0.4-0.5-0.7c0.2-0.2,0.3-0.5,0.5-0.5
	C96.5,67.2,97.1,67.2,97.2,67.7L97.2,67.7z"/>
<path fill="#FFFFFF" d="M22.6,67.6c0,0.4-0.3,0.6-0.5,0.8c-0.3,0-0.5-0.2-0.7-0.4c-0.1-0.3,0.3-0.6,0.4-0.7
	C22.2,67.1,22.3,67.4,22.6,67.6L22.6,67.6z"/>
<path fill="#FFFFFF" d="M25.1,67.8c-0.1,0.3-0.3,0.6-0.7,0.6c-0.3-0.1-0.5-0.1-0.7-0.4c0-0.4,0.3-0.6,0.5-0.7
	C24.7,67.2,25.1,67.4,25.1,67.8L25.1,67.8z"/>
<path fill="#FFFFFF" d="M105.1,70.4c0.2,0.1,0.5,0.3,0.4,0.6c-0.6,0.3-1.1-0.4-1.6-0.5c-0.9-0.9-1.5-1.8-1.9-2.9
	c0.3-0.3,0.7,0.1,1,0.2C103.8,68.4,104.6,69.3,105.1,70.4L105.1,70.4z"/>
<path fill="#FFFFFF" d="M106.4,67.8c0.1,0.3,0.1,0.6-0.1,0.8c-0.2,0.4-0.7,0.3-1,0.2c-0.2-0.2-0.5-0.5-0.3-0.8
	c0.1-0.3,0.4-0.4,0.7-0.5C106,67.4,106.2,67.7,106.4,67.8L106.4,67.8z"/>
<path fill="#FFFFFF" d="M28.5,68.7c0,0.3,0.1,0.7-0.3,0.9c-0.3,0.1-0.8,0-0.9-0.4c-0.2-0.4,0.2-0.5,0.4-0.7
	C28.1,68.4,28.3,68.5,28.5,68.7L28.5,68.7z"/>
<path fill="#FFFFFF" d="M97.1,71.1c0.5,0.7,0.9,1.7,1,2.6c-0.1,0.3,0.2,0.5,0,0.7h-0.1c-1.6-1.2-2-2.8-2.6-4.5
	c-0.1-0.1-0.2-0.2-0.1-0.4c0.4-0.3,0.6,0.3,1,0.4L97.1,71.1L97.1,71.1z"/>
<path fill="#FFFFFF" d="M33.3,69.9C33.2,69.9,33.3,69.9,33.3,69.9c-1.4,1.1-3.5,1.7-5.2,0.7c0-0.1,0-0.3,0.2-0.3
	c1.1-0.3,2.1-0.8,3.2-0.7L33.3,69.9L33.3,69.9z"/>
<path fill="#FFFFFF" d="M24.9,70.1c-1.2,0.8-2.4,2.3-3.9,2.7c-0.3,0.1-0.5,0.5-0.8,0.3c0.7-2,2.8-3.1,4.8-3.2V70.1L24.9,70.1z"/>
<path fill="#FFFFFF" d="M94.9,71.7c0.1,0.3,0,0.7-0.3,0.8c-0.2,0.2-0.5,0.2-0.7,0c-0.3-0.2-0.3-0.5-0.3-0.7c0.1-0.3,0.4-0.3,0.5-0.4
	C94.5,71.4,94.8,71.4,94.9,71.7L94.9,71.7z"/>
<path fill="#FFFFFF" d="M91.9,71.9c-0.2,0.5-0.8,0.8-1.3,1c-1.2,0.4-2.4-0.1-3.5-0.4c0-0.3,0.4-0.2,0.6-0.4c1.2-0.3,2.5-0.5,3.7-0.2
	C91.5,71.8,91.8,71.8,91.9,71.9L91.9,71.9z"/>
<path fill="#FFFFFF" d="M24.9,73c-0.1,0.1-0.1,0.5-0.4,0.6c-0.3,0.1-0.5,0-0.7-0.1c-0.1-0.2-0.3-0.4-0.1-0.7
	c0.1-0.3,0.4-0.3,0.6-0.4C24.5,72.4,24.8,72.6,24.9,73L24.9,73z"/>
<path fill="#FFFFFF" d="M27.1,73.3c-0.1,0.2-0.2,0.6-0.5,0.7c-0.3,0.1-0.5-0.1-0.7-0.3c-0.1-0.2-0.2-0.5-0.1-0.7
	c0.1-0.2,0.3-0.2,0.5-0.3C26.6,72.6,26.9,73,27.1,73.3L27.1,73.3z"/>
<path fill="#FFFFFF" d="M94.2,73.7c0,0.3-0.1,0.5-0.3,0.7c-0.2,0.3-0.5,0.3-0.8,0.1c-0.3,0-0.3-0.3-0.4-0.5
	c-0.2-0.3,0.1-0.5,0.3-0.7C93.4,72.9,94.1,73.1,94.2,73.7L94.2,73.7z"/>
<path fill="#FFFFFF" d="M95.9,73.6c0,0.2,0.1,0.4,0.1,0.5c-0.2,0.2-0.4,0.7-0.8,0.5c-0.2,0.1-0.3-0.2-0.4-0.3c-0.1-0.4,0-0.9,0.4-1
	C95.5,73.2,95.7,73.5,95.9,73.6L95.9,73.6z"/>
<path fill="#FFFFFF" d="M25.7,74.7c0.1,0.4-0.1,0.8-0.4,1c-0.4,0.1-0.9,0.1-1.1-0.4c0-0.4,0-0.8,0.4-1.1
	C25.1,74.1,25.6,74.2,25.7,74.7L25.7,74.7z"/>
<path fill="#FFFFFF" d="M27.8,74.5c-0.1,1-0.3,2.3-1.3,2.9c-0.6,0.1-1.2,0.7-1.8,0.3v-0.2C25.5,76.4,26.9,75.6,27.8,74.5L27.8,74.5z
	"/>
<path fill="#FFFFFF" d="M88.5,75.4c0.1,0.2-0.1,0.4-0.2,0.6c-0.2,0.3-0.6,0.1-0.9,0c-0.3-0.1-0.3-0.5-0.2-0.7
	c0.1-0.2,0.3-0.3,0.5-0.4C88,74.8,88.3,75.1,88.5,75.4L88.5,75.4z"/>
<path fill="#FFFFFF" d="M31.5,77.1c0.5,0.8,0.2,2,0.5,2.9c-0.6,0.1-0.9-0.6-1.3-1c-0.8-1.1-0.7-2.6-1.1-3.9c0.1-0.1,0.2-0.1,0.3-0.1
	c0.5,0.4,1,1.1,1.4,1.5C31.2,76.8,31.5,76.8,31.5,77.1L31.5,77.1z"/>
<path fill="#FFFFFF" d="M90.3,75.7c0,0.3-0.3,0.4-0.5,0.6c-0.3,0-0.5-0.1-0.7-0.3c-0.1-0.4,0.2-0.5,0.4-0.7
	C89.8,75.1,90.2,75.3,90.3,75.7L90.3,75.7z"/>
<path fill="#FFFFFF" d="M94.7,78.9c0,0.1,0,0.3-0.2,0.3h-0.1c-1.1-1-2.1-2-2-3.5l0.2,0C93.5,76.5,94.6,77.4,94.7,78.9L94.7,78.9z"/>
<path fill="#FFFFFF" d="M91.9,77.8c0,0.3-0.1,0.5-0.3,0.7c-0.4,0.1-1,0.1-1.1-0.5c0-0.4,0.4-0.6,0.5-0.7
	C91.5,77.1,91.8,77.4,91.9,77.8L91.9,77.8z"/>
<path fill="#FFFFFF" d="M89.5,78.5c-0.5,1.4-1.9,2.1-2.9,3.1c-0.2-0.1-0.1-0.4-0.1-0.6c0.4-1.4,1.5-2.8,2.8-3.3
	C90,77.8,89.4,78.2,89.5,78.5L89.5,78.5z"/>
<path fill="#FFFFFF" d="M92.3,79.6c0,0.3-0.3,0.5-0.5,0.7c-0.3,0-0.6-0.1-0.8-0.4c0-0.4,0.3-0.5,0.5-0.7
	C91.8,79.2,92.1,79.4,92.3,79.6L92.3,79.6z"/>
<path fill="#FFFFFF" d="M65,12.7c0.5,0,0.9,0.4,0.9,0.9c0,0.5-0.4,0.9-0.9,0.9H54.2c-0.5,0-0.9-0.4-0.9-0.9c0-0.5,0.4-0.9,0.9-0.9
	H65L65,12.7z M57.3,14.3c1.1,0,0.1-1.3-0.5-1.3h-1.1c-1.1,0-0.1,1.3,0.5,1.3H57.3L57.3,14.3z M61.8,14.3c1.1,0,0.1-1.3-0.5-1.3h-1.1
	c-1.1,0-0.1,1.3,0.5,1.3H61.8L61.8,14.3z M65.1,13h-0.4c-1.1,0-0.2,1.3,0.4,1.3C65.8,14.3,65.8,13,65.1,13L65.1,13z"/>
<path fill="#FFFFFF" d="M64.1,25.2l2.1,0.8l2-0.8l-0.8,3.1l1.6-0.3l-0.6,1.9l0.6,1.8l-1.4-0.4l0.6,3.3l-2-0.8l-2.1,0.8l0.8-3.3
	l-1.7,0.5l0.4-1.9L63.3,28l1.6,0.3L64.1,25.2L64.1,25.2z M67.1,30.7c0.5,0,0.5-0.6,0.5-1.2c0-1.3-1,0-1.5-1.2
	c-0.4,1-1.4,0.1-1.4,1.1c0,0.7,0,1.2,0.7,1.2H67.1L67.1,30.7z M65.1,29.5c0,0.5,0.6,0.2,1.1,0.2c0.5,0,1.1,0.3,1.1-0.2
	c0-0.7-0.6-0.4-1.1-0.4C65.7,29.1,65.1,28.9,65.1,29.5L65.1,29.5z"/>
<polygon fill="#FFFFFF" points="59.2,29.6 59.2,29.3 58.9,29.2 59.1,28.9 59,28.6 59.3,28.6 59.5,28.3 59.8,28.6 60.1,28.6 
	59.9,28.9 60.2,29.2 59.9,29.3 59.9,29.6 59.5,29.4 59.2,29.6 "/>
<polygon fill="#FFFFFF" points="57.6,31.7 57.6,31.3 57.3,31.3 57.5,31 57.4,30.7 57.7,30.7 57.9,30.3 58.1,30.7 58.5,30.7 58.3,31 
	58.6,31.3 58.3,31.3 58.3,31.7 57.9,31.5 57.6,31.7 "/>
<polygon fill="#FFFFFF" points="60.3,31.5 60.3,31.1 60,31 60.3,30.7 60.1,30.4 60.5,30.4 60.7,30.1 60.9,30.4 61.2,30.4 61.1,30.7 
	61.3,31 61,31.1 61,31.5 60.7,31.2 60.3,31.5 "/>
<polygon fill="#FFFFFF" points="60.7,33 60.7,32.8 60.5,32.8 60.6,32.6 60.5,32.4 60.7,32.4 60.8,32.2 61,32.4 61.2,32.4 61.1,32.6 
	61.2,32.8 61,32.8 61,33 60.8,32.9 60.7,33 "/>
<polygon fill="#FFFFFF" points="58.1,34.8 58.1,34.1 57.5,34 58,33.5 57.7,33 58.3,33 58.7,32.4 59,33 59.7,33 59.4,33.5 59.8,34 
	59.2,34.1 59.2,34.8 58.7,34.4 58.1,34.8 "/>
<polygon fill="#FFFFFF" points="59.4,0 60.7,3.2 64,2.2 62.3,5.2 65.1,7.2 61.7,7.7 61.9,11.2 59.4,8.9 56.9,11.2 57.1,7.7 
	53.7,7.2 56.5,5.2 54.9,2.2 58.1,3.2 59.4,0 "/>
<path fill="#FFFFFF" d="M47.6,71.1c-0.4,0.1-0.5,0.3-0.4,0.7l0.5,1.9c0.1,0.4,0.1,0.9-0.1,1.3c-0.3,0.4-0.9,0.7-1.3,0.8
	c-0.3,0.1-1,0.2-1.6,0c-0.4-0.2-0.6-0.3-0.8-1l-0.5-2c-0.1-0.5-0.3-0.5-0.7-0.4l0-0.2l2.5-0.6l0,0.2c-0.5,0.1-0.7,0.2-0.6,0.7l0.5,2
	c0.1,0.3,0.3,1.2,1.3,0.9c1.3-0.3,1.1-1.2,1-1.6l-0.4-1.9c-0.1-0.4-0.2-0.6-0.9-0.4l0-0.2l1.6-0.4L47.6,71.1L47.6,71.1z"/>
<path fill="#FFFFFF" d="M51.2,71.5c-0.2-0.4-0.8-1-1.7-0.8c-0.4,0.1-0.7,0.4-0.7,0.8c0.1,0.3,0.2,0.4,0.9,0.6l1.2,0.2
	c0.3,0,0.9,0.3,1,0.9c0.1,0.5-0.2,1.4-1.5,1.7c-0.7,0.2-1.1,0-1.3,0.1c-0.2,0-0.2,0.2-0.2,0.3l-0.2,0l-0.3-1.5l0.2,0
	c0.3,0.6,0.9,1.2,1.8,1c0.9-0.2,0.8-0.8,0.8-0.9c-0.1-0.4-0.5-0.5-1-0.6l-0.5-0.1c-1.4-0.2-1.5-0.7-1.5-1c-0.1-0.4,0-1.3,1.3-1.6
	c0.6-0.1,1,0,1.2,0c0.2,0,0.2-0.1,0.2-0.3l0.2,0l0.3,1.3L51.2,71.5L51.2,71.5z"/>
<path fill="#FFFFFF" d="M56.1,73.9l-2.7,0.3l0-0.2c0.5-0.1,0.7-0.1,0.7-0.6l-0.3-3.3c-0.5,0.1-1.3,0.2-1.3,1.2l-0.2,0l-0.1-1.3
	l4.5-0.4l0.1,1.3l-0.2,0c-0.2-1-1-0.9-1.5-0.9l0.3,3.3c0.1,0.5,0.2,0.5,0.8,0.5L56.1,73.9L56.1,73.9z"/>
<path fill="#FFFFFF" d="M62.3,73.9l-1.5,0l-1.5-2l-0.2,0l0,1.2c0,0.5,0.2,0.5,0.6,0.6l0,0.2l-2.5-0.1l0-0.2c0.5,0,0.7-0.1,0.7-0.6
	l0.1-2.8c0-0.5-0.2-0.6-0.6-0.6l0-0.2l2.4,0c0.5,0,2.1,0.1,2.1,1.1c0,0.8-0.8,0.9-1.2,1l1.5,1.8c0.1,0.1,0.2,0.1,0.3,0.1V73.9
	L62.3,73.9z M59,71.7c1,0,1.4-0.1,1.4-0.9c0-0.6-0.3-0.9-0.9-0.9c-0.4,0-0.4,0.1-0.5,0.3L59,71.7L59,71.7z"/>
<path fill="#FFFFFF" d="M67.2,74.6l-2.4-0.3l0-0.2c0.5,0,0.6,0,0.6-0.2c0-0.2-0.2-0.7-0.2-0.9l-1.7-0.2c-0.3,0.4-0.4,0.7-0.4,0.8
	c0,0.2,0.3,0.3,0.6,0.3l0,0.2l-1.5-0.2l0-0.2c0.4,0,0.5-0.2,0.8-0.6l2.1-3.2l0.2,0l1.2,3.5c0.3,0.7,0.3,0.9,0.7,1L67.2,74.6
	L67.2,74.6z M65.1,72.8l-0.6-1.6l-0.9,1.4L65.1,72.8L65.1,72.8z"/>
<path fill="#FFFFFF" d="M71.5,75.4l-4.2-0.8l0-0.2c0.4,0,0.6,0.1,0.7-0.3l0.5-3c0.1-0.4-0.2-0.5-0.6-0.6l0-0.2l2.6,0.5l0,0.2
	c-0.5-0.1-0.7-0.1-0.8,0.4l-0.5,2.9c-0.1,0.3,0.1,0.4,0.6,0.5c1.1,0.2,1.6-0.2,2.1-0.9l0.2,0L71.5,75.4L71.5,75.4z"/>
<path fill="#FFFFFF" d="M74.3,76.1l-2.6-0.5l0-0.2c0.4,0,0.7,0.1,0.8-0.3l0.6-3c0.1-0.4-0.3-0.5-0.6-0.6l0-0.2l2.6,0.5l0,0.2
	c-0.3-0.1-0.7-0.1-0.8,0.3l-0.6,3c-0.1,0.4,0.2,0.5,0.6,0.6L74.3,76.1L74.3,76.1z"/>
<path fill="#FFFFFF" d="M79.5,76.7l-2.4-0.2l0-0.2c0.5,0,0.6,0,0.6-0.2c0-0.2-0.2-0.7-0.3-0.9l-1.7-0.2c-0.3,0.4-0.4,0.7-0.4,0.8
	c0,0.2,0.3,0.3,0.6,0.3l0,0.2l-1.5-0.2l0-0.2c0.4,0,0.5-0.2,0.8-0.7l2-3.2l0.2,0l1.3,3.4c0.3,0.7,0.4,0.9,0.7,1L79.5,76.7L79.5,76.7
	z M77.4,75l-0.6-1.6L76,74.9L77.4,75L77.4,75z"/>
<path fill="#FFFFFF" d="M60.4,26.2c0-1.5-0.8-0.1-1.3-1.4c-0.3,1.1-1.4,0.2-1.4,1.3c0,0.4,0.1,0.7,0.3,0.8v0.4
	c0,0.1,0.1,0.2,0.2,0.2h1.6c0.1,0,0.2-0.1,0.2-0.2v-0.5C60.3,26.8,60.4,26.5,60.4,26.2L60.4,26.2z M59.1,26.5c-0.4,0-1,0.3-1-0.2
	c0-0.7,0.5-0.6,0.9-0.6c0.4,0,1.1-0.2,1.1,0.6C60.2,26.8,59.6,26.5,59.1,26.5L59.1,26.5z"/>
<path fill="#FFFFFF" d="M73.5,44.6c0.4,0,0.7-0.3,0.7-0.6c0-0.3-0.3-0.6-0.7-0.6c-0.4,0-0.7,0.3-0.7,0.6
	C72.9,44.4,73.2,44.6,73.5,44.6L73.5,44.6z"/>
<path fill="#FFFFFF" d="M70.3,22.3c0,0-0.3,0.5-0.3,0.6c0,0.2,0.1,0.4,0.3,0.4c0.2,0,0.3-0.2,0.3-0.4C70.6,23,70.3,22.3,70.3,22.3
	L70.3,22.3z"/>
<path fill="#FFFFFF" d="M48.2,22.3c0,0-0.3,0.5-0.3,0.6c0,0.2,0.1,0.4,0.3,0.4c0.2,0,0.3-0.2,0.3-0.4C48.5,23,48.2,22.3,48.2,22.3
	L48.2,22.3z"/>
<path fill="#FFFFFF" d="M53.7,22.3c0,0-0.3,0.5-0.3,0.6c0,0.2,0.1,0.4,0.3,0.4c0.2,0,0.3-0.2,0.3-0.4C54,23,53.7,22.3,53.7,22.3
	L53.7,22.3z"/>
<path fill="#FFFFFF" d="M59.2,22.3c0,0-0.3,0.5-0.3,0.6c0,0.2,0.1,0.4,0.3,0.4c0.2,0,0.3-0.2,0.3-0.4C59.6,23,59.2,22.3,59.2,22.3
	L59.2,22.3z"/>
<path fill="#FFFFFF" d="M64.8,22.3c0,0-0.3,0.5-0.3,0.6c0,0.2,0.1,0.4,0.3,0.4c0.2,0,0.3-0.2,0.3-0.4C65.1,23,64.8,22.3,64.8,22.3
	L64.8,22.3z"/>
<path fill="#FFFFFF" d="M48.2,29.9c0,0,0.3,0.5,0.3,0.6c0,0.2-0.1,0.4-0.3,0.4c-0.2,0-0.3-0.2-0.3-0.4
	C47.9,30.6,48.2,29.9,48.2,29.9L48.2,29.9z"/>
<path fill="#FFFFFF" d="M48.2,37.3c0,0,0.3,0.5,0.3,0.6c0,0.2-0.1,0.4-0.3,0.4c-0.2,0-0.3-0.2-0.3-0.4
	C47.9,37.9,48.2,37.3,48.2,37.3L48.2,37.3z"/>
<path fill="#FFFFFF" d="M49.1,43.2c0,0,0.3,0.5,0.3,0.6c0,0.2-0.1,0.4-0.3,0.4c-0.2,0-0.3-0.2-0.3-0.4
	C48.8,43.8,49.1,43.2,49.1,43.2L49.1,43.2z"/>
<path fill="#FFFFFF" d="M53.7,46.3c0,0,0.3,0.5,0.3,0.6c0,0.2-0.1,0.4-0.3,0.4s-0.3-0.2-0.3-0.4C53.4,46.9,53.7,46.3,53.7,46.3
	L53.7,46.3z"/>
<path fill="#FFFFFF" d="M70.6,29.9c0,0-0.3,0.5-0.3,0.6c0,0.2,0.1,0.4,0.3,0.4c0.2,0,0.3-0.2,0.3-0.4C70.9,30.6,70.6,29.9,70.6,29.9
	L70.6,29.9z"/>
<path fill="#FFFFFF" d="M70.6,37.3c0,0-0.3,0.5-0.3,0.6c0,0.2,0.1,0.4,0.3,0.4c0.2,0,0.3-0.2,0.3-0.4C70.9,37.9,70.6,37.3,70.6,37.3
	L70.6,37.3z"/>
<path fill="#FFFFFF" d="M69.7,43.2c0,0-0.3,0.5-0.3,0.6c0,0.2,0.1,0.4,0.3,0.4c0.2,0,0.3-0.2,0.3-0.4C70,43.8,69.7,43.2,69.7,43.2
	L69.7,43.2z"/>
<path fill="#FFFFFF" d="M65.1,46.3c0,0-0.3,0.5-0.3,0.6c0,0.2,0.1,0.4,0.3,0.4c0.2,0,0.3-0.2,0.3-0.4C65.4,46.9,65.1,46.3,65.1,46.3
	L65.1,46.3z"/>
<path fill="#FFFFFF" d="M59.4,49.5c0,0-0.3,0.5-0.3,0.6c0,0.2,0.1,0.4,0.3,0.4c0.2,0,0.3-0.2,0.3-0.4C59.7,50.2,59.4,49.5,59.4,49.5
	L59.4,49.5z"/>
<path fill="#FFFFFF" d="M68.4,38.5c0.1,0.1,0.2,0.1,0.5,0.1l0.2-0.6c0,0-0.2-0.3-0.4-0.2c-0.6,0.1-1.2,0.2-1.6,0.8
	c0,0.4,0.3,0.7,0.6,0.9c0.2-0.1,0.2,0.1,0.4,0.2c0,0.2-0.1,0.3-0.2,0.3c-0.4-0.4-1.1,0.1-1.5-0.4c0.1-0.5,0.4-1.1,0-1.6
	c0-0.1,0.2-0.2,0.1-0.3c-0.2-0.5-0.7-0.1-1-0.1c-0.5-0.1-0.9,0.2-1.3,0.6c0,0.2,0.1,0.4,0.3,0.5c0.1,0,0.2,0,0.2,0.1l-0.3,0.2
	c0.1,0.1,0.1,0.2,0.1,0.4c-0.2,0.1-0.5-0.2-0.6-0.4c0-0.3,0-0.8-0.3-0.8c-0.1,0-0.3,0.1-0.3,0.1c-0.1,0.1-0.1,0.3-0.1,0.6
	c0,0.2,0.1,0.6,0.1,0.6s1.1,0.8,1.3,1.3c-0.3,0.6-0.3,1.5-1,1.9c-0.2,0.1-0.2,0.4-0.2,0.6l0.2,0.1c0.5-0.2,1.3-0.3,1.3-1.1
	c0.2-0.3,0.3-0.7,0.7-0.9c0.4-0.1,0.7,0.1,0.8,0.4c-0.1,0.5-0.5,0.9-0.9,1.1c-0.1,0.1,0,0.2,0,0.3c0.1,0.2,0.5,0.1,0.7,0.1
	c0.6-0.4,0.8-1.1,1.4-1.3c0.1,0.3-0.7,0.5-0.2,0.8c0.3-0.1,0.7,0,0.9-0.4c-0.2-0.6,0.8-0.9,0.2-1.4c0-0.5,0.6-0.7,0.5-1.3
	c-0.2-0.6-0.9-0.6-1-1.1C67.9,38.4,68.2,38.4,68.4,38.5L68.4,38.5z"/>
<path fill="#FFFFFF" d="M43,44.9c0.4,0,0.7-0.3,0.7-0.6c0-0.3-0.3-0.6-0.7-0.6c-0.4,0-0.7,0.3-0.7,0.6C42.3,44.6,42.6,44.9,43,44.9
	L43,44.9z"/>
<path fill="#FFFFFF" d="M7.2,65.9c0.4,0,0.7-0.3,0.7-0.7c0-0.4-0.3-0.6-0.7-0.6c-0.4,0-0.7,0.3-0.7,0.6C6.5,65.6,6.8,65.9,7.2,65.9
	L7.2,65.9z"/>
<path fill="#FFFFFF" d="M72.1,21.5L72.1,21.5l-25.5,0v0h0l0,19.5c0,2,0.8,3.7,2,4.3l9.8,6.2c0.2,0.2,0.5,0.4,0.9,0.4
	c0.3,0,0.6-0.1,0.8-0.3l10-6.3c1.2-0.5,2-2.3,2-4.3L72.1,21.5L72.1,21.5L72.1,21.5z M71.4,41.2c-0.1,1.5-0.6,2.7-1.7,3.4l-9.6,6.1
	h-0.1c-0.2,0.2-0.5,0.3-0.7,0.3c-0.3,0-0.5-0.1-0.8-0.3L49,44.6c-1-0.7-1.5-1.9-1.7-3.4V22.2h24.1V41.2L71.4,41.2z"/>
<path fill="#FFFFFF" d="M62.8,49.9l0.3-0.1C63,49.8,62.9,49.8,62.8,49.9L62.8,49.9z"/>
<path fill="#FFFFFF" d="M43.6,76.5l-2.4,0.3l0-0.2c0.5-0.1,0.6-0.1,0.6-0.3c0-0.2-0.3-0.6-0.4-0.8l-1.7,0.2
	c-0.2,0.5-0.2,0.7-0.2,0.8c0,0.2,0.4,0.2,0.6,0.2l0,0.2l-1.5,0.2l0-0.2c0.4-0.1,0.5-0.3,0.6-0.8l1.3-3.6l0.2,0l2,3.1
	c0.4,0.6,0.6,0.8,0.9,0.8L43.6,76.5L43.6,76.5z M41.1,75.3l-0.9-1.4l-0.5,1.6L41.1,75.3L41.1,75.3z"/>
<path fill="#FFFFFF" d="M85.8,67.4c-0.4-1.1-1.4-1.9-2.5-2.3c-1.2-0.3-2.4-0.1-3.2,0.8c-1.3,1.1-0.4,2.8-0.4,4.3
	c0,0.3,0,0.5-0.3,0.7c-5.3-0.5-10.2-1.8-15.5-2.4c-1.2-0.2-2.4-0.2-3.6-0.4L59,68c-4.6,0.1-9.2,0.4-13.4,1.5
	c-0.9,0.3-1.9,0.4-2.9,0.7c-0.7-0.1-1.2,0.4-1.8,0.2l-1.2,0.3c-0.1,0-0.2,0-0.4,0c-0.6-1.5,1.2-2.4,0.6-3.9
	c-0.5-0.8-1.4-1.7-2.5-1.5c-1.2-0.1-2.3,0.6-2.9,1.5c-0.8,1.8,0.2,3.8,0.5,5.6c-0.1,0.6,0.6,1.3,0,1.7c-1.2-0.8-2.7-1.3-4.1-0.8
	c-0.4,0.2-1.2-0.1-1.5,0.4c1.6,0.8,3.6,0.7,5.3,0.7c0.2-0.1,0.4-0.1,0.5,0c0.1,1-0.2,2.2,0.4,3.1c0.7,0.9,1.8,1.1,2.8,1.2
	c3.4-0.1,6.4-1.1,9.4-1.9c0.5,0,0.8-0.3,1.4-0.3c1.6-0.4,3.4-0.7,5.2-0.7c-0.8,1-1.2,2.1-1.5,3.3c-0.4,1,0.8,1.1,1.1,1.7
	c-1.1,0.3-1.9,1.1-3,1.5c-2.3-0.1-4.3,0.8-6.5,1.1c0,0.5,0.8,0.3,0.8,0.8c-0.1,0.3-0.4,0.4-0.7,0.6c0,0.2,0,0.3,0.2,0.3
	c0.2-0.3,0.7-0.1,0.9-0.3c0.7,0,1.4-0.2,2-0.3c0.6-0.3,1.3-0.3,1.9-0.7c0.8-0.2,1.2-0.7,2-1c1.1,0,2.1-0.4,3.1-0.4v0.2
	c-0.8,1.4-1.7,2.8-2.6,4.1c-0.1,0.3,0,0.5,0.3,0.6c0.5,0.1,1,0,1.4-0.2c0.8-1.3,1.5-2.6,2.1-3.9c0.3-1.3,1.2-1.9,2.1-2.8
	c0.1-0.1,0.4-0.3,0.5-0.1c-0.7,0.8-1.2,1.7-1.8,2.6c-0.3,1-0.4,2.4,0.5,3.2c0.4,0.4,1.1,0.3,1.7,0.3c1.4-0.7,3.3,0.4,4.4-1
	c0.7-0.1,0.8,0.7,1.1,1c0.6,0.2,1.3,0.8,1.9,0.4c0-0.4-0.5-0.8-0.7-1.1c-0.4-0.8-1-1.4-1.4-2.1c-0.2-0.5-0.5-0.8-0.6-1.4
	c0.7,0.2,1.2,0.7,2,0.8c0.6,0.3,1.4,0.2,2,0.6c0.5,0.6,1.2,1,1.8,1.4c0.9,0.4,1.9,0.5,2.9,0.9c0.4,0,0.9,0.3,1.2,0
	c-0.1-0.2-0.3-0.3-0.5-0.4c-0.1-0.5,0.7-0.2,0.9-0.6c-0.1-0.2-0.2-0.3-0.4-0.3c-0.5-0.3-1.8-0.4-2.2-0.6c-0.4-0.1-0.8-0.3-1.3-0.4
	c-2.2,0-3.4-2-5.2-2.7c0.4-0.4,1-0.7,1.3-1.2c0.3-0.5,0.4-1.4,0.1-2c-0.3-1.1-1.8-1-2.6-1.6l0.1-0.1c1.4-0.1,2.7,0.3,4,0.5
	c3.5,0.5,6.8,1.8,10.4,1.9c2,0,4.5,0.1,5.5-1.8c0.2-1.1,0.4-2.3,0.6-3.4C84.8,71.1,86,69.4,85.8,67.4L85.8,67.4z M46.3,84.2
	l-0.5-0.5c0.3-0.3,0.8-0.1,1.2-0.4c1-0.3,2.1-0.7,3.1-0.4C49,83.8,47.6,83.9,46.3,84.2L46.3,84.2z M69.1,83.6
	c0.9,0.4,2.6,0.8,3.9,0.9c-0.1,0.5-1,0-0.9,0.7c-1.1-0.4-2.5-0.7-3.3-1.5C68.9,83.7,69,83.6,69.1,83.6L69.1,83.6z M34.8,68
	c0.1-0.7,0.3-1.4,0.9-1.8c0.9-0.5,2.1-0.4,2.9,0.1c0.3,0.1,0.4,0.4,0.6,0.7c0.2,0.6-0.1,1.3-0.6,1.7h-0.4c0-0.6,0-1.2,0.2-1.7
	c0-0.4-0.4-0.5-0.7-0.7c-0.6-0.2-1.2,0.1-1.6,0.4c-0.4,0.4-0.7,1-0.5,1.6c0.3,0.4,0,1,0.2,1.4l-0.1,0.2C35.3,69.3,34.7,68.8,34.8,68
	L34.8,68z M36.5,69c0.5,0.4,1.3,0.2,2,0.3c0.1,0.4,0.1,0.9-0.2,1.3c-0.6-0.2-1.4-0.1-1.8-0.7C36.6,69.7,36.4,69.3,36.5,69L36.5,69z
	 M36.4,67.8c0.1-0.3,0-0.7,0.4-0.8c0.3-0.1,0.7-0.1,0.7,0.2c0,0.4-0.1,0.9-0.2,1.3C36.8,68.5,36.5,68.2,36.4,67.8L36.4,67.8z
	 M53.6,79.6c-0.2-1.3,0.3-2.4,1.2-3.3c0.5-0.1,1.1-0.2,1.6,0.1c-1,0.3-2.2,0.5-2.4,1.7c0,0.5-0.1,0.7,0.1,1.1c0.4,0.7,1.3,0.4,1.8,1
	c0,0.2-0.1,0.4-0.3,0.4C54.9,80.2,54.2,80.1,53.6,79.6L53.6,79.6z M52.3,82.1c0.9-0.4,1.8-1.1,2.8-0.8
	C54.3,81.9,53.2,82.1,52.3,82.1L52.3,82.1z M55.7,82.5c-0.5,1.2-1.1,2.3-1.8,3.5c-0.1,0.2-0.4,0.2-0.6,0.3c0-0.5,0.5-0.9,0.7-1.4
	c0.8-1,1-2.1,1.9-3C56.2,82.1,55.7,82.2,55.7,82.5L55.7,82.5z M56.6,80.4v0.1h-0.1L56.6,80.4L56.6,80.4L56.6,80.4
	C56.7,80.3,56.6,80.3,56.6,80.4L56.6,80.4L56.6,80.4z M56.3,79.4c-0.6-0.1-1.2-0.3-1.8-0.4c-0.4-0.4,0-0.8,0-1.2
	c0.5-0.8,2-1.2,2.7-0.5C57.1,78.1,56.8,78.8,56.3,79.4L56.3,79.4z M57.1,79.4c0.1-0.5,0.3-1.1,0.6-1.5C57.7,78.3,57.5,79,57.1,79.4
	L57.1,79.4z M57.5,76.4c-0.5-0.1-0.7-0.7-1.2-0.7c0.4-0.1,0.9-0.1,1.4,0C57.9,76,57.6,76.2,57.5,76.4L57.5,76.4z M58,77.5L58,77.5
	l0-0.4h0V77.5L58,77.5z M58,79.2c0-0.1,0.1-0.3,0.1-0.5c0.2-0.2,0.4,0.2,0.4,0.3C58.4,79.1,58.2,79.2,58,79.2L58,79.2z M58.5,76.9
	c0.2-0.5,0.2-1,0.6-1.4c0.4,0,0.7,0,1,0.1c0.1,0.7,1,1.7,0,2.4c-0.3,0.2-0.8,0.5-1.2,0.2C58.4,77.8,58.4,77.4,58.5,76.9L58.5,76.9z
	 M61.2,75.9c-0.1-0.3,0.3-0.1,0.5-0.2l1.1,0.1C62.2,75.7,61.5,77,61.2,75.9L61.2,75.9z M63.1,76.4c-0.4,0.1-0.8,0.7-1.2,0.8
	C62.1,76.7,62.6,76.3,63.1,76.4L63.1,76.4z M61.5,78.6v0.1h0L61.5,78.6L61.5,78.6L61.5,78.6z M61.6,80.9c0,0.1,0,0.2-0.1,0.3
	l-0.8-0.7C61.1,80.4,61.4,80.6,61.6,80.9L61.6,80.9z M60.6,79.8c0.1-0.1,0.3-0.1,0.3,0H60.6L60.6,79.8z M60.1,79.2
	c0.1-0.2,0.3-0.6,0.6-0.6c0,0,0,0.1,0.1,0.1C60.5,78.9,60.3,79.1,60.1,79.2L60.1,79.2z M59.2,79.1h-0.1l0.2-0.2
	C59.4,79,59.3,79.1,59.2,79.1L59.2,79.1z M59.4,80.5c0.5-0.5,0.9,0.3,1.1,0.7c0.5,0.8,2,1.5,1.4,2.7c-0.7,0.6-1.8,0-2.6,0.5
	c-0.4,0-1.1,0.1-1.3-0.3C58.4,82.9,58.8,81.6,59.4,80.5L59.4,80.5z M58.3,81.2l0.2-0.3c-0.3,0.9-0.7,1.8-1.2,2.7
	C57.1,82.7,58,82,58.3,81.2L58.3,81.2z M59.9,85.6c-0.7,0-1.8,0.4-2.4-0.2c0-0.3-0.3-0.4-0.3-0.7c0.6-0.2,1.1,0.5,1.6,0
	c0.8,0,1.7-0.1,2.6,0.1c0.4,0.1,1-0.7,1.1,0.1C62.3,86.1,60.8,85.2,59.9,85.6L59.9,85.6z M62.1,80.3v-0.1h0.1L62.1,80.3L62.1,80.3
	L62.1,80.3z M62.3,82.6c0,0.4,0.4,0.5,0.2,0.8C62.4,83.3,62.2,83,62.3,82.6L62.3,82.6z M63.3,84.8l-0.2,0.1
	c-0.2-0.1-0.1-0.6-0.1-0.8C63.3,84.3,63.5,84.6,63.3,84.8L63.3,84.8z M65.1,85.7c0,0.1-0.2,0.1-0.3,0c-1.1-1.4-1.6-2.9-2.3-4.4
	l0.1,0C63.6,82.7,64.3,84.3,65.1,85.7L65.1,85.7z M66.5,82.3c-0.1,0-0.1,0.1-0.1,0.1c-1.1,0-1.8-0.6-2.6-1.1l0-0.2
	C64.8,81.2,65.6,81.9,66.5,82.3L66.5,82.3z M65.5,77.4c0.4,0.1,0.5,0.6,0.5,1c0,0.8-0.5,1.5-1.2,1.8c-0.4,0.2-1,0.3-1.4,0.1
	c0.9,0,1.8-0.4,2.2-1.2L65.5,77.4L65.5,77.4z M64.7,77.3c0.2,0.5,0.5,1,0.3,1.6c-0.4,0.7-1.1,0.7-1.8,0.8c-0.3,0-0.6-0.1-0.8-0.3
	c0-0.1,0-0.3-0.1-0.4c0.1-0.5-0.8-1-0.2-1.4C62.7,77.2,64.1,76,64.7,77.3L64.7,77.3z M83.3,74.6c-0.3,0.4,0,1-0.4,1.3
	c0,0.7-0.6,1-1,1.3c-4.4,1-8.6-0.5-12.8-1.3c-5.9-1.3-12.8-1.7-18.8-0.3c-2.8,0.5-5.6,1.2-8.3,2c-1.7,0.2-3.5,0.5-5.1,0
	c-1.3-0.6-0.8-2.3-1.2-3.5c0.1-0.9-0.3-1.7-0.3-2.5c-0.1-0.3-0.2-0.7-0.1-1c0.5,0.1,1.1,0.5,1.7,0.6c3.1,0.6,5.8-0.4,8.7-0.9
	c2.7-0.6,5.6-1.1,8.5-1.3c3.3,0,6.7-0.2,9.8,0.3c1,0,1.9,0.3,2.9,0.4c2.1,0.3,4,0.8,6,1c0.3,0.1,0.7,0.1,1.1,0.2
	c3.3,0.5,7,1.4,10.1,0C84.1,72.1,83.5,73.3,83.3,74.6L83.3,74.6z M82.3,70.1c0,0.6-0.5,0.4-0.8,0.7h-0.9c-0.2-0.3-0.1-0.7-0.1-1
	C81.1,69.8,81.8,69.8,82.3,70.1L82.3,70.1z M81.9,69.2c0.4-0.4-0.1-2.7,1-1.2c0,0.3,0,0.7-0.3,1C82.5,69.1,82.2,69.4,81.9,69.2
	L81.9,69.2z M84.9,68.8c-0.3,0.7-0.8,1.1-1.6,1.3c0-0.9,0.8-1.5,0.6-2.5c-0.5-0.7-1.4-0.9-2.3-0.7c-0.3,0.2-0.2,0.6-0.3,0.9
	l-0.1,1.2c-0.7,0-0.8-0.7-1-1.2c0-0.8,0.4-1.5,1.1-1.9c0.6-0.3,1.5-0.3,2.1,0.1c0.5,0.1,1,0.3,1.2,0.8C85.1,67.2,85,68.1,84.9,68.8
	L84.9,68.8z"/>
</svg>
